<?xml version="1.0" encoding="UTF-8"?>
<svg id="Layer_1" xmlns="http://www.w3.org/2000/svg" version="1.1" viewBox="0 0 360 251.75">
  <!-- Generator: Adobe Illustrator 30.2.1, SVG Export Plug-In . SVG Version: 2.1.1 Build 1)  -->
  <defs>
    <style>
      .st0 {
        fill: #ec1e24;
      }

      .st1 {
        fill: #fff;
      }
    </style>
  </defs>
  <g>
    <path class="st1" d="M108.62,103.25c.34-.95,1.38-3.18,2.48-5.12,1.3-2.29,2.12-3.39,3.22-4.27,1.17-.96,2.79-1.35,4.34-.47,1.23.7,2,2.05,1.63,4.17l.04.02c1.5-1.54,3.44-1.95,5.26-.93,1.42.81,2.12,2.2,2.25,3.67.12,1.61-.51,3.76-2.34,7-1.12,1.98-2.04,3.29-2.62,4.02l-14.26-8.08ZM116.22,102.22l.49-.86c1.08-1.9,1.05-3.06.14-3.57-.82-.46-1.7-.02-2.52,1.42-.44.78-.63,1.21-.75,1.52l2.63,1.49ZM122.43,105.74c.23-.3.45-.69.79-1.29.81-1.42.98-2.89-.29-3.61-1.23-.7-2.34.3-3.27,1.94l-.6,1.06,3.37,1.91Z"/>
    <path class="st1" d="M133.34,85.72l-4.59,5.01,2.1,1.93,5.12-5.6,2.78,2.55-8.29,9.05-12.33-11.29,8.04-8.78,2.78,2.55-4.87,5.32,1.88,1.72,4.59-5.01,2.78,2.55Z"/>
    <path class="st1" d="M139.15,89.05l-9.32-13.87,4.88-3.28,4.98,2.48c1.92.95,4.06,2.26,5.98,3.6l.06-.04c-1.63-1.89-2.78-3.57-4.06-5.46l-2.43-3.62,3.6-2.42,9.32,13.87-4.26,2.86-5.6-2.9c-1.96-1.01-4.21-2.22-6.29-3.57l-.08.06c1.51,2.03,2.89,4.03,4.3,6.13l2.52,3.75-3.6,2.42Z"/>
    <path class="st1" d="M152.47,66.56l-4.43,1.6-1.29-3.59,13.37-4.81,1.29,3.59-4.53,1.63,4.37,12.13-4.41,1.59-4.37-12.13Z"/>
    <path class="st1" d="M181.61,65.22c.53,5.03-2.61,9.08-8.33,9.68-5.48.58-9.19-2.74-9.7-7.53-.54-5.08,2.73-9.14,8.18-9.72,5.62-.59,9.34,2.68,9.85,7.56ZM168.53,66.73c.3,2.86,2.1,4.82,4.62,4.55,2.54-.27,3.82-2.55,3.52-5.41-.3-2.86-2.11-4.86-4.6-4.6s-3.84,2.6-3.54,5.46Z"/>
    <path class="st1" d="M182.82,73.81l2.84-16.47,5.79,1,1.89,5.23c.74,2.01,1.37,4.44,1.83,6.73h.07c.13-2.48.45-4.49.84-6.74l.74-4.3,4.28.74-2.84,16.47-5.06-.87-2.04-5.96c-.72-2.09-1.51-4.51-2.08-6.93l-.1-.02c-.31,2.51-.7,4.91-1.13,7.41l-.77,4.45-4.28-.74Z"/>
    <path class="st1" d="M203.51,78.79l1.75-17.62,4.65,2.17-.88,6.7c-.24,1.99-.54,3.85-1.05,6.08l.04.02c1.31-1.69,2.65-3.23,3.92-4.6l4.68-5.07,4.47,2.08-12.52,12.61-5.08-2.37Z"/>
    <path class="st1" d="M227.72,73.63l-9.76,13.57-3.8-2.74,9.76-13.57,3.8,2.74Z"/>
    <path class="st1" d="M231.32,76.35l3.33,3.3-9.01,9.09,5.12,5.08-2.76,2.78-8.45-8.38,11.77-11.87Z"/>
    <path class="st1" d="M242.23,87.86l2.61,3.9-10.64,7.11,4.01,6-3.26,2.18-6.62-9.89,13.89-9.29Z"/>
    <path class="st1" d="M245.6,115.79l-2.53-6.31-2.65,1.06,2.82,7.04-3.5,1.4-4.57-11.39,15.51-6.22,4.43,11.05-3.5,1.4-2.69-6.7-2.37.95,2.53,6.31-3.5,1.4Z"/>
  </g>
  <g>
    <path class="st1" d="M147.86,191.44l-4.07-2.16,1.75-3.3,12.28,6.52-1.75,3.3-4.16-2.21-5.91,11.14-4.05-2.15,5.91-11.14Z"/>
    <path class="st1" d="M173.06,204.61c-1.13,4.82-5.33,7.54-10.81,6.26-5.24-1.23-7.6-5.5-6.53-10.08,1.14-4.86,5.46-7.56,10.68-6.34,5.38,1.26,7.76,5.48,6.66,10.16ZM160.49,201.78c-.64,2.74.39,5.13,2.8,5.69,2.43.57,4.35-1.12,4.99-3.86.64-2.74-.38-5.17-2.76-5.73-2.39-.56-4.38,1.16-5.03,3.9Z"/>
    <path class="st1" d="M180.29,213.02l-5.71-15.86,4.95-.49,1.66,5.98c.53,1.9,1.11,4.11,1.53,5.65h.05c.09-1.82.23-3.85.39-5.92l.47-6.12,5.21-.51,1.67,6.29c.5,1.88.85,3.47,1.27,5.21h.05c.07-1.79.21-3.8.36-5.77l.49-6.12,4.68-.46-2.84,16.71-5.02.5-1.93-6.98c-.38-1.4-.74-2.78-1.12-4.64h-.05c-.08,1.91-.13,3.36-.28,4.81l-.65,7.21-5.19.51Z"/>
    <path class="st1" d="M202.67,191.94l5.58,15.37-4.31,1.56-5.58-15.37,4.31-1.56Z"/>
    <path class="st1" d="M213.98,205.14l-8.62-13.89,4.89-3.03,4.78,2.6c1.85,1,3.89,2.36,5.71,3.73l.06-.04c-1.53-1.91-2.6-3.59-3.77-5.48l-2.25-3.63,3.61-2.24,8.62,13.89-4.27,2.65-5.37-3.04c-1.88-1.06-4.04-2.32-6.02-3.72l-.08.05c1.41,2.04,2.68,4.05,3.99,6.15l2.33,3.75-3.61,2.24Z"/>
    <path class="st1" d="M242.03,180.31c-.59,1.36-1.81,3.61-3.42,5.43-2.38,2.69-4.66,3.94-6.86,4.13-2.12.2-4.15-.51-5.81-1.97-4.23-3.75-3.49-9.09.37-13.44,1.66-1.87,3.25-3.01,4.24-3.44l2.04,3.11c-1.03.51-2.14,1.21-3.62,2.88-1.9,2.14-2.49,4.93-.14,7,2.18,1.93,5.06,1.57,7.15-.79.5-.56.91-1.14,1-1.38l-1.98-1.75-1.67,1.89-2.63-2.33,4.65-5.25,6.68,5.92Z"/>
  </g>
  <g>
    <path class="st1" d="M125.28,150.1c.26-.96-.07-2.01-.93-2.55-1.01-.58-2.23.01-2.76.98-.64,1.05-.44,2.51.59,3.18,1.3.66,2.75-.32,3.09-1.6Z"/>
    <path class="st1" d="M218.3,119.17c-2.65-.5-8.28-.16-8.28-.16-.04-.07,2.58-3.14,3.65-4.84,2.77-4.41,1.41-9.62.09-14.09-2-6.81-10.84-13.21-19.5-13.82l-54.45,28.82c-4.28,1.39-8.58,2.72-12.91,3.95l-.08-.23c-1.3-3.44-5.5-5.16-9.18-3.64-3.68,1.51-5.74,5.75-4.34,9.15.4.97.95,1.78,1.71,2.54l4.38,11.59c-.72,1.16-1.45,2.31-2.16,3.46-1.55,2.52-3.02,5.08-4.43,7.67-.79,1.56-1.05,2.94-.03,4.41.29.4.62.79.93,1.2.39.51.32,1.05-.21,1.35-.46.27-.98.5-1.52.63-1.54.35-3.11.65-4.63,1.04-2.71.69-5.07,2.18-7.17,4-1.27,1.25-2.27,2.56-3.17,4.07-5.1,8.77-.05,19.58,9.67,22.08,3.57.73,6.94.64,10.46-.63,3.59-1.54,6.25-3.75,8.15-7.05.64-1.25,1.26-2.51,1.9-3.77.75-1.39,1.99-2.66,3.54-3.24.19-.07.37-.18.54-.3.66-.46.76-1.23.27-1.79-.34-.39-.81-.59-1.31-.71-1.41-.39-3.03-.26-4.4.13-2.09.6-3.81,1.76-5.53,3.15-1.19.98-2.37,1.85-3.72,2.61-2.21,1.2-4.74.82-6.32-.91-2.04-2.17-1.24-5.63,1-7.55.97-.74,1.85-1.25,2.96-1.78,1.79-.76,3.59-1.47,5.33-2.33,2.09-1.12,3.52-2.76,4.67-4.72.36-.74.99-1.56,1.69-2.06.84-.62,1.68-1.25,2.59-1.79.58-.34,1.1-.69,1.39-1.25.61-1.14,1.01-2.37,1.34-3.6.33-1.25.61-2.51.92-3.76.32-1.14.68-2.21,1.13-3.31.75-1.52.51-3.21-.85-4.23-.83-.62-1.62-1.25-2.27-2.05-.49-.59-.89-1.03-1.37-1.33-.28-.17-.58-.3-.92-.39.2-.32.4-.64.6-.96l58.97-25.54h.01c2.97-.53,4.98,1.19,5.91,3.66.8,2.13.7,4.49-.89,6.38-1.64,1.95-4.39,3.23-6.62,4.41-6.86,3.59-13.65,7.29-20.47,10.96l-3.78-10.01c-7.09,3.24-14.22,6.42-21.43,9.37,5.93,15.7,11.86,31.4,17.79,47.09l7.99,2.93c15-8.08,29.57-16.92,44.64-24.88,5.25-2.78,11.34-5.76,15.24-10.27,4.98-5.77,4.72-12.97,2.32-19.32-1.66-4.39-4.56-9.38-9.86-10.37ZM119.47,119.96c.95-.41,2.08.1,2.41.97.33.88-.15,2.05-1.12,2.43-.94.36-2.09-.12-2.42-.99-.33-.88.2-2.02,1.13-2.42ZM128.18,149.34c-.31-1.78-.98-3.51-2.6-4.55-1.74-1.22-3.85-.6-5.48.63.46-1.84.86-3.83,1.82-5.54.21-.35.43-.69.72-1.03.22-.27.44-.49.66-.65.2-.08.41-.17.61-.25.08,0,.16,0,.24,0,.5.07,1.04.16,1.58.3.64.17,1.26.44,1.87.9.8.61,1.49,1.36,2.19,2.04.59.57.82,1.68.55,2.47-.38,1.42-.77,2.82-1.26,4.21-.2.51-.38,1.07-.89,1.47ZM119.07,180.51c-3,1.53-6.48,1.81-9.49.48-1.47-.59-2.63-1.75-3.58-2.93-.03-.04-.04-.09-.07-.19,1.35,1.31,3.05,2.38,4.96,2.85,3.47.69,6.48.08,9.53-1.83,1.46-1.06,2.72-2.24,3.97-3.51-.08.15-.16.3-.25.45-.1.16-.2.32-.31.48-1.35,1.76-2.8,3.1-4.77,4.21ZM104.28,166.28c-.81,1.47-1.28,3.08-1.4,4.71-.05.69-.05,1.38-.12,2.09-.08-.4-.19-.8-.25-1.2-.03-.24-.05-.47-.07-.71-.09-1.43.14-2.88.66-4.24.23-.61.53-1.2.88-1.77.42-.63.88-1.22,1.38-1.77.12-.14.25-.28.38-.41.06-.06.11-.11.17-.17.65-.64,1.35-1.22,2.14-1.71.02-.02.05-.03.07-.05.54-.34,1.12-.64,1.74-.91.15-.06.31-.13.46-.19.15-.06.31-.12.46-.18.93-.36,1.88-.68,2.81-1.03.91-.34,1.69-.74,2.43-1.26.18-.13.36-.26.53-.4.13-.1.26-.21.39-.32.11-.11.22-.23.32-.35.72-.84,1.18-1.85,1.34-2.9,0-.05.02-.1.03-.15,0,0,0-.02,0-.02,0,0,0,0,0,0,0,0,.02-.02.07-.05h0c.06.21.1.42.11.63.05.63-.08,1.27-.35,1.86-.08.18-.18.36-.29.54-.59.8-1.16,1.39-1.87,1.89-.07.05-.14.1-.22.15-.37.24-.77.46-1.23.67-.15.06-.3.12-.44.18-1.1.44-2.21.83-3.32,1.24-1.2.5-2.23,1.07-3.17,1.76-.07.05-.15.11-.22.16-.04.03-.08.06-.12.09-.28.22-.54.44-.81.68-.06.05-.11.1-.17.16-.11.11-.22.21-.33.32-.05.05-.11.11-.16.17-.08.09-.17.17-.25.26-.05.05-.1.11-.14.16-.19.21-.38.43-.56.65-.34.45-.65.93-.92,1.42ZM116.58,147.88c-.44,1.54-.61,2.95.39,4.29.21.27.45.54.67.8-.37.3-.6.24-.88,0-1.43-1.45-1.6-2.63-1.04-4.58.87-2.05,1.8-4.07,2.82-6.06.52-.99,1.07-1.95,1.65-2.88.14-.06.32-.13.53-.21-1.69,2.74-2.95,5.64-4.14,8.64ZM120.53,151.13c-.03-.09-.05-.18-.07-.28s-.03-.19-.04-.28c-.08-.81.13-1.69.52-2.35.39-.66,1.11-1.31,1.91-1.59h0c.55-.19,1.14-.21,1.69.06.4.18.72.43.97.73.05.06.1.13.15.2.01.02.02.03.04.05.05.07.09.15.14.23,0,.01.01.02.02.03.28.54.38,1.17.3,1.8,0,.04,0,.07-.02.11-.01.07-.02.14-.04.21-.09.4-.24.79-.47,1.15,0,.01-.02.03-.03.04-.02.03-.05.07-.08.1-.02.03-.05.06-.07.09-.08.11-.17.21-.27.31,0,0,0,0,0,0-.06.06-.12.11-.18.17-.02.01-.03.03-.05.04-.32.27-.7.49-1.1.65,0,0,0,0,0,0-.82.32-1.74.33-2.43-.22-.14-.09-.26-.2-.37-.32-.04-.05-.08-.09-.12-.14-.07-.09-.13-.17-.18-.27-.09-.16-.16-.34-.22-.52ZM100.89,184.41s0,0,0,0c0,0,0,0,0,0ZM116.8,187.09h0s0,0,0,0ZM116.34,187.25s.01,0,.02,0c0,0-.01,0-.02,0ZM129.54,153.45c-.26.5-1.82,1.7-1.81,1.74h0s0,0,0,0c-.2.03-1.24.23-1.63.35-.77.25-1.36.76-1.81,1.59-.28.53-.65,1.04-1.03,1.5-.97,1.17-2.04,2.12-3.36,2.99-2.12,1.16-4.38,1.94-6.64,2.79-.36.13-.71.27-1.07.41.19-.16.39-.28.6-.38,2.24-1.05,4.5-2.03,6.61-3.32,1.87-1.31,3.31-2.77,4.59-4.61.64-.8,1.29-1.57,2.39-1.8.42-.1,1.67-.44,1.77-.48.06-.02,1.12-.27,1.38-.77.12-.25.23-.5.34-.75-.11.25-.22.5-.34.75ZM126.1,125.36c.5-.8.88-1.7,1.05-2.62,4.41-1.22,8.8-2.55,13.16-3.94-4.69,2.28-9.42,4.48-14.21,6.56ZM183.08,107.32c-2.09-2.28-4.17-4.57-6.26-6.85.64-.32,1.28-.65,1.92-.97,2.09,2.28,4.17,4.57,6.26,6.85-.64.32-1.28.64-1.92.96ZM187.92,104.9c-2.09-2.29-4.18-4.57-6.26-6.86.64-.32,1.28-.63,1.92-.95,2.09,2.29,4.18,4.58,6.26,6.86-.64.31-1.29.63-1.93.94ZM204.03,144.1c-1.69,1.65-4.12,2.79-6.22,3.93-7.59,4.08-15.09,8.32-22.62,12.51l-4.72-12.5c7.37-4.03,14.71-8.11,22.13-12.04,2.12-1.11,4.58-2.65,6.97-3.03,2.93-.46,4.85,1.51,5.76,3.91.94,2.46.75,5.21-1.31,7.22ZM192.78,102.55c-2.09-2.29-4.18-4.58-6.27-6.87.64-.31,1.29-.62,1.93-.92,2.09,2.29,4.18,4.59,6.27,6.88-.65.3-1.29.61-1.94.91Z"/>
  </g>
  <path class="st0" d="M237.09,132.3c-.22-7.38-1.85-14.56-4.84-21.35-.86-1.95-1.84-3.87-2.91-5.72h.16l-2.22-3.27c-.11-.17-.23-.34-.38-.55-.06-.09-.13-.18-.19-.28-.03-.04-.06-.08-.08-.12l-.04-.05c-.43-.61-.87-1.2-1.29-1.76l-2.28-2.97-.05.14c-2.1-2.39-4.41-4.63-6.89-6.65-5.75-4.69-12.24-8.17-19.3-10.34-5.42-1.67-11.04-2.52-16.7-2.52h0c-1.21,0-2.45.04-3.68.12l.05-.12-3.49.43c-1.91.24-3.82.57-5.7,1-5.13,1.16-10.08,3.04-14.71,5.58-2.38,1.3-4.68,2.79-6.84,4.41l-.04.03c-.08.06-.16.12-.24.18l-.09.07c-.09.07-.18.14-.27.21h-.01c-2.14,1.66-4.19,3.49-6.08,5.44-3.77,3.89-6.96,8.28-9.48,13.06-.84,1.58-2.07,4.2-2.75,5.85l5.13,2.19c.6-1.55,1.28-3.08,2.03-4.57l.05-.1s.05-.1.07-.15c.02-.04.04-.08.06-.13l.06-.11c1.63-3.14,3.59-6.13,5.84-8.88,2.58-3.17,5.52-6.01,8.74-8.46l.1-.07c.05-.04.1-.08.15-.11l.03-.02c3.13-2.34,6.55-4.34,10.16-5.93,3.21-1.42,6.57-2.51,9.98-3.24,1.84-.39,3.73-.69,5.61-.88,1.77-.18,3.55-.27,5.31-.27,5.11,0,10.19.76,15.08,2.27,6.37,1.96,12.24,5.11,17.43,9.34,3.56,2.9,6.71,6.25,9.36,9.97h0c.06.1.13.18.19.27.04.06.09.12.13.18,1.91,2.74,3.57,5.69,4.92,8.76,2.7,6.13,4.17,12.62,4.37,19.29.21,6.9-.97,13.69-3.49,20.19-.7,1.79-1.5,3.56-2.38,5.25l-.06.12c-.03.05-.05.1-.08.15l-.05.1c-1.57,2.93-3.43,5.73-5.54,8.32-2.5,3.06-5.33,5.83-8.42,8.22l-.03.02s-.09.07-.13.1l-.12.09c-3.22,2.45-6.74,4.53-10.48,6.17-3.06,1.35-6.25,2.4-9.5,3.13l-.08.02c-.06.01-.12.03-.18.04l-.14.03c-1.86.4-3.77.7-5.68.89-1.77.18-3.55.27-5.31.27-5.11,0-10.19-.76-15.08-2.27-6.37-1.96-12.24-5.11-17.44-9.34-2.61-2.13-5.01-4.51-7.14-7.08-.04-.05-.09-.11-.13-.16-.08-.09-.15-.19-.23-.28-.15-.19-.29-.36-.41-.51l-.02-.02c-2.3-2.92-4.28-6.79-5.93-10.19l-.21-.43-4.56,3.89.11.25c3.95,9.14,11.83,16.2,15.03,18.81,5.75,4.69,12.24,8.17,19.3,10.34,5.42,1.67,11.04,2.52,16.7,2.52,1.94,0,3.92-.1,5.87-.3.19-.02.38-.04.58-.06l-.05.14,3.67-.65c.93-.17,1.89-.36,2.85-.58l.2-.05c.12-.03.25-.06.37-.09,4.89-1.17,9.62-3,14.05-5.42,2.38-1.31,4.69-2.79,6.85-4.42h.02c.09-.08.18-.15.28-.22l.09-.07c.08-.06.15-.12.24-.18l.03-.03c2.14-1.65,4.18-3.47,6.07-5.42,3.51-3.62,6.53-7.69,8.96-12.09.07-.13.14-.26.21-.39l.07-.13c.47-.87.92-1.74,1.32-2.6l1.61-3.37-.15.02c.07-.18.14-.36.21-.54,2.79-7.19,4.09-14.7,3.86-22.35ZM229.67,157.64h0s0,0,0,0ZM223.64,100.48h0s0,0,0,0h0ZM223.64,100.48h0s0,0,0,0h0s0,0,0,0ZM129.17,112.93h0ZM129.16,112.93h0s0,0,0,0h0s0,0,0,0ZM189.6,188.15h0s0,0,0,0ZM138.15,169.7h0s0,0,0,0h0Z"/>
  <path class="st0" d="M266.66,118.19c-1.08-5.93-2.77-11.76-5.01-17.31h.06s-1.16-2.62-1.16-2.62c-.99-2.24-2.09-4.46-3.27-6.61-.03-.05-.06-.11-.09-.16l-.18-.32c-.15-.26-.27-.48-.38-.68-.05-.09-.11-.19-.16-.28l-.03-.05c-.09-.17-.21-.36-.32-.55-.07-.12-.14-.24-.21-.36l-.05-.08c-.09-.15-.18-.3-.26-.44-.1-.17-.21-.35-.32-.52l-.04-.07c-.06-.09-.11-.19-.17-.28-.11-.18-.23-.38-.39-.63l-.04-.07c-.03-.05-.06-.1-.1-.15l-.06-.1c-.03-.05-.07-.11-.1-.16-.1-.16-.21-.33-.34-.53-.03-.05-.06-.09-.09-.14l-1.77-2.71-.03.04c-4.63-6.6-10.17-12.54-16.47-17.68-8.34-6.8-17.71-11.96-27.86-15.34l.03-.04-2.71-.81c-.38-.11-.78-.23-1.27-.36l-.16-.04c-.24-.07-.49-.13-.74-.2-.13-.03-.26-.07-.39-.1-.1-.03-.2-.05-.29-.08l-.1-.03c-4.81-1.25-9.75-2.1-14.69-2.52-.16-.01-.33-.03-.49-.04l-.28-.02c-.07,0-.15-.01-.22-.02-2.13-.16-4.29-.24-6.42-.24h0c-4.01,0-8.07.28-12.08.83-.16.02-.32.04-.49.07-.09.01-.18.03-.27.04-10.18,1.48-19.92,4.69-28.94,9.54l-.25.14c-.12.07-.25.13-.37.2-.06.03-.11.06-.16.09l-.1.06s-.1.06-.15.08l-.07.04c-.26.14-.47.26-.66.37-.1.06-.2.11-.3.17l-.06.03c-.17.1-.35.2-.53.31-.15.09-.3.18-.46.27h-.02c-.13.09-.27.17-.4.25-.19.12-.39.23-.55.33l-.08.05c-.08.05-.16.1-.24.15-.2.12-.42.26-.67.41l-.19.12s-.07.04-.1.06c-.06.03-.11.07-.17.1-.12.08-.25.16-.37.24l-.21.14c-8.62,5.56-16.14,12.55-22.35,20.76-.05.07-.1.13-.15.2-.11.14-.21.28-.31.42-3.7,4.96-6.88,10.31-9.44,15.89-.04.09-.08.18-.13.28l-.14.3c-.05.11-.1.21-.15.32-2.02,4.52-3.66,9.25-4.89,14.07l-.02.07c-.03.11-.06.22-.09.34-.03.12-.06.23-.09.35v.04c-.07.25-.13.5-.19.75l-.04.16c-.11.49-.21.9-.29,1.29l-.61,2.79h.05c-1.94,10.5-1.94,21.19-.02,31.77.72,3.93,1.12,5.99,2.39,9.88l.62,1.9s1.81-2.79,5.31-4.1c.26-.1-1.55-5.06-2.23-8.79-1.91-10.47-1.78-21.03.38-31.39.26-1.26.56-2.54.89-3.81.04-.15.08-.3.12-.45l.07-.26c.26-.96.53-1.91.82-2.84.97-3.14,2.13-6.24,3.46-9.22.1-.21.19-.43.28-.61l.05-.12s.03-.07.05-.1c1.98-4.31,4.37-8.5,7.11-12.45.53-.77,1.09-1.55,1.67-2.33l.07-.1c.08-.1.15-.2.23-.31l.13-.17c.58-.77,1.18-1.53,1.78-2.27,5.45-6.68,11.85-12.42,19.02-17.05h.02c.25-.17.5-.33.77-.51l.14-.09c.22-.14.44-.27.65-.41.07-.04.14-.08.21-.13l.06-.04c.2-.12.37-.23.54-.33.12-.07.25-.15.38-.22.15-.09.3-.17.44-.26.16-.09.32-.19.48-.28h.02c.11-.07.21-.13.32-.19.19-.11.39-.22.6-.34l.07-.04s.1-.05.14-.08c.25-.14.5-.27.74-.4l.09-.05c7.51-4.04,15.62-6.86,24.09-8.41.93-.17,1.88-.33,2.83-.47h.08c.05-.02.1-.03.16-.04.12-.02.24-.03.36-.05h.1c.97-.15,1.93-.26,2.86-.36,2.8-.28,5.64-.43,8.42-.43,1.97,0,3.97.07,5.92.21h.12c.27.03.54.05.8.07,3.25.28,6.52.76,9.73,1.42.95.2,1.93.42,2.89.66l.25.06c.16.04.31.08.46.12,1.27.33,2.53.68,3.76,1.06,10.12,3.12,19.43,8.11,27.67,14.83,6.92,5.64,12.83,12.3,17.55,19.79l.12.19c.14.22.26.42.38.61.05.07.09.15.14.22l.06.09c.11.18.21.35.3.5.08.14.16.28.25.42.08.13.16.27.24.4.09.15.19.32.3.52.06.1.12.2.17.3.12.2.24.42.36.64l.1.18c4.28,7.75,7.26,16.14,8.86,24.93,1.91,10.47,1.78,21.03-.38,31.39-.45,2.15-.99,4.32-1.61,6.44l-.2.65s-.03.09-.04.14v.03s-.03.07-.04.11c-.97,3.13-2.13,6.23-3.45,9.21-.11.25-.23.51-.34.76l-.04.08c-1.98,4.31-4.38,8.5-7.11,12.46-.53.77-1.1,1.56-1.68,2.34l-.05.07c-.08.1-.15.2-.23.31l-.15.19c-.58.77-1.18,1.52-1.77,2.25-5.44,6.67-11.83,12.4-18.99,17.03l-.09.06c-.23.15-.47.3-.7.45-.05.03-.09.06-.14.09l-.07.05c-.2.12-.4.25-.58.36-.11.07-.22.13-.33.2h-.01c-.16.1-.32.2-.47.29-.15.09-.29.17-.44.26-.13.07-.25.15-.38.22-.16.09-.34.2-.54.31l-.06.03c-.07.04-.15.08-.22.13-.22.13-.44.25-.67.37l-.15.08c-.27.15-.54.3-.8.43l-.03.02c-7.52,4.04-15.63,6.87-24.11,8.42-.93.17-1.89.33-2.84.47l-.2.03h-.01c-.12.02-.24.04-.37.05l-.12.02c-.96.13-1.92.24-2.85.34-2.8.28-5.63.43-8.42.43-1.97,0-3.96-.07-5.92-.21l-.21-.02c-.28-.02-.5-.04-.71-.06-3.25-.28-6.52-.76-9.74-1.42-.05,0-.09-.02-.14-.03l-.84-.18c-2.14-.47-4.29-1.04-6.38-1.69-10.12-3.12-19.43-8.11-27.67-14.83-2.57-2.1-5.03-4.36-7.31-6.73h0s-1.37.99-6.29,2.38c-.24.07,1.63,1.7,1.63,1.7,2.51,2.63,5.23,5.13,8.06,7.45,8.86,7.23,18.88,12.59,29.76,15.95,6,1.85,12.19,3.05,18.42,3.57.1,0,.19.02.29.02l.35.03c.12,0,.23.02.35.03,2.12.16,4.28.24,6.41.24,4.01,0,8.07-.28,12.06-.83.17-.02.34-.05.52-.07.08-.01.16-.02.24-.03,10.19-1.48,19.94-4.69,28.97-9.55l.23-.12c.13-.07.26-.14.38-.21.06-.03.11-.06.17-.09l.11-.06s.09-.05.14-.08l.06-.04c.26-.15.48-.27.68-.38.08-.05.16-.09.24-.14l.09-.05c.17-.09.36-.21.56-.32.14-.08.28-.17.43-.25.15-.09.31-.18.46-.27.17-.1.35-.21.52-.31l.06-.04c.1-.06.19-.12.29-.18.18-.11.38-.24.63-.39l.07-.05c.05-.03.1-.07.16-.1.03-.02.07-.04.1-.06.05-.03.1-.07.16-.1.11-.07.22-.14.33-.21l.27-.17c8.61-5.56,16.12-12.54,22.33-20.74.06-.07.11-.15.17-.22.1-.13.2-.26.29-.39,3.71-4.97,6.89-10.32,9.45-15.91.04-.08.07-.16.11-.24l.13-.28c.06-.13.12-.25.17-.38,2.54-5.7,4.48-11.7,5.76-17.85,2.32-11.15,2.46-22.51.41-33.76ZM252,86.87h0s0,0,0,0h0s0,0,0,0ZM258.66,99.1h0s0,0,0,0h0s0,0,0,0Z"/>
  <g>
    <path class="st1" d="M240.2,142.63c.2.14.55.26.86.28.63.03,1.02-.37,1.04-.98.02-.55-.29-.91-.75-1.29-.46-.35-1.1-.94-1.07-1.72.04-.91.7-1.56,1.66-1.52.38.02.7.14.84.26l-.19.58c-.15-.11-.39-.22-.71-.23-.59-.02-.89.41-.9.82-.02.6.28.85.84,1.28.7.54,1,1.11.98,1.78-.04,1.04-.8,1.66-1.76,1.62-.41-.02-.84-.17-1.01-.3l.18-.58Z"/>
    <path class="st1" d="M244.94,137.58l-.24,6.03-.69-.03.24-6.03.69.03Z"/>
    <path class="st1" d="M246.26,143.67l.24-6.03.65.03,1,2.87c.22.65.51,1.47.68,2.13h.02c-.02-.95-.01-1.73.03-2.78l.09-2.16.62.02-.24,6.03-.65-.03-1.03-2.95c-.22-.62-.45-1.32-.63-2.08h-.02c.02.81,0,1.58-.04,2.87l-.08,2.09-.63-.03Z"/>
    <path class="st1" d="M253.54,143.86c-.19.09-.49.14-.87.13-1.18-.05-1.98-1.03-1.9-3.08.1-2.38,1.31-3.09,2.26-3.06.37.01.62.1.75.18l-.18.58c-.14-.07-.29-.14-.6-.15-.64-.03-1.42.57-1.5,2.41-.07,1.84.58,2.48,1.32,2.51.26.01.49-.04.64-.11l.08.59Z"/>
    <path class="st1" d="M257.03,141.24l-1.51-.06-.09,2.26,1.72.07-.02.6-2.41-.1.24-6.03,2.3.09-.02.6-1.61-.07-.08,1.99,1.51.06-.02.58Z"/>
    <path class="st1" d="M242.55,145.5h-.02s-.99.52-.99.52l-.11-.54,1.26-.67.57.02-.24,5.82-.68-.03.21-5.12Z"/>
    <path class="st1" d="M245.21,150.22c.15,0,.28,0,.43-.04.3-.06.59-.21.82-.42.34-.35.62-.86.75-1.63h-.03c-.23.27-.54.47-.96.45-.73-.03-1.24-.72-1.2-1.78.04-1.07.65-1.95,1.55-1.91.99.04,1.42,1.11,1.36,2.4-.05,1.15-.37,2.04-.88,2.66-.36.45-.86.74-1.38.83-.19.03-.34.03-.49.03l.02-.59ZM245.7,146.77c-.03.86.27,1.28.74,1.3.29.01.58-.17.74-.49.04-.1.06-.18.07-.37.05-1.22-.28-1.76-.74-1.78-.35-.01-.77.35-.81,1.34Z"/>
    <path class="st1" d="M249.13,150.38c.15,0,.28,0,.43-.04.3-.06.59-.21.82-.42.34-.35.62-.86.75-1.63h-.03c-.23.27-.54.47-.96.45-.73-.03-1.24-.72-1.2-1.78.04-1.07.65-1.95,1.55-1.91.99.04,1.42,1.11,1.36,2.4-.05,1.15-.37,2.04-.88,2.66-.36.45-.86.74-1.38.83-.19.03-.34.03-.49.03l.02-.59ZM249.62,146.93c-.03.86.27,1.28.74,1.3.29.01.58-.17.74-.49.04-.1.06-.18.07-.37.05-1.22-.28-1.76-.74-1.78-.35-.01-.77.35-.81,1.34Z"/>
    <path class="st1" d="M255.62,145.94l-1.57-.06-.3,1.54c.07-.01.14-.01.22,0,.31.01.79.17,1.09.48.29.32.45.75.43,1.34-.05,1.15-.81,1.96-1.84,1.92-.35-.01-.75-.13-.97-.29l.17-.55c.17.11.48.25.81.27.59.02,1.12-.41,1.16-1.3.04-.92-.51-1.33-1.26-1.36-.21,0-.35,0-.46,0l.48-2.68,2.09.08-.02.61Z"/>
  </g>
  <rect class="st1" x="246.19" y="143.61" width="2.04" height="20.18" transform="translate(73.44 387.24) rotate(-85.22)"/>
  <rect class="st1" x="239.18" y="134.1" width="20.18" height="2.04" transform="translate(-4.8 9.27) rotate(-2.11)"/>
</svg>