<?xml version="1.0" encoding="UTF-8"?>
<svg id="Layer_1" xmlns="http://www.w3.org/2000/svg" version="1.1" viewBox="0 0 360 251.75">
  <!-- Generator: Adobe Illustrator 30.2.1, SVG Export Plug-In . SVG Version: 2.1.1 Build 1)  -->
  <defs>
    <style>
      .st0 {
        fill: #fff;
      }
    </style>
  </defs>
  <g>
    <path d="M169.11,152.36c-.1-.07-.19-.14-.32-.25-.18-.14-.39-.31-.65-.49-.15-1.2-.28-2.48-.33-3.72-.06-1.45-.01-3.05.13-5.06.03-.47.13-1.07.24-1.73.26-1.56.58-3.51.32-5.67-.21-1.71-.18-3.55-.15-5.51l.02-1.16c.02-1.53.11-3.17.29-4.88.18-1.8.39-3.6.61-5.4.17-1.43.34-2.87.49-4.3.21-1.93.44-4.22.58-6.54,0-.13.02-.27.03-.44.11-1.34.28-3.59-.78-5.84-.81-1.72-1.82-3.23-2.74-4.62-.32-.47-.64-.96-.95-1.46-1.09-1.72-2.96-2.81-4.95-2.89-2.06-.11-4.02.81-5.26,2.46-.14.18-.26.35-.38.51-.06.09-.12.17-.17.24-.11.12-.21.24-.31.36-2.43.32-4.82.47-6.71.58-1.14.06-2.35.05-3.63.03h-.09c-.79-.01-1.6-.02-2.43-.02-.43-.71-.98-1.32-1.64-1.81l-.21-.16c-.81-.62-2.31-1.78-4.51-2.05-2.1-.26-4.18.37-5.69,1.75-1.22,1.11-1.99,2.58-2.25,4.28-1.47,2.68-2.07,5.5-1.78,8.38.08.83.23,1.53.36,2.17.06.29.15.73.16.87.13,2.86.16,5.82.19,8.71.03,3.36.07,6.83.26,10.34.07,1.22.12,2.45.16,3.69-.99-.66-2.17-1.05-3.43-1.05h-1.68c-2.9,0-5.39,1.98-6.05,4.81-.07.3-.15.6-.25.93-.29,1.04-.66,2.32-.71,3.86-.08,2.09-.05,4.13-.03,6.11.01.84.02,1.68.02,2.52,0,.33,0,.67,0,1l-6.23.26c.2-4.67.39-8.72.58-12.5.14-2.83.33-5.73.5-8.54l.17-2.7c.16-2.5.11-4.92.07-7.29-.05-3.12-.1-6.06.31-8.86.49-3.26,1.31-8.72-1.87-13.87-2.17-3.51-5.13-4.14-7.25-4.04h-.19c-2.55.03-4.3.82-5.5,1.84-1.02-2.11-3.19-3.53-5.66-3.53h-.54c-2.97.03-5.52,2.17-6.06,5.09,0,.03-.01.06-.02.08-4.58-.01-8.48,0-12.14,0-.13-.26-.28-.54-.43-.83-.98-1.93-2.85-3.19-5-3.38-2.15-.18-4.21.73-5.5,2.44l-.16.2c-1.14-1.28-2.66-2.18-4.49-2.6-2.31-.53-4.69.27-6.19,2.1-.09.11-.18.21-.27.32l-.04.05c-.4.46-.9,1.03-1.39,1.8-.13.21-.27.43-.41.64l-.05.08c-1.35,2.04-3.87,5.84-2.37,10.88.04.18.06.73.07.94.04,1.05.07,2.11.1,3.16v.18c.02.51.03,1.03.05,1.56-2.08.55-4.17,1.11-6.26,1.67.07-3.64.35-7.2,1.21-10.61.41-1.63.13-3.38-.76-4.8l-3.09-4.95c-1.09-1.75-2.98-2.84-5.06-2.92-2.06-.05-4.02.89-5.23,2.54-1.92,2.63-4.56,6.24-4.14,11.52.13,1.61.11,3.32.09,5.14-.02,1.33-.03,2.71,0,4.12.06,1.97.17,3.9.29,5.8l-1.76,1.23c-1.66,1.16-2.65,3.06-2.65,5.09v.87c0,.54.07,1.08.21,1.61.36,1.34,1.43,4.03,4.41,5.42.02.68.01,1.4,0,2.23,0,.84-.02,1.71.01,2.64.17,5.12.36,10.07.58,15.55l.02.45c.07,1.81.14,3.67.32,5.59.14,1.56.73,2.75,1.07,3.44l.05.1c.96,2.35,3.22,3.87,5.76,3.87.24,0,.48-.01.7-.04l.38-.04c2.8-.32,5.04-2.49,5.45-5.29.05-.37.11-.73.18-1.1l.02-.14c.19-1.12.4-2.38.47-3.78.12-2.41.18-4.82.24-7.21.02-.97.05-1.93.07-2.89.03-.99.06-1.98.08-2.96v-.09c.06-2.18.12-4.44.22-6.63.07-1.6.17-3.21.27-4.82.04-.64.08-1.29.12-1.93.02,0,.04-.02.06-.03.37-.17.73-.33,1.1-.49.72-.3,1.44-.61,2.15-.92l.15-.06c1.33-.58,2.63-1.14,3.9-1.64.02.3.03.59.05.88.12,2.46.2,5,.27,7.24.09,2.96.19,6.02.36,9.08.26,4.72.71,9.44,1.14,14l.04.42c.13,1.41.53,2.55.85,3.45.06.17.12.35.18.52.91,3.08,3.98,4.95,7.12,4.35l.45-.08c1.34-.25,2.51-.91,3.39-1.85.18.41.35.76.5,1.03,0,0,.04.07.04.08l.06.12c.96,2.35,3.21,3.86,5.75,3.86.71,0,1.42-.12,2.11-.37l.52-.19c2.15-.78,3.68-2.7,4.02-4.92,1.27-.16,2.53-.32,3.79-.49l1.59-.21c1.91-.25,3.87-.51,5.84-.81.29.44.59.89.93,1.34,1.66,2.29,4.2,3.37,6.81,2.88,1.11-.21,2.1-.67,2.93-1.35.02.1.05.21.07.31.64,2.85,3.14,4.85,6.06,4.85h.58c3,0,5.57-2.14,6.11-5.09.08-.43.15-.86.24-1.34,1.18-.12,2.37-.22,3.56-.32h.11c2.01-.18,4.07-.36,6.17-.62,1.24,1.73,3.24,2.9,5.37,2.97,2.14.09,4.25-.91,5.62-2.57.03,0,.06.02.09.03l.22,1.4c.48,3.04,3.06,5.26,6.14,5.26.02,0,.09,0,.11,0h.48c3.01-.06,5.54-2.26,6.02-5.23l.22-1.39c1.95-.12,3.93-.24,5.86-.32.79-.03,1.58-.08,2.38-.12,2.56-.14,4.99-.27,7.28-.11,5.09.35,8.67-1.93,11.54-3.75l.25-.16c1.77-1.12,2.85-3.03,2.89-5.12.04-2.09-.96-4.04-2.67-5.24ZM142.31,149.61h.03c1.59.42,3.33.16,4.75-.69.61-.37,1.14-.83,1.59-1.38.9.99,2.09,1.66,3.41,1.91-.02.24-.04.49-.06.74-1.97.35-3.93.69-5.85,1.02l-2.32.4c-.51.09-1.03.18-1.55.27,0-.77,0-1.53,0-2.28Z"/>
    <path d="M342.15,157.85l-.16-.63c-.69-2.77-3.17-4.71-6.03-4.71h-9.96v-.67c-.02-5.48-.04-10.66.05-15.94.03-1.94.21-3.92.4-6.03.14-1.55.3-3.3.38-5.04.03-.52.04-1.04.05-1.55,0,.01.01.03.02.04,0,0,.03.05.04.08,1.33,2.88,4.69,4.32,7.69,3.28l.42-.14c2.37-.82,4.01-2.97,4.17-5.47.02-.25.03-.5.04-.76.01-.28.03-.6.05-.75.13-.94.27-1.89.42-2.83.24-1.57.48-3.2.68-4.87.12-1.04.19-2.04.24-2.92.07-1.16.14-2.26.32-3.13.66-3.21-.28-5.65-1.19-7.42-.37-.73-.77-1.28-1.09-1.73-.05-.07-.1-.14-.15-.21-2.15-3.19-4.88-3.67-6.31-3.67-.03,0-.07,0-.1,0-1.53.02-3.6.54-5.44,2.66-.82.01-1.65.01-2.47,0-.93-1.66-2.59-2.82-4.48-3.11-1.98-.3-3.99.37-5.4,1.8-.14.15-.28.27-.45.43-.26.23-.55.5-.85.82-.99-.04-2.05-.07-3.15,0-1.04-.99-2.35-1.65-3.79-1.89-2.52-.42-5.09.51-6.9,2.49-.18-.22-.35-.41-.49-.57l-.1-.11c-.98-1.29-2.45-2.16-4.06-2.39-1.64-.23-3.34.2-4.64,1.2l-.15.1c-.55.37-1.48.99-2.32,2.07-.11.14-.22.29-.32.43-.76-.38-1.58-.72-2.5-.99-3.68-1.07-9.19-2.09-14.56,1.33-.85.54-1.67,1.11-2.45,1.71-.31-.57-.72-1.09-1.21-1.55-.32-.29-.62-.56-.94-.84-.38-.34-.71-.63-.86-.8-.9-1.01-2.74-3.07-6.05-3.04-2.59.09-4.24,1.55-5.21,2.67-3.2-.02-6.32.13-9.23.3-1.43.09-2.81.23-4.16.36-1.75.18-3.41.35-4.99.37-1.12.02-2.19.19-3.21.52-.99-.65-2.17-1.03-3.43-1.03-.21,0-.42,0-.7-.01-.07,0-.15,0-.22,0-.63-.62-1.24-1.04-1.64-1.31l-.17-.12c-1.38-1.13-3.18-1.61-4.93-1.32-1.75.28-3.3,1.3-4.25,2.81l-.09.12c-.05.06-.1.13-.15.2-.37.06-.74.11-1.1.17-.77.12-1.49.24-2.17.32-2.67.31-5.71.66-8.79.95-.5-.57-1.07-1.19-1.8-1.82-1.72-1.49-3.93-2.1-6.08-1.65-2.24.46-4.07,1.95-5.16,4.19-.09.19-.29.5-.5.86-.28.45-.59.96-.91,1.58-.05.09-.1.19-.19.34-.62,1.07-1.67,2.86-1.59,5.29.12,3.54.34,7.09.55,10.55.08,1.22.15,2.45.22,3.67,0,.11,0,.22,0,.33,0,.24,0,.49.02.74.03.74.07,1.48.11,2.22v.18c.08,1.43.15,2.91.18,4.34.01.52-.02,1.11-.05,1.82-.08,1.63-.16,3.47.23,5.5-.01.01-.03.02-.04.04-1.68,1.42-2.24,3.23-2.47,4.01l-.03.09c-.66,1.67-.57,3.53.25,5.12.58,1.12,1.46,2.03,2.54,2.61.23,3.11.46,6.31.48,9.37,0,.35,0,.7,0,1.05v.26c-.01,1.98-.02,4.23.38,6.6.08.48.13,1.02.2,1.66v.13c.04.29.07.58.1.88.31,2.73,2.41,4.97,5.13,5.44l.41.07c.35.06.7.09,1.05.09,2.68,0,5.05-1.71,5.9-4.26.02-.06.05-.12.09-.23.23-.58.61-1.55.74-2.77l.13-1.19c.39-3.44.78-7,1.07-10.56.23-2.85.36-5.68.49-8.42,2.59-.99,5.34-2.08,8.34-3.28,1.06-.43,2.05-.91,2.95-1.35.35-.17.71-.35,1.07-.51,2.32-1.09,3.68-3.49,3.56-5.95.39,0,.78-.04,1.16-.12-.04,1.18.26,2.38.92,3.44.21.35.47.71.74,1.08.03.04.06.09.1.13.04.37.05.87.06,1.3,0,0,0,.08,0,.08.01.4.03.8.05,1.2.08,1.38.15,2.75.22,4.13l.09,1.85c.05.9.1,1.8.15,2.75.11,1.96.23,3.98.28,5.95,0,0,0,.01-.01.02-.09.11-.2.23-.33.37-1.05,1.16-3.84,4.24-2.77,8.98.57,2.52,2.67,4.45,5.24,4.79.31.04.62.11.93.17,0,0,.08.02.08.02,1.29.26,3.05.61,5.04.34,2.61-.35,5.16-.84,7.64-1.31,1.43-.27,2.86-.54,4.3-.78.05,0,.11-.02.16-.03.68,2.72,3.16,4.68,5.98,4.71h.56c1.88,0,3.64-.86,4.8-2.27,1.38.6,2.88.71,4.34.3,1.5-.42,2.73-1.32,3.6-2.57.81.1,1.51.1,2.04.1h10.83s6.86-.01,6.86-.01c.5,0,1,0,1.5,0,1.03-.01,2-.02,2.91.02.63.03,1.21,0,1.7-.04.95.55,2.02.83,3.15.83,2.15,0,3.86-1.02,4.6-1.47.83-.5,1.43-1.07,1.78-1.42.47-.33.9-.69,1.28-1.08,1.01,1.75,2.77,2.99,4.97,3.42.3.06.6.12.9.19l.1.02c1.39.3,3.11.67,5,.67.42,0,.84-.02,1.25-.06,2.61-.24,5.06-.75,7.42-1.23l.13-.03c.76-.15,1.52-.31,2.27-.45,3.44-.65,7.96-1.51,12.46-2.41,1.3-.26,2.26-.8,2.82-1.12h.02c2.65-1.29,4.05-4.29,3.33-7.14ZM302.71,157.32c-.24-.42-.52-.83-.84-1.22-.07-1.14-.12-2.3-.15-3.46.01-.12.03-.24.05-.38.08-.51.18-1.22.19-2.05.02-1.15,0-2.31,0-3.48-.01-1.76-.02-3.57.06-5.26.12-2.4.39-4.68.79-6.78.43-2.25.29-4.34-.41-6.25.39.17.8.31,1.22.39,2.23.44,4.54-.39,5.99-2.12.15,2.73.31,5.55.56,8.36l.07.76c.4,4.4.78,8.56.24,12.52-.18,1.33-.1,2.53-.03,3.42v.07c.03.36.06.72.08,1.08-2.72.13-5.11,1.24-6.98,3.26-.36.39-.64.78-.87,1.14ZM298.52,123.16c-.24-.18-.5-.35-.77-.5,0,0,.02-.02.03-.03.17-.15.33-.3.48-.45.09.34.18.67.27.98ZM289.21,123.82c-1.86.07-3.74.12-5.5.03-.22-.01-.42-.01-.62-.01h-.07c-.87-.76-1.96-1.28-3.18-1.5-1.53-.26-3.61-.1-5.35.97-.26-2.5-.5-4.9-.73-7.22.95-1.75,1.62-2.8,2.59-3.29,4.25-2.18,6.4-1.72,8.09-.91.73.35,1.35,2.09,2,3.9.05.18.11.73.15,1.09.06.52.13,1.17.26,1.86.3,1.62,1.15,2.99,2.53,4.08.18.16.36.3.55.43-.23.17-.46.36-.69.57ZM272.08,149.08s.06-.02.09-.03c.8,1.17,1.99,2.07,3.4,2.48.05.65.1,1.31.16,1.96.02.27.05.53.07.79-1.07.17-2.16.35-3.21.49-.61.08-1.22.15-1.83.21-1.18.13-2.42.26-3.72.5-.15-.35-.33-.67-.51-.97-.05-.44-.09-.89-.14-1.35-.2-1.86-.4-3.78-.5-5.61,1.62,1.6,3.99,2.19,6.18,1.52ZM237.08,146.94h0,0ZM240.8,150.78c.09-1.14.18-2.28.28-3.41v-.1c.17-1.94.33-3.93.48-5.93.45-.08.89-.16,1.34-.25.35-.06.69-.13,1.04-.19l.08,1.63c.16,3.12.33,6.34.41,9.48.01.6,0,1.22-.02,1.87-1.29.16-2.56.18-3.84.07,0,0-.01,0-.02,0l.25-3.15ZM246,125.33s-.02.04-.04.06c-2.15.19-4.31.35-6.42.5l-.63.05c-.76-.98-1.82-1.73-3.05-2.12-2.14-.67-4.48-.13-6.12,1.4l-1.08,1.02c.33-3.4.64-7.02,1.01-11.66l.03-.39c.04-.57.09-1.13.13-1.71,1.67.63,3.85,1.34,6.38.97,3.69-.55,7.33-1.28,10.9-1.98,1.07-.21,2.14-.42,3.21-.63.1,1,.23,1.95.36,2.89.22,1.57.4,2.92.38,4.12-.03,1.57-.1,3.17-.18,4.77-1.93.09-3.76,1.06-4.89,2.73ZM229.19,166.73h0s0,0,0,0Z"/>
  </g>
  <g>
    <path class="st0" d="M23.88,128.24c1.49-1.05,2.99-2.1,4.61-3.23-.17-2.9-.41-5.99-.5-9.08-.1-3.19.14-6.39-.11-9.56-.23-2.93,1.22-4.97,2.96-7.35,1.1,1.76,2.08,3.33,3.09,4.95-1.64,6.57-1.46,13.35-1.33,20.21,4.86-1.31,9.62-2.6,14.39-3.86,1.09-.29,2.19-.59,3.31-.72.87-.1,1.16-.31,1.11-1.27-.18-3.02-.21-6.04-.33-9.06-.03-.8-.08-1.63-.3-2.39-.8-2.71.87-4.59,2.13-6.6.32-.52.77-.96,1.23-1.51,1.9.44,2.05,2.3,2.06,3.53.04,4.64-.29,9.29-.47,13.93-.03.76,0,1.53,0,2.45h5.44c-.33.49-.44.83-.64.91-1.14.42-2.28.92-3.47,1.11-1.24.2-1.69.7-1.65,1.97.08,2.62.04,5.24.02,7.87-.09,10.3-.19,20.59-.29,30.89,0,.76-.09,1.52-.14,2.29-.16.03-.31.06-.47.09-.28-.93-.71-1.85-.8-2.79-.45-4.72-.9-9.45-1.16-14.18-.3-5.42-.36-10.85-.62-16.28-.14-2.85-.47-5.7-.73-8.69-.38.09-.76.21-1.16.29-4.58.89-8.73,2.92-12.98,4.71-1.26.53-2.48,1.17-3.77,1.59-.71.24-.99.5-1.02,1.26-.15,3.29-.4,6.57-.55,9.86-.14,3.26-.2,6.52-.3,9.78-.1,3.32-.14,6.65-.31,9.97-.08,1.49-.4,2.96-.62,4.44-.13.01-.25.03-.38.04-.24-.59-.63-1.16-.69-1.76-.17-1.9-.24-3.82-.32-5.73-.2-5.17-.41-10.34-.58-15.51-.05-1.65.04-3.3-.02-4.95-.06-1.61-.22-3.22-.34-4.84-1.48-.55-3.64.47-4.27-1.9,0-.29,0-.58,0-.87Z"/>
    <path class="st0" d="M100.54,167.87c-.35-1.55-.64-3.12-1.08-4.65-.2-.67-.66-1.31-1.55-1.3-.18,0-.4-.04-.54-.14-.69-.56-1.35-1.14-2.02-1.72.58-.48,1.11-1.04,1.75-1.43,1.96-1.22,2.09-1.94,1.84-4.21-.26-2.37-.06-4.8-.07-7.2,0-.73-.07-1.46-.05-2.19.07-3.64.2-7.28.22-10.92.01-1.77-.23-3.54-.21-5.31.03-2.93.33-5.87.23-8.8-.12-3.61-.5-7.22-.81-10.82-.12-1.41-.36-2.81-.53-4.21-.02-.13.02-.28.07-.41.44-1.33.85-2.66,1.34-3.97.42-1.12,1.43-.95,2.36-.99.88-.04,1.26.42,1.68,1.11,1.9,3.07,1.48,6.54,1.01,9.67-.84,5.59-.1,11.14-.45,16.69-.24,3.77-.49,7.54-.68,11.31-.28,5.55-.53,11.1-.76,16.66-.03.75.11,1.52.2,2.63,6.23-.26,12.33-.52,18.63-.78,0-2.4,0-4.69,0-6.98,0-2.79-.1-5.59,0-8.38.04-1.16.5-2.31.8-3.61h1.68c.32,4.05.6,8.12.97,12.17.2,2.22.55,4.42.85,6.8h4.78c.36,1.16-.04,1.6-1.07,1.76-1.33.21-2.67.49-3.94.91-.41.14-.71.8-.91,1.29-.28.68-.38,1.43-.64,2.11-.1.25-.47.54-.71.53-.24,0-.61-.34-.66-.58-.44-2.17-1.52-2.97-3.87-2.61-3.9.6-7.86.8-11.8,1.21-1.22.13-2.44.29-3.62.6-.4.1-.86.64-.96,1.06-.38,1.55-.61,3.14-.9,4.71h-.58Z"/>
    <path class="st0" d="M165.57,157.47c-2.63,1.67-4.9,3.18-8.05,2.96-3.43-.23-6.9.07-10.35.23-3.62.16-7.24.41-10.92.63-.34,2.1-.68,4.2-1.02,6.29h-.48c-.31-2-.63-4.01-.93-5.91-1.38-.18-2.55-.34-3.72-.49-.04-.11-.09-.23-.13-.34,1.07-.59,2.14-1.18,3.25-1.78,0-10.06.41-20.23-.15-30.35-.35-6.34-.16-12.66-.45-18.99-.05-1.13-.43-2.24-.54-3.37-.2-2.07.43-3.93,1.56-5.64.1-.15.15-.36.15-.54-.03-.78.11-1.58,1.05-1.46.62.08,1.21.61,1.75,1.01.18.14.17.52.28.78.75,1.84,2.19,2.37,4.07,2.31,2.5-.08,5.02.09,7.52-.05,3.09-.17,6.2-.42,9.25-.93.78-.13,1.4-1.34,2.07-2.08.3-.33.55-.72.87-1.15,1.2,1.9,2.46,3.56,3.33,5.41.43.91.23,2.17.16,3.26-.13,2.09-.33,4.17-.56,6.25-.35,3.25-.78,6.49-1.11,9.75-.18,1.8-.3,3.62-.32,5.43-.03,2.49-.13,4.97.17,7.49.24,2.01-.44,4.12-.59,6.19-.14,1.91-.22,3.84-.15,5.75.07,1.94.31,3.89.59,5.82.15,1.02.47,2,1.69,2.38.55.17,1,.66,1.69,1.13ZM136.12,159.2c.29-.03.71-.06,1.12-.13,2.56-.43,5.12-.87,7.67-1.32,3.9-.68,7.81-1.33,11.7-2.08.45-.09,1.08-.63,1.14-1.03.3-2.06.52-4.14.61-6.22.1-2.47.01-4.94.03-7.41.02-2.79.02-5.58.12-8.37.09-2.72.43-5.43.42-8.15-.01-2.52-.3-5.04-.55-7.55-.25-2.54-.51-5.09-.97-7.61-.13-.7-.83-1.57-1.49-1.84-.93-.38-2.05-.26-3.09-.37-2.55-.27-5.1-.54-7.64-.82-1.79-.2-3.58-.43-5.37-.62-.92-.1-1.12.39-1.1,1.23.03,1.3.03,2.61-.13,3.9-.27,2.15-.82,4.28-1,6.43-.38,4.56-.65,9.14-.88,13.71-.25,4.83-.47,9.67-.57,14.51-.1,4.5-.02,9.01-.02,13.73Z"/>
    <path class="st0" d="M262.18,101.76c-1.77,2.26-1.46,5.33-2.05,8.16-.3,1.44-.37,2.94-.41,4.42-.15,6.35-.32,12.69-.35,19.04-.02,4.68.09,9.37.3,14.05.14,3.1.55,6.19.84,9.29,0,.1-.02.24.03.28,2.07,1.67.34,3.47.16,5.2-.1.94-.54,1.83-.75,2.76-.22.97-.59.83-1.14.26-1.03-1.07-1.99-2.25-3.17-3.12-.57-.41-1.6-.31-2.39-.21-.23.03-.46.83-.53,1.3-.15,1.09-.17,2.19-.29,3.28-.04.32-.22.62-.34.93-.17,0-.34,0-.5,0-.36-1.72-.71-3.44-1.12-5.4-1.99.26-4.07.46-6.11.81-3.92.66-7.81,1.53-11.74,2.06-1.4.19-2.91-.33-4.39-.53-.48-2.14,1.2-3.08,2.12-4.4.49-.7,1.18-1.51,1.17-2.27-.04-3.45-.3-6.9-.47-10.35-.1-2.01-.2-4.02-.32-6.02-.08-1.38-.02-2.81-.36-4.13-.25-.97-1.04-1.8-1.51-2.56,1.53-1.44,3.27-3.08,5.16-4.86.53,2.56,2.48,2.61,4.51,2.46,3.4-.25,6.8-.49,10.19-.82.48-.05.97-.57,1.34-.97.44-.48.75-1.08,1.1-1.59,1.6.55,3.2,2.72,3.03,4.32-.22,2.04-.82,4.06-.91,6.1-.15,3.69.03,7.4-.06,11.1-.05,2.25-.37,4.48-.54,6.73-.04.5,0,1.01,0,1.46.23.07.32.13.41.12,2.94-.15,3.02-.15,3.03-3.03,0-3.31-.27-6.63-.22-9.94.06-3.93.34-7.85.55-11.77.29-5.31.74-10.62.85-15.94.05-2.65-.55-5.31-.79-7.97-.18-2.07-.26-4.16-.4-6.4-1.92.3-3.62.51-5.3.82-5.17.97-10.31,2.11-15.5,2.89-1.38.21-2.96-.53-4.37-1.06-.67-.25-.87-1.01-.1-1.61.25-.2.47-.45.7-.67.99-.92,2-1.5,3.52-1.52,3.14-.05,6.28-.56,9.42-.75,3.21-.19,6.44-.34,9.66-.28,1.59.03,2.61-.51,3.53-1.69,1.04-1.34,1.18-1.28,2.3-.03.6.67,1.32,1.24,2.23,2.08ZM233.84,160.1c2.18,0,4.2-.14,6.19.03,3.19.28,6.29-.08,9.34-.95.4-.11.93-.65.96-1.04.19-2.1.36-4.21.31-6.3-.11-4.14-.35-8.28-.56-12.42-.07-1.31-.11-2.63-.31-3.93-.11-.75,0-1.95-1.35-1.72-3.84.66-7.66,1.4-11.49,2.08-1.03.18-1.3.72-1.36,1.76-.25,4.23-.63,8.46-.97,12.69-.24,3.1-.48,6.2-.77,9.8Z"/>
    <path class="st0" d="M65.12,98.84c.67,1.32,1.16,2.21,1.58,3.14.32.71.68,1.12,1.59,1.11,6.27-.05,12.53-.04,18.8-.01,1.1,0,1.52-.44,1.62-1.52.12-1.23.43-2.44.65-3.66.18,0,.36,0,.54,0,.26,1.26.63,2.5.74,3.77.08.93.44,1.08,1.26,1.09,1.14,0,2.27.18,3.41.28.04.14.09.27.13.41-.27.25-.49.6-.81.74-.51.23-1.08.45-1.63.45-2.09-.03-2.08,1.26-2.05,2.83.08,4.1,0,8.19.04,12.29.06,6.54.16,13.08.28,19.61.05,2.64.45,5.31.19,7.92-.24,2.38.03,4.62.36,6.93.26,1.75.16,1.78,2.01,1.55.26-.03.54.06.81.1.07.13.14.25.2.38-.86.59-1.73,1.19-2.17,1.5-.7,2.09-1.38,3.82-1.84,5.61-.25.97-.66,1.06-1.15.4-.82-1.13-1.58-2.33-2.13-3.61-.34-.78-.48-.94-1.39-.78-3.55.62-7.13,1.07-10.7,1.55-2.99.4-6,.76-9.11,1.15v4.58c-.17.06-.34.12-.51.19-.29-.74-.88-1.5-.82-2.2.13-1.66-.3-2.62-2-3.16-1.35-.43-1.33-1.22-.18-2.07,1.15-.85,1.72-1.9,1.57-3.42-.29-3.05-.42-6.12-.61-9.18-.29-4.65-.65-9.29-.81-13.94-.1-2.96.23-5.94.14-8.91-.16-5.13-.48-10.26-.82-15.38-.03-.49-.55-1.06-.99-1.39-1.62-1.19-1.55-1.51-.18-2.82,1.02-.98,1.67-2.36,2.51-3.55.37-.53.77-1.03,1.47-1.96ZM68.22,107.13c-.42,4.57-.97,8.96-1.2,13.36-.26,5.08-.29,10.17-.31,15.26-.01,3.4.27,6.81.22,10.21-.05,3.35-.3,6.69-.55,10.03-.1,1.33.35,1.82,1.67,1.77,3.12-.13,6.24-.19,9.36-.29,2.83-.09,5.66-.16,8.49-.32.43-.03,1.07-.46,1.19-.85.22-.68.09-1.46.14-2.19.28-4.09.65-8.18.84-12.28.26-5.41.42-10.82.56-16.23.12-4.67.21-9.34.22-14.01,0-2.13-.21-4.27-.33-6.42-6.77.66-13.47,1.31-20.32,1.97Z"/>
    <path class="st0" d="M276.47,134.9c-.11-.42-.12-.68-.23-.86-1.45-2.32-.1-3.91,1.45-5.39.25-.24,1.19-.25,1.26-.1.99,2.03,2.9,1.44,4.46,1.52,2.64.13,5.29,0,7.93-.1.45-.02,1.02-.34,1.3-.7,1.37-1.76,1.97-1.72,3.31.12.95,1.3,1.08,2.58.78,4.16-.48,2.51-.76,5.08-.89,7.64-.15,2.98-.03,5.98-.07,8.97-.01.85-.27,1.69-.25,2.54.04,1.96.14,3.92.31,5.87.03.37.44.76.77,1.03,1.16.95,1.13,1.72-.09,2.49-.47.3-.81.81-1.28,1.09-.47.28-1.33.71-1.51.54-1.36-1.31-2.97-.67-4.47-.74-1.56-.07-3.12-.01-4.69-.01-2.29,0-4.57,0-6.86,0-3.61,0-7.22,0-10.83.01-.7,0-1.4,0-2.13-.26,2.76-1.36,5.78-1.37,8.72-1.77,3.05-.42,6.08-1.01,9.13-1.41,3.07-.4,6.16-.66,9.38-1,.77-3.69,1.21-7.46.83-11.29-.06-.57-.12-1.14-.16-1.72-.29-4.11-.57-8.22-.89-12.33-.06-.81-.3-1.5-1.4-1.34-3.16.47-6.32.9-9.49,1.35-.23.03-.52.09-.66.25-.29.35-.5.76-.75,1.15.31.2.62.54.94.56,1.56.12,3.12.15,4.68.21.05.15.09.31.14.46-.31.26-.6.66-.95.74-1.15.27-2.32.54-3.5.61-1.21.07-1.66.6-1.75,1.77-.12,1.75-.34,3.5-.59,5.25-.07.51-.4.99-.61,1.48-.17-.04-.33-.08-.5-.11-.13-2.51-.26-5.02-.4-7.68-2.08.46-4.16.93-6.2,1.38-.14,1.24-.27,2.31-.45,3.88-.52-.61-1-.91-1.04-1.26-.19-1.67-1.02-2.77-2.59-3.36-.9-.34-.78-.85-.14-1.36.89-.71.96-1.46.75-2.62-.83-4.55-1.39-9.14-2.13-13.7-.22-1.35-.55-2.7-1.05-3.96-.63-1.57-.29-3.04.31-4.39,1.94-4.32,5.04-7.68,9.02-10.21,3.04-1.94,6.33-1.52,9.49-.61,1.8.52,3.39,1.79,5.09,2.68.71.37,1.47.64,2.41,1.05-.7-1.44-.3-2.45.76-3.38.54-.47.71-1.34,1.18-1.93.34-.43.88-.7,1.33-1.05.41.56,1.09,1.08,1.17,1.67.25,1.9.47,3.84.34,5.75-.24,3.69-.72,7.37-1.14,11.06-.03.23-.37.42-.56.63-.18-.18-.49-.33-.53-.53-.24-1.3-.22-2.67-.66-3.89-1.04-2.92-2.13-5.98-5.16-7.44-4.67-2.25-9.15-1.31-13.62.97-3,1.53-4.34,4.23-5.79,6.93-.23.43-.29,1.02-.24,1.51.45,4.57.92,9.14,1.42,13.7.15,1.42.3,2.85.64,4.22.12.49.76,1.17,1.21,1.21,1.84.14,3.69.06,5.74.06Z"/>
    <path class="st0" d="M336.12,159.38c-.45.22-.88.54-1.36.64-4.13.82-8.26,1.62-12.4,2.4-3.08.58-6.14,1.34-9.24,1.63-1.8.17-3.68-.38-5.5-.74-.65-.13-1.31-.55-.41-1.38.42-.39.53-1.1.93-1.53.96-1.04,2.15-1.39,3.59-1.24,1.34.14,2.7.02,4.05.03.93,0,1.47-.34,1.39-1.36-.17-2.14-.35-4.28-.5-6.42-.05-.74-.11-1.5-.01-2.24.67-4.91.16-9.79-.28-14.67-.29-3.14-.45-6.3-.62-9.45-.3-5.61-.54-11.21-.87-16.82-.06-1.07-.46-2.11-.77-3.47-2.17.42-4.31.79-6.42,1.27-.36.08-.82.6-.87.97-.19,1.32-.24,2.66-.33,3.99-.2,3.15-.36,6.3-.62,9.44-.06.77-.46,1.5-1.03,2.28-.32-1.28-.78-2.54-.92-3.83-.37-3.47-.63-6.96-.88-10.44-.1-1.35-.06-2.62-1.83-3.05-.9-.22-1.18-1.08-.46-1.9.98-1.13,2-2.21,2.99-3.33.72-.83,1.79-.83,2.21.19.59,1.44,1.4,1.59,2.87,1.35,1.83-.3,3.75-.14,5.63-.07,1.16.04,2-.21,2.59-1.32.34-.64,1.02-1.1,1.76-1.86.5.99.86,1.83,1.34,2.58.18.29.66.55,1,.55,2.7.04,5.4.12,8.09-.05.64-.04,1.37-.9,1.79-1.55.83-1.29,1.5-1.38,2.37-.09.29.43.63.85.86,1.31.53,1.04.91,2.01.64,3.33-.44,2.14-.39,4.38-.65,6.57-.3,2.53-.73,5.05-1.09,7.58-.09.65-.09,1.31-.13,1.97-.14.05-.28.1-.42.15-.21-.47-.55-.93-.61-1.42-.25-2.27-.39-4.56-.62-6.83-.26-2.5-.53-5.01-.92-7.49-.13-.79-.52-1.59-1.72-1.43-2.44.34-4.9.57-7.63.87-.14,4.06-.32,8.03-.41,11.99-.07,2.67.07,5.35-.06,8.02-.19,3.76-.73,7.51-.79,11.27-.13,7.55-.04,15.1-.04,22.93h16.17c.05.22.11.43.16.65Z"/>
    <path class="st0" d="M228.45,102.49c-.99.4-1.97.81-2.96,1.2-.83.32-1.45.64-1.48,1.78-.08,2.88-.31,5.75-.53,8.63-.31,3.97-.64,7.93-1.03,11.89-.08.8-.46,1.58-1.01,2.33-1.48-7.78-.44-15.66-1.42-23.66-6.37,1.42-12.7,2.83-19.24,4.29-.24,9.46-.48,18.89-.72,28.32,5.15-.34,9.88-2.67,14.97-3.07.08.22.16.44.25.66-1.23.58-2.44,1.22-3.7,1.72-3.63,1.46-7.27,2.88-10.93,4.26-1.03.39-1.14,1.14-1.19,2.05-.18,3.55-.31,7.11-.59,10.65-.31,3.86-.76,7.71-1.19,11.56-.07.59-.36,1.15-.55,1.73-.14-.02-.27-.05-.41-.07-.11-1.01-.18-2.02-.35-3.02-.39-2.3-.28-4.6-.29-6.91-.03-4.58-.48-9.17-.78-13.75-.02-.27-.2-.52-.31-.78-.42.02-.8.1-1.17.06-.49-.06-.97-.21-1.45-.31.23-.55.31-1.28.72-1.62,1.88-1.58,2.67-3.33,2.15-5.91-.41-2.04-.03-4.23-.08-6.35-.05-2.29-.19-4.58-.29-6.86-.02-.39,0-.77-.03-1.16-.27-4.69-.61-9.38-.77-14.07-.03-.85.66-1.74,1.09-2.57.45-.88,1.06-1.69,1.48-2.58.37-.78.93-1.1,1.56-.55.92.8,1.65,1.82,2.53,2.66.43.4,1.07.91,1.57.87,3.77-.32,7.52-.74,11.28-1.17,1.85-.21,3.68-.61,5.53-.77.9-.08,1.4-.23,1.55-1.24.09-.58.63-1.1.96-1.64.59.49,1.45.88,1.71,1.51.45,1.07,1,1.5,2.15,1.37.93-.1,1.88-.02,2.82-.02.05.19.1.38.14.57Z"/>
    <path class="st0" d="M207.23,131.18c-.24-1.11-.74-2.23-.68-3.31.22-4.07-.28-8.02-1.42-11.92-.37-1.26.87-3.96,2.03-4.61.86-.48,1.72-.12,1.85.79.59,4.13-.11,14.98-1.36,18.94-.14.04-.28.07-.41.11Z"/>
    <path class="st0" d="M288.59,158.24c-.2-2.41-.36-4.83-.6-7.23-.21-2.19-.45-4.38-.77-6.55-.26-1.77-.21-3.42,1.02-4.88,1.07-1.27,1.98-1.18,2.68.27.63,1.3.69,2.55.43,4-.57,3.3-.8,6.65-1.25,9.97-.21,1.52-.61,3.01-.92,4.52-.2-.03-.4-.06-.6-.09Z"/>
    <path class="st0" d="M283.16,138.82c2.46,1.47,2.78,3.54,2.18,6.18-.94,4.15-1.55,8.37-2.31,12.56-.03.16-.15.3-.52.42-.2-1.67-.45-3.34-.59-5.02-.29-3.43-.47-6.87-.8-10.29-.14-1.44.67-3.16,2.04-3.85Z"/>
    <path class="st0" d="M215.03,130.75c-.12-1.1-.28-2.19-.35-3.29-.24-3.73-.44-7.47-.68-11.2-.03-.47-.23-.93-.4-1.38-.86-2.25-.73-2.86,1.06-4.31.25-.2.73-.32,1-.22.87.32,1.96,2.7,1.84,3.66-.38,3.05-.73,6.09-1.06,9.14-.28,2.52-.52,5.04-.78,7.56l-.64.03Z"/>
    <path class="st0" d="M143.34,143.46c0-2.03.04-4.05-.01-6.08-.05-1.72-.17-3.44-.32-5.16-.25-2.85-.54-5.7-.82-8.55-.05-.47-.14-.93-.24-1.39-.62-2.76-.06-4.19,2.17-5.66.75-.49,1.24-.42,1.72.35,1.05,1.66,1.81,3.21,1.35,5.4-.62,2.92-.54,5.98-.97,8.95-.49,3.4-1.2,6.78-1.84,10.16-.13.71-.34,1.41-.51,2.12-.18-.05-.36-.09-.54-.14Z"/>
    <path class="st0" d="M153.27,143.35c-.29-.7-.58-1.13-.63-1.58-.24-2.23-.42-4.46-.6-6.69-.39-4.71-.81-9.42-1.11-14.14-.04-.66.37-1.43.77-2.01.59-.85,1.35-1.58,2.21-2.55,1.22,1.93,2.65,3.25,2.02,5.78-.7,2.81-.71,5.79-1.01,8.7-.4,3.91-.79,7.81-1.2,11.72-.02.16-.17.3-.44.78Z"/>
    <path class="st0" d="M75.5,126.22c-.22-1.76-.25-3.4-.65-4.93-.46-1.74.07-3.23.6-4.78.17-.49.21-1.12.55-1.42.52-.46,1.25-.69,1.82-.98,2.77,3.79,1.45,7.74,1.55,11.87,2.27-.15,4.55-.29,7.17-.46-.47.39-.74.72-1.08.86-1.61.64-3.22,1.32-4.89,1.81-1.03.31-1.45.75-1.45,1.88-.04,5.71-.13,11.42-.28,17.13-.04,1.39-.34,2.78-.53,4.17l-.53.08c-.22-1.04-.58-2.06-.63-3.11-.17-3.25-.12-6.52-.35-9.76-.21-2.87-.68-5.72-1.01-8.43-1.35.37-2.47.78-3.63.94-.77.11-1.61-.11-2.4-.27-.96-.2-.95-.85-.48-1.5.66-.92,1.32-1.88,2.15-2.63.42-.38,1.22-.38,1.86-.46.62-.07,1.24-.02,2.22-.02Z"/>
  </g>
</svg>