<?xml version="1.0" encoding="UTF-8"?>
<svg id="Layer_1" xmlns="http://www.w3.org/2000/svg" version="1.1" viewBox="0 0 360 251.75">
  <!-- Generator: Adobe Illustrator 30.2.1, SVG Export Plug-In . SVG Version: 2.1.1 Build 1)  -->
  <defs>
    <style>
      .st0 {
        fill: #be1e2d;
      }
    </style>
  </defs>
  <path class="st0" d="M77.96,143.56h10.99c.52,0,.94-.42.94-.94v-21.54h2.16l9.36,21.91c.15.35.49.57.87.57h12.09c.32,0,.62-.16.79-.43.17-.27.2-.61.07-.9l-10.63-23.49c3.25-1.24,5.61-3.13,7.03-5.63,1.53-2.68,2.3-5.89,2.3-9.54,0-3.84-.63-6.93-1.88-9.19-1.25-2.26-2.88-3.99-4.84-5.15-1.92-1.13-4.07-1.86-6.37-2.15-2.22-.28-4.41-.42-6.51-.42h-16.38c-.52,0-.94.42-.94.94v55c0,.52.42.94.94.94ZM92.75,97.1c.97,0,1.8.02,2.45.07.62.05,1.15.12,1.56.21.43.09.83.21,1.16.33.9.37,1.56.95,2.01,1.78.47.88.72,2.2.72,3.94,0,.72-.03,1.43-.1,2.12-.06.63-.2,1.24-.42,1.81-.21.53-.52,1.02-.94,1.45-.41.43-1,.79-1.71,1.08-.37.13-.72.23-1.04.3-.33.07-.8.13-1.37.17-.59.05-1.37.07-2.31.07h-2.86v-13.32h2.86Z"/>
  <path class="st0" d="M118.08,143.56h23.15c.52,0,.94-.42.94-.94v-7.68c0-.52-.42-.94-.94-.94h-5.07v-36.44h5.07c.52,0,.94-.42.94-.94v-8.99c0-.52-.42-.94-.94-.94h-23.15c-.52,0-.94.42-.94.94v8.99c0,.52.42.94.94.94h5v36.6h-5c-.52,0-.94.42-.94.94v7.53c0,.52.42.94.94.94Z"/>
  <path class="st0" d="M158.82,105.42c0-.12,0-.24,0-.36l9,37.77c.1.43.48.73.92.73h7.67c.44,0,.82-.3.92-.73l8.56-36.9c-.04,1.29-.13,36.68-.13,36.68,0,.52.42.94.94.94h9.74c.52,0,.94-.42.94-.94v-55c0-.52-.42-.94-.94-.94h-14.99c-.43,0-.8.29-.91.71,0,0-7.88,30.92-8.04,31.78-.13-.57-8.17-31.78-8.17-31.78-.11-.42-.48-.71-.91-.71h-14.93c-.52,0-.94.42-.94.94v55c0,.52.42.94.94.94h9.6c.52,0,.94-.42.94-.94,0,0-.16-35.5-.21-37.2Z"/>
  <path class="st0" d="M202.66,143.56h35.66c.52,0,.94-.42.94-.94v-10.19c0-.52-.42-.94-.94-.94h-23.52v-11.15h14.74c.52,0,.94-.42.94-.94v-10.04c0-.52-.42-.94-.94-.94h-14.88v-9.8h22.07c.52,0,.94-.42.94-.94v-10.04c0-.52-.42-.94-.94-.94h-34.07c-.52,0-.94.42-.94.94v55c0,.52.42.94.94.94Z"/>
  <path class="st0" d="M324.86,96.53c-.8-2.74-1.96-5.02-3.47-6.76-1.81-2.12-3.96-3.61-6.39-4.44-2.37-.8-4.95-1.21-7.66-1.21-2.49,0-4.93.42-7.26,1.25-2.38.85-4.46,2.31-6.17,4.33-1.84,2.2-3.09,4.7-3.72,7.44-.61,2.66-.92,5.48-.92,8.38v14.76c0,1.23.08,2.93.25,5.05.16,2.17.54,4.29,1.1,6.29.68,2.47,1.7,4.51,3.03,6.06,1.31,1.53,2.78,2.75,4.37,3.62,1.58.87,3.2,1.47,4.83,1.79,1.59.31,3.06.47,4.36.47.84,0,1.85-.05,2.99-.15,1.17-.11,2.41-.36,3.68-.75,1.29-.4,2.6-.98,3.89-1.74,1.33-.77,2.57-1.84,3.7-3.16,1.7-2,2.9-4.38,3.58-7.09.66-2.64,1-5.98,1-9.93v-13.34c0-4.51-.4-8.17-1.18-10.87ZM302.48,103.71c0-.53.03-1.26.1-2.17.06-.85.26-1.7.59-2.52.31-.77.81-1.43,1.54-2,.68-.54,1.68-.81,2.97-.81s2.24.21,2.86.63c.64.43,1.09.96,1.39,1.62.32.72.52,1.53.58,2.41.07.97.1,1.93.1,2.85v19.07c0,.93-.03,1.97-.1,3.08-.06,1.05-.26,2.04-.6,2.94-.31.85-.8,1.54-1.48,2.11-.63.52-1.6.79-2.88.79-1.06,0-1.91-.2-2.53-.6-.64-.41-1.13-.96-1.49-1.68-.39-.78-.66-1.72-.81-2.81-.15-1.14-.23-2.43-.23-3.84v-19.07Z"/>
  <path class="st0" d="M68.67,85.43c-1.54-1.54-3.59-2.79-6.09-3.73-2.48-.93-5.84-1.4-10-1.4h-18.21c-.52,0-.94.42-.94.94v61.37c0,.52.42.94.94.94h12.19c.52,0,.94-.42.94-.94v-22.08l5.72-.22c2.17-.11,4.36-.33,6.52-.63,2.26-.32,4.48-1.2,6.59-2.61.66-.43,1.41-1.05,2.29-1.91.88-.86,1.73-1.96,2.52-3.28.79-1.32,1.47-2.92,2.01-4.78.55-1.86.83-4.06.83-6.54,0-3.15-.42-6.02-1.25-8.53-.85-2.56-2.22-4.78-4.07-6.6ZM47.51,92.31h3.42c1.06,0,1.95.03,2.63.08.64.05,1.16.13,1.53.22.38.1.8.25,1.27.46.34.14.71.35,1.11.62.34.23.65.58.93,1.04.3.5.56,1.18.76,2,.21.84.31,1.99.31,3.41s-.17,2.66-.51,3.61c-.34.97-.73,1.74-1.15,2.3-.4.54-.81.94-1.2,1.18-.58.35-.87.5-1.04.58-.27.13-.61.23-1,.3-.45.08-1.03.15-1.72.2-.69.05-1.57.08-2.6.08h-2.74v-16.09Z"/>
  <path class="st0" d="M285.09,120.12h-12.18c-.52,0-.94.42-.94.94,0,1.62-.1,3.1-.29,4.42-.19,1.26-.51,2.34-.96,3.22-.43.83-.97,1.45-1.66,1.89-.67.43-1.55.64-2.61.64-1.44,0-2.55-.29-3.31-.86-.79-.59-1.34-1.31-1.68-2.18-.36-.93-.58-1.92-.65-2.95-.07-1.1-.11-2.06-.11-2.87v-23.37c0-.38.01-.85.04-1.43.02-.53.09-1.07.21-1.6.11-.52.29-1.06.54-1.61.23-.51.55-.97.98-1.4.51-.52,1.12-.92,1.85-1.21.74-.29,1.43-.44,2.06-.44,1.26,0,2.23.29,2.87.85.72.63,1.23,1.37,1.59,2.27.37.94.6,1.94.69,2.96.1,1.09.15,1.99.15,2.68,0,.52.42.94.94.94h12.11c.26,0,.5-.11.68-.29.18-.19.27-.44.26-.69-.05-1.22-.14-2.61-.27-4.14-.13-1.55-.4-3.13-.82-4.68-.42-1.56-1.01-3.1-1.76-4.58-.78-1.52-1.85-2.89-3.19-4.08-1.01-.88-2.1-1.62-3.25-2.19-1.12-.55-2.25-.99-3.35-1.31-1.1-.32-2.2-.54-3.28-.66-1.06-.11-2.02-.17-2.85-.17-6.72,0-11.9,2.02-15.38,6.01-3.45,3.95-5.2,9.64-5.2,16.93v18.48c0,3.16.17,5.84.5,7.96.33,2.14.77,3.95,1.28,5.4.53,1.48,1.15,2.68,1.84,3.56.64.83,1.25,1.56,1.82,2.2,1.85,2,4,3.47,6.41,4.38,2.38.9,5.26,1.36,8.57,1.36.63,0,1.42-.04,2.42-.13,1.01-.09,2.11-.3,3.28-.61,1.17-.32,2.36-.75,3.54-1.3,1.2-.56,2.35-1.32,3.42-2.26,1.21-1.05,2.2-2.15,2.95-3.26.73-1.09,1.31-2.15,1.74-3.14.42-.98.74-1.93.95-2.82.2-.85.36-1.61.47-2.25.1-.68.18-1.25.23-1.71.05-.45.1-.93.15-1.44.05-.52.09-1.12.12-1.81.03-.68.04-1.58.04-2.71,0-.52-.42-.94-.94-.94Z"/>
  <path class="st0" d="M71.6,169.2h-8.92v-4.59h5.68c.07,0,.12-.05.12-.12v-3.72c0-.07-.05-.12-.12-.12h-5.73v-4.09h8.38c.07,0,.12-.05.12-.12v-3.72c0-.07-.05-.12-.12-.12h-12.59c-.07,0-.12.05-.12.12v20.37c0,.07.05.12.12.12h13.17c.07,0,.12-.05.12-.12v-3.77c0-.07-.05-.12-.12-.12Z"/>
  <path class="st0" d="M86.55,155.12s.02-.08,0-.12c-.02-.04-.06-.06-.1-.06h-3.95s-.09.03-.11.07l-1.87,3.78c-.12.23-.22.42-.29.57-.07.15-.13.28-.19.4-.06.12-.12.25-.18.38-.05.11-.12.26-.21.43-.03-.07-.08-.16-.13-.28-.08-.17-.17-.35-.26-.55-.09-.2-.17-.38-.25-.55-.08-.18-.14-.31-.18-.39l-1.99-3.81s-.06-.06-.1-.06h-3.89s-.08.02-.1.06c-.02.04-.02.08,0,.12l4.69,8.61-4.78,9.3s-.02.08,0,.12c.02.04.06.06.1.06h3.93s.09-.03.11-.07l2.12-4.52c.12-.25.22-.45.28-.61.07-.15.13-.28.19-.4.06-.12.12-.23.17-.35.04-.09.1-.21.17-.36.05.11.09.2.12.28l.34.74c.08.16.18.38.32.64l2.21,4.57s.06.07.11.07h3.93s.08-.02.1-.06c.02-.04.02-.08,0-.12l-4.92-9.37,4.6-8.54Z"/>
  <path class="st0" d="M98.33,166.86h-3.66c-.07,0-.12.05-.12.12,0,.48-.03.93-.09,1.32-.06.39-.16.72-.3.99-.14.27-.33.47-.56.62-.23.14-.52.21-.87.21-.47,0-.84-.1-1.09-.28-.26-.19-.45-.43-.56-.71-.12-.29-.18-.6-.21-.91-.02-.33-.03-.61-.03-.85v-6.86c0-.11,0-.25.01-.43,0-.17.03-.33.07-.5.04-.16.09-.33.17-.51.08-.17.19-.32.33-.46.17-.17.37-.3.61-.39.24-.09.47-.14.68-.14.42,0,.75.1.97.29.23.2.41.44.52.73.12.29.19.6.22.91.03.32.04.59.04.8,0,.07.05.12.12.12h3.64s.06-.01.09-.04c.02-.02.03-.06.03-.09-.02-.36-.04-.77-.08-1.21-.04-.45-.12-.9-.24-1.35-.12-.45-.3-.89-.52-1.31-.22-.43-.53-.82-.92-1.15-.29-.25-.61-.46-.94-.62-.33-.16-.66-.28-.98-.38-.32-.09-.65-.15-.96-.19-.31-.03-.6-.05-.84-.05-1.97,0-3.48.57-4.49,1.71-1.01,1.13-1.52,2.77-1.52,4.87v5.43c0,.92.05,1.7.15,2.31.1.62.23,1.14.38,1.56.15.42.33.76.53,1,.19.24.37.45.54.63.54.57,1.16.99,1.86,1.25.69.26,1.54.39,2.51.39.18,0,.42-.01.71-.04.29-.03.61-.08.96-.17.35-.09.69-.22,1.04-.37.35-.16.68-.37.99-.64.35-.3.64-.61.86-.93.21-.31.39-.61.51-.9.12-.28.22-.55.28-.8.06-.25.11-.46.14-.65.03-.2.05-.36.07-.5.01-.13.03-.27.05-.42.01-.15.03-.32.03-.52,0-.2.01-.46.01-.79,0-.07-.05-.12-.12-.12Z"/>
  <path class="st0" d="M108.52,154.95h-4.41c-.05,0-.1.04-.11.09l-4.68,18.02s0,.07.02.1c.02.03.06.05.09.05h3.55c.05,0,.1-.04.11-.09l.84-3.49h4.9l.81,3.49c.01.05.06.09.11.09h3.55s.07-.02.09-.05c.02-.03.03-.07.02-.1l-4.79-18.02c-.01-.05-.06-.09-.11-.09ZM108.06,166.32h-3.43l1.71-7.69,1.73,7.69Z"/>
  <path class="st0" d="M126.73,155s-.06-.05-.09-.05h-3.61c-.05,0-.1.04-.11.09l-2.46,9.53-.41,1.62c-.11.45-.22.89-.32,1.34-.06-.24-.14-.55-.23-.91-.13-.52-.29-1.14-.49-1.88l-2.58-9.7c-.01-.05-.06-.09-.11-.09h-3.64s-.07.02-.09.05c-.02.03-.03.07-.02.1l5.06,18.02c.01.05.06.09.11.09h3.95c.05,0,.1-.04.11-.09l4.95-18.02s0-.07-.02-.1Z"/>
  <path class="st0" d="M135.09,154.95h-4.41c-.05,0-.1.04-.11.09l-4.68,18.02s0,.07.02.1c.02.03.06.05.09.05h3.55c.05,0,.1-.04.11-.09l.84-3.49h4.9l.81,3.49c.01.05.06.09.11.09h3.55s.07-.02.09-.05c.02-.03.03-.07.02-.1l-4.79-18.02c-.01-.05-.06-.09-.11-.09ZM134.63,166.32h-3.43l1.71-7.69,1.73,7.69Z"/>
  <path class="st0" d="M150.43,154.95h-12.15c-.07,0-.12.05-.12.12v3.29c0,.07.05.12.12.12h4.11v14.61c0,.07.05.12.12.12h3.8c.07,0,.12-.05.12-.12v-14.61h4.02c.07,0,.12-.05.12-.12v-3.29c0-.07-.05-.12-.12-.12Z"/>
  <path class="st0" d="M159.66,154.95h-7.57c-.07,0-.12.05-.12.12v3.29c0,.07.05.12.12.12h1.82v11.66h-1.82c-.07,0-.12.05-.12.12v2.84c0,.07.05.12.12.12h7.57c.07,0,.12-.05.12-.12v-2.89c0-.07-.05-.12-.12-.12h-1.85v-11.62h1.85c.07,0,.12-.05.12-.12v-3.29c0-.07-.05-.12-.12-.12Z"/>
  <path class="st0" d="M170.45,156.39c-.57-.67-1.24-1.14-2.01-1.4-.75-.26-1.58-.39-2.44-.39-.79,0-1.57.13-2.31.4-.75.27-1.4.72-1.94,1.36-.58.7-.98,1.49-1.18,2.36-.2.86-.3,1.77-.3,2.7v4.84c0,.39.03.95.08,1.64.05.7.17,1.38.35,2.02.21.78.53,1.43.95,1.91.41.48.88.87,1.38,1.14.5.27,1.01.46,1.53.57.51.1.98.15,1.39.15.28,0,.6-.02.96-.05.37-.03.76-.11,1.16-.24.41-.12.82-.31,1.23-.55.42-.24.81-.58,1.16-1,.54-.63.92-1.39,1.13-2.25.21-.85.32-1.93.32-3.21v-4.37c0-1.46-.13-2.64-.38-3.51-.25-.87-.62-1.59-1.1-2.14ZM164.22,160.83c0-.17.01-.42.03-.73.02-.3.09-.6.21-.88.11-.28.3-.53.56-.74.26-.2.62-.31,1.09-.31s.81.08,1.04.24c.24.16.41.36.52.61.11.26.18.55.21.86.02.32.03.64.03.95v6.25c0,.31-.01.65-.03,1.02-.02.36-.09.71-.21,1.02-.11.31-.3.57-.54.77-.24.2-.6.3-1.07.3-.38,0-.7-.08-.93-.23-.24-.15-.42-.36-.56-.63-.14-.27-.23-.6-.28-.98-.05-.38-.08-.82-.08-1.28v-6.25Z"/>
  <path class="st0" d="M185.95,154.95h-3.34c-.07,0-.12.05-.12.12v7.15c0,.12,0,.25.01.39,0,.14.01.3.02.49,0,.19.02.44.03.75l.07,1.44s-.03-.08-.05-.12c-.09-.24-.15-.39-.18-.48-.08-.18-.17-.39-.27-.62-.11-.23-.2-.44-.3-.62l-4.27-8.42s-.06-.06-.11-.06h-3.48c-.07,0-.12.05-.12.12v18.02c0,.07.05.12.12.12h3.34c.07,0,.12-.05.12-.12v-8.45c0-.12,0-.33-.01-.64,0-.31-.02-.64-.03-.99-.02-.34-.03-.67-.05-.98,0-.11,0-.21-.01-.3l.37.96c.12.31.22.57.31.76.08.2.16.36.22.48.06.12.14.28.23.46l4.41,8.74s.06.06.11.06h2.98c.07,0,.12-.05.12-.12v-18.02c0-.07-.05-.12-.12-.12Z"/>
  <path class="st0" d="M212.41,166.06h-4.13c-.07,0-.12.05-.12.12,0,.54-.03,1.04-.1,1.49-.07.44-.18.82-.34,1.13-.16.3-.37.54-.63.7-.26.16-.6.25-1,.25-.53,0-.95-.11-1.24-.32-.3-.22-.51-.49-.64-.81-.13-.33-.21-.68-.23-1.04-.02-.37-.04-.69-.04-.96v-7.76c0-.13,0-.29.01-.48,0-.19.03-.38.07-.56.04-.18.11-.38.2-.57.09-.19.21-.36.37-.52.19-.19.43-.34.7-.45.27-.11.53-.16.77-.16.48,0,.85.11,1.11.33.26.23.46.51.59.83.13.33.21.68.25,1.04.03.37.05.67.05.9,0,.07.05.12.12.12h4.11s.06-.01.08-.04c.02-.02.03-.06.03-.09-.02-.41-.05-.87-.09-1.36-.04-.5-.13-1.01-.27-1.52-.14-.5-.33-1-.58-1.48-.25-.48-.6-.92-1.04-1.3-.33-.28-.69-.52-1.06-.7-.37-.18-.74-.32-1.1-.42-.36-.1-.72-.17-1.08-.21-.35-.04-.67-.06-.94-.06-2.22,0-3.92.65-5.07,1.93-1.14,1.27-1.72,3.12-1.72,5.49v6.13c0,1.04.06,1.92.17,2.61.11.7.26,1.29.43,1.76.17.47.37.85.59,1.13.21.27.42.51.61.72.61.64,1.31,1.11,2.1,1.4.78.29,1.74.44,2.84.44.21,0,.48-.01.8-.04.33-.03.69-.1,1.08-.2.39-.1.78-.24,1.17-.42.39-.18.77-.42,1.11-.72.4-.33.72-.69.97-1.04.24-.36.43-.69.57-1.01.14-.32.24-.62.31-.9.07-.27.12-.52.16-.73.03-.22.06-.41.08-.56.02-.15.03-.31.05-.47s.03-.37.04-.59c0-.22.01-.52.01-.89,0-.07-.05-.12-.12-.12Z"/>
  <path class="st0" d="M224.72,156.39c-.57-.67-1.24-1.14-2.01-1.4-.75-.26-1.58-.39-2.44-.39-.79,0-1.57.13-2.31.4-.75.27-1.4.72-1.94,1.36-.58.7-.98,1.49-1.18,2.36-.2.86-.3,1.77-.3,2.7v4.84c0,.4.03.95.08,1.64.05.7.17,1.38.35,2.02.21.78.53,1.43.95,1.91.41.48.88.87,1.38,1.14.5.27,1.01.46,1.53.57.51.1.98.15,1.39.15.28,0,.6-.02.96-.05.37-.03.76-.11,1.16-.24.41-.12.82-.31,1.23-.55.42-.24.81-.58,1.16-1,.54-.63.92-1.39,1.13-2.25.21-.85.32-1.93.32-3.21v-4.37c0-1.46-.13-2.64-.38-3.51-.25-.87-.62-1.59-1.1-2.14ZM218.49,160.83c0-.18.01-.43.03-.73.02-.3.09-.59.21-.88.11-.28.3-.53.56-.74.26-.2.62-.31,1.09-.31s.81.08,1.04.24c.24.16.41.36.52.61.11.26.18.55.2.86.02.32.03.64.03.95v6.25c0,.31-.01.66-.03,1.02-.02.36-.09.7-.21,1.02-.11.3-.3.56-.54.77-.24.2-.6.3-1.07.3-.38,0-.7-.08-.93-.23-.24-.15-.42-.36-.56-.63-.14-.27-.23-.6-.28-.98-.05-.38-.08-.81-.08-1.28v-6.25Z"/>
  <path class="st0" d="M243.97,154.95h-4.9c-.05,0-.1.04-.11.09l-1.94,7.44c-.21.8-.39,1.52-.52,2.15-.12.54-.23,1.13-.33,1.75,0-.04-.02-.08-.03-.12-.05-.21-.09-.44-.15-.68-.05-.24-.11-.46-.16-.68-.06-.25-.09-.39-.1-.46-.05-.2-.09-.37-.13-.52-.04-.15-.07-.29-.1-.43-.03-.14-.07-.29-.12-.44-.04-.15-.09-.31-.13-.51l-1.97-7.51c-.01-.05-.06-.09-.11-.09h-4.88c-.07,0-.12.05-.12.12v18.02c0,.07.05.12.12.12h3.14c.07,0,.12-.05.12-.12v-9.58c0-.2,0-.54-.02-1.04-.02-.49-.03-1.01-.05-1.57-.02-.56-.03-1.08-.06-1.59,0-.17-.01-.33-.02-.47l3.39,14.27c.01.05.06.09.12.09h2.51c.06,0,.1-.04.12-.09l3.26-14.08c0,.19-.02.38-.03.57-.02.47-.04.94-.06,1.39-.02.45-.03.88-.03,1.3,0,.42-.01.78-.01,1.1v9.7c0,.07.05.12.12.12h3.18c.07,0,.12-.05.12-.12v-18.02c0-.07-.05-.12-.12-.12Z"/>
  <path class="st0" d="M258.2,162.62c.16-.53.24-1.16.24-1.88,0-.91-.12-1.73-.37-2.46-.25-.73-.64-1.36-1.18-1.88-.45-.44-1.04-.79-1.77-1.06-.73-.27-1.72-.4-2.94-.4h-5.47c-.07,0-.12.05-.12.12v18.02c0,.07.05.12.12.12h3.66c.07,0,.12-.05.12-.12v-6.64l1.88-.07c.65-.03,1.31-.1,1.94-.19.65-.09,1.29-.34,1.91-.74.19-.12.41-.3.66-.54.25-.24.5-.56.73-.93.23-.37.43-.83.59-1.37ZM250.49,158.16h1.19c.31,0,.58,0,.8.02.2.02.37.04.49.07.12.03.26.08.4.14.11.04.23.11.36.2.12.08.23.2.33.36.1.16.18.37.25.63.06.26.1.61.1,1.04s-.05.82-.16,1.11c-.11.3-.23.54-.37.72-.13.18-.27.31-.41.39-.17.11-.27.15-.33.18-.1.04-.21.08-.34.1-.14.02-.32.05-.53.06-.21.02-.48.02-.79.02h-.99v-5.04Z"/>
  <path class="st0" d="M266.64,154.95h-4.4c-.05,0-.1.04-.11.09l-4.68,18.02s0,.07.02.1c.02.03.06.05.09.05h3.55c.05,0,.1-.04.11-.09l.84-3.49h4.9l.81,3.49c.01.05.06.09.12.09h3.55s.07-.02.09-.05c.02-.03.03-.07.02-.1l-4.79-18.02c-.01-.05-.06-.09-.11-.09ZM266.18,166.32h-3.43l1.71-7.69,1.73,7.69Z"/>
  <path class="st0" d="M285.28,154.95h-3.34c-.07,0-.12.05-.12.12v7.15c0,.12,0,.25.01.39,0,.14.01.3.02.49,0,.19.02.44.03.75l.07,1.44s-.03-.08-.05-.12c-.09-.24-.15-.4-.18-.48-.08-.18-.17-.39-.27-.62-.11-.23-.2-.44-.3-.62l-4.27-8.42s-.06-.06-.11-.06h-3.48c-.07,0-.12.05-.12.12v18.02c0,.07.05.12.12.12h3.34c.07,0,.12-.05.12-.12v-8.45c0-.12,0-.33-.01-.64,0-.31-.02-.64-.03-.99l-.05-.98c0-.11-.01-.21-.01-.3.15.39.28.71.37.96.12.31.22.57.31.76.08.2.16.36.22.48.06.12.14.28.23.46l4.4,8.74s.06.06.11.06h2.98c.07,0,.12-.05.12-.12v-18.02c0-.07-.05-.12-.12-.12Z"/>
  <path class="st0" d="M301.05,154.95h-3.86s-.09.03-.11.07l-2.01,4.55c-.13.32-.25.58-.34.77-.09.19-.17.36-.23.51-.06.14-.12.28-.18.4-.05.09-.1.21-.15.35-.03-.08-.07-.18-.13-.3-.09-.2-.18-.42-.28-.66l-.02-.05c-.09-.22-.18-.43-.26-.62-.09-.21-.16-.37-.21-.45l-2.1-4.49s-.06-.07-.11-.07h-3.91s-.08.02-.1.06c-.02.03-.02.08,0,.11l5.23,10.88v7.09c0,.07.05.12.12.12h3.66c.07,0,.12-.05.12-.12v-7.24l4.98-10.73s.01-.08,0-.11c-.02-.03-.06-.05-.1-.05Z"/>
  <rect class="st0" x="32.96" y="147.3" width="292.48" height="1.69"/>
</svg>