<?xml version="1.0" encoding="UTF-8"?>
<svg id="Layer_1" xmlns="http://www.w3.org/2000/svg" version="1.1" viewBox="0 0 360 251.75">
  <!-- Generator: Adobe Illustrator 30.2.1, SVG Export Plug-In . SVG Version: 2.1.1 Build 1)  -->
  <defs>
    <style>
      .st0 {
        fill: #e12026;
      }

      .st1 {
        fill: #fff;
      }

      .st2 {
        fill: #131412;
      }
    </style>
  </defs>
  <path class="st1" d="M79.45,81.34l1.12.64c.38.21.64.51.37,1.1-.31.69-.88,1.91-1.27,2.89-.62,1.58-.99,3.14-.14,3.48,1.57.62,4-3.21,6.62-2.18,3.09,1.21,2.56,6.3.44,11.72-.52,1.33-.99,2.36-1.4,3.24-.37.78-.65.82-1.2.51l-1.16-.66c-.38-.21-.64-.51-.37-1.1.35-.73.81-1.74,1.39-3.22,1.02-2.61,1.2-3.96.29-4.31-1.42-.56-3.85,3.32-6.48,2.29-2.81-1.1-2.81-5.56-.8-10.68.44-1.13.96-2.34,1.39-3.22.37-.78.66-.84,1.2-.51"/>
  <path class="st1" d="M93.59,63.85c2.85,1.74,2.85,6.66-1.72,14.16l-1.77,2.9,1.6,3.4c.29.59.27,1.02-.09,1.62l-2.09,3.43c-.34.55-.74.5-1.04-.03l-6.09-12.99c-.19-.43-.26-.73.08-1.47.79-1.73,2.09-4.03,3.09-5.66,2.87-4.72,5.88-6.67,8.04-5.35M90.04,75.7c1.92-3.15,1.96-5.4.68-6.18-.85-.52-2.22-.09-3.52,2.05-.35.58-.63,1.07-.81,1.49l2.3,4.87,1.36-2.23Z"/>
  <path class="st1" d="M100.06,71.82c-.43.48-.85.39-1.02-.23l-3.58-13.89c-.15-.61-.13-.99.39-1.57l8.21-9.11c.49-.54.87-.38,1.02.23l.35,1.37c.18.67.08,1.05-.39,1.57l-4.91,5.44.69,2.65,4.53-5.02c.42-.46.89-.43,1.05.22l.33,1.35c.16.65.08,1.05-.39,1.57l-4.65,5.16.84,3.26,5.97-6.63c.41-.46.89-.43,1.05.22l.32,1.37c.14.67.08,1.05-.39,1.57l-9.41,10.45Z"/>
  <path class="st1" d="M111.26,59c-.51.4-.91.24-.97-.39l-1.21-14.3c-.05-.62.03-1,.65-1.48l9.62-7.6c.57-.45.92-.23.97.39l.12,1.41c.06.69-.1,1.05-.65,1.48l-5.75,4.54.24,2.73,5.31-4.19c.49-.38.95-.28,1,.39l.1,1.39c.05.67-.1,1.05-.65,1.48l-5.45,4.31.28,3.35,7-5.53c.49-.38.95-.28,1,.39l.08,1.41c.03.69-.1,1.05-.65,1.48l-11.03,8.72Z"/>
  <path class="st1" d="M123.42,46.98l1.48-13.69c.08-.62.31-.93.97-1.36,1.57-1.02,3.35-2.08,5.29-3.08,4.57-2.36,9.15-3.36,10.9.03,1.9,3.68-.71,10.6-10.14,15.48-2.39,1.24-5.48,2.78-7.39,3.37-.88.29-1.16.04-1.11-.75M136.28,36.58c.81-1.67.99-3.18.38-4.37-.9-1.74-3-1.47-5.04-.42-.33.17-1,.54-1.57.9l-1.01,9.67c.8-.32,1.54-.66,2-.89,2.39-1.24,4.43-3.22,5.24-4.89"/>
  <path class="st1" d="M149.33,35.86c-.63.14-.92-.17-.7-.77l5.11-13.41c.23-.58.46-.89,1.23-1.06l11.96-2.69c.71-.16.93.19.7.77l-.5,1.32c-.24.65-.54.9-1.23,1.06l-7.15,1.61-.97,2.57,6.6-1.48c.6-.14.97.16.73.79l-.51,1.3c-.25.63-.54.9-1.23,1.06l-6.78,1.52-1.2,3.15,8.7-1.96c.6-.14.98.16.73.79l-.54,1.3c-.27.63-.54.9-1.23,1.06l-13.72,3.08Z"/>
  <path class="st1" d="M165.72,31.47c-.65.01-.84-.4-.53-.9l7.7-12.09c.34-.52.63-.77,1.42-.79l3.85-.06c.65-.01,1.27.29,1.42.88.29,1.27.7,3.33.94,4.6,1.81-1.33,5.81-4.03,7.65-5.16.53-.32.99-.51,1.69-.52l5.07-.08c.81-.01.76.52.47.98l-7.63,12.01c-.37.58-.71.77-1.42.79l-3.91.06c-.62.01-.89-.34-.53-.9l4.57-7.19h-.08c-1.44.91-4.61,3.13-6.1,4.25-.85.63-1.68,1.2-2.62,1.22-1.21.02-1.6-.49-1.83-1.52-.2-.95-.61-2.69-.78-3.31h-.05s-4.45,6.88-4.45,6.88c-.37.56-.71.77-1.42.79l-3.45.06Z"/>
  <path class="st1" d="M193,26.7c.89-4.01,7.71-7.94,16.73-5.92,4.97,1.11,8.35,3.41,7.6,6.77-.89,3.99-7.71,7.94-16.73,5.92-4.97-1.11-8.35-3.41-7.6-6.77M211.03,26.71c.36-1.61-.64-2.85-3-3.37-4.31-.96-8.22,1.93-8.72,4.2-.36,1.61.64,2.85,3,3.38,4.31.96,8.22-1.93,8.72-4.2"/>
  <path class="st1" d="M225.54,39.47c-.09-2.23-.44-5.86-.7-7.14l-7.49,4.55c-.59.36-.98.38-1.62.09l-3.27-1.53c-.59-.27-.58-.73-.08-1.04l12.23-7.48c.54-.32.91-.42,1.62-.09l2.73,1.28c.78.37,1.03.73,1.23,1.51.32,1.22.7,4.59.77,6.67l5.88-3.65c.59-.36.98-.38,1.62-.08l3.27,1.53c.34.16.54.44.41.72-.06.13-.28.28-.41.38l-11.83,7.21c-.87.53-1.74.8-2.87.27-1.15-.54-1.41-1.55-1.48-3.2"/>
  <path class="st1" d="M196.37,226.35c-.01.61,0,.9,0,.9,0,0-.1-.12-.49-.25-.34-.11-.88-.14-1.56-.06l-1.49.18-.1,2.31,1.15-.14c.66-.08,1.24-.21,1.58-.41.42-.24.53-.37.53-.37,0,0-.05.31-.09,1.1-.04.72,0,1.06,0,1.07-.02,0-.12-.1-.51-.24-.32-.12-.88-.11-1.54-.02l-1.17.14-.1,2.33,1.37-.17c1.76-.22,1.98-.57,2.54-1.24,0,0-.11.45-.22,1.67l-.05.42-5.52.68c-.77.09-1.1.15-1.1.15l.14-.21c.31-.48.38-.58.53-3.96.04-.86.1-2.53.04-3-.04-.34-.11-.51-.25-.71l-.12-.18s.32-.03,1.09-.12l5.39-.66s-.03.25-.05.79"/>
  <path class="st1" d="M203.03,225.42c.03.66.06,1.03.06,1.03-.57-.56-1.36-.88-2.63-.63-.57.11-1.35.36-1.21,1.06.09.47.55.59,1.24.81l.86.29c1.44.45,2.06.91,2.25,1.86.31,1.59-.85,2.61-3.41,3.11-1.86.37-2.93.25-2.93.25,0,0,.02-.28,0-.89-.01-.68-.07-1.09-.07-1.09.55.52,1.27.88,2.71.6.7-.14,1.5-.43,1.35-1.19-.09-.44-.48-.62-1.13-.83l-1.1-.37c-1.02-.34-1.84-.74-2.04-1.78-.21-1.07.39-2.4,3.33-2.98,1.73-.34,2.71-.16,2.71-.16,0,0-.02.27,0,.91"/>
  <path class="st1" d="M207.74,231.14c-1.19.33-1.68.48-1.68.48l.11-.22c.24-.5.3-.61-.05-3.97l-.29-2.83-.69.19c-.65.18-1.17.45-1.48.7-.34.26-.43.41-.45.44,0-.04.03-.4-.04-.98-.04-.49-.09-.71-.09-.73l7.66-2.1s0,.24.06.73c.06.61.14.94.14.97-.02,0-.12-.1-.53-.18-.35-.07-.86-.05-1.51.12l-.69.19.29,2.95c.08.86.27,2.54.4,3,.09.33.18.49.35.67l.15.16s-.48.11-1.66.43"/>
  <path class="st1" d="M212.56,229.9c-.94.21-1.4-.06-1.56-.56-.22-.67.28-1.21,1.13-1.57.94-.2,1.41.06,1.57.56.22.67-.28,1.22-1.14,1.57"/>
  <path class="st1" d="M220.53,224.02l-.66.77c-.67.76-.94,1.1-.9,1.28l2.16-.9c.63-.26,1.12-.56,1.41-.85.34-.35.41-.5.41-.5,0,0,.07.67.21,1.29l.12.56-6.28,2.62c-.24-1.06.04-1.8.83-2.95l1.01-1.43c.71-1.02,1.14-1.73.81-2.52-.33-.78-1.01-.71-1.78-.39-1.17.49-1.52,1.19-1.83,1.91,0,0-.05-.39-.18-.96-.17-.68-.25-.87-.25-.87,0,0,.72-.65,2.49-1.39,2.66-1.11,3.56-.46,3.94.47.6,1.45-.61,2.85-1.51,3.87"/>
  <path class="st1" d="M228.13,223.48c-2.58,1.32-3.98.48-4.67-.86-.93-1.81-1.41-4.64,2.05-6.41,2.58-1.32,3.99-.48,4.68.85.93,1.81,1.39,4.64-2.06,6.42M225.91,217.25c-1.63.84-.41,3.63-.09,4.24.55,1.08.95,1.44,1.92.94,1.63-.84.41-3.63.1-4.23-.56-1.08-.96-1.45-1.93-.95"/>
  <path class="st1" d="M234.87,216.52l-.53.86c-.55.86-.76,1.24-.69,1.41l1.99-1.23c.58-.36,1.02-.73,1.26-1.07.28-.4.32-.55.32-.55,0,0,.18.65.41,1.24l.21.54-5.79,3.58c-.4-1.01-.25-1.78.35-3.05l.77-1.58c.54-1.12.85-1.89.4-2.62-.45-.72-1.11-.55-1.82-.1-1.08.67-1.31,1.42-1.51,2.18,0,0-.11-.38-.33-.92-.28-.64-.39-.82-.39-.82,0,0,.61-.76,2.24-1.77,2.45-1.52,3.44-1.02,3.97-.17.83,1.33-.15,2.91-.87,4.06"/>
  <path class="st1" d="M241.09,207.14c.26.54.38.73.38.73,0,0-.25.03-1.65,1.05l-2.02,1.47.69,1.49s.26-.34.89-.8c1.48-1.08,3.07-1.42,4.07-.04.35.49,1.62,2.47-1.59,4.81-1.33.97-2.94,1.52-3.71.62,0,0,.9-.02,2.31-1.05,1.24-.9,1.6-1.86.93-2.78-.42-.58-1.1-.92-2.52.11-.94.68-1.26,1.19-1.26,1.19l-1.82-3.76,3.42-2.49c1.41-1.03,1.53-1.26,1.53-1.26,0,0,.1.24.35.73"/>
  <path class="st1" d="M254.13,204.52c-.87.82-1.22,1.17-1.22,1.17l-.02-.24c-.04-.51-.08-.7-1.93-3.47l-1.26-1.9s.16.55.23,1.1l.66,5.41-4.15-2.12c-.47-.23-.87-.53-.87-.53l1.35,2.02c.48.7,1.41,2.1,1.73,2.45.24.25.41.35.62.43l.2.07s-.29.24-.99.9c-.73.69-1,.97-1,.97v-.25c-.04-.57-.05-.7-1.92-3.51-.47-.72-1.41-2.1-1.74-2.45-.23-.25-.41-.35-.62-.43l-.2-.07s.43-.37,1.36-1.25c.86-.8,1.24-1.19,1.24-1.19l2.79,1.41c.27.16.41.24.45.28-.03-.06-.1-.28-.14-.62l-.44-3.58s.38-.32,1.25-1.14c.89-.84,1.32-1.27,1.32-1.27v.25c.03.55.05.66,1.94,3.47.92,1.39,1.52,2.22,1.82,2.54.21.23.34.3.54.36l.2.07s-.36.3-1.2,1.1"/>
  <path class="st1" d="M259.29,199.11c-1.7,1.97-3.53,2.64-5.32,1.1-1.88-1.62-2.79-4.23-.4-7,1.7-1.97,3.53-2.64,5.32-1.1,1.88,1.62,2.8,4.22.41,7M254.44,193.93c-1.48,1.72.88,3.96,1.38,4.4,1.15.99,1.78.99,2.58.06,1.49-1.73-.87-3.96-1.38-4.4-1.14-.98-1.78-.99-2.58-.06"/>
  <path class="st1" d="M264.54,192.32c-.73,1-1.01,1.43-1.01,1.43l-.06-.24c-.13-.54-.15-.67-2.53-3.06l-2-2.02-.42.58c-.39.54-.63,1.09-.72,1.47-.1.42-.08.59-.08.62-.02-.03-.23-.33-.65-.74-.34-.35-.52-.5-.53-.51l4.65-6.43s.16.18.51.53c.43.43.7.65.72.66-.02,0-.15,0-.53.2-.31.17-.7.5-1.09,1.04l-.42.58,2.08,2.11c.6.61,1.8,1.8,2.19,2.08.28.2.45.27.69.3l.21.03s-.31.39-1.02,1.38"/>
  <path class="st1" d="M269.73,184.76c-1.34,2.23-3.03,3.21-5.05,2-2.13-1.27-3.48-3.69-1.6-6.82,1.34-2.23,3.02-3.21,5.05-2,2.13,1.28,3.48,3.68,1.6,6.82M264.06,180.49c-1.17,1.95,1.54,3.75,2.12,4.1,1.3.78,1.92.67,2.55-.39,1.17-1.96-1.53-3.75-2.12-4.1-1.29-.77-1.92-.67-2.56.39"/>
  <path class="st1" d="M275.63,173.42c-.53,1.1-1.05,1.4-2.08,1.47l-1.21.08c-1.03.05-1.29.08-1.53.57-.06.12-.08.2-.08.2.9.63,1.79,1.24,2.13,1.4.28.13.42.14.63.13h.22s-.22.4-.73,1.46c-.49,1.02-.71,1.52-.71,1.52l-.1-.23c-.23-.52-.29-.64-3.05-2.58-.7-.5-2.07-1.45-2.5-1.66-.31-.15-.5-.19-.73-.18h-.22s.25-.47.58-1.15c.21-.43.67-1.45.88-1.87,1.04-2.16,1.97-3.55,3.51-2.81,1.91.92.87,3.41.57,4.03.66-1.09,1.34-1.16,2.26-1.18l1.2-.03c.63-.02.97-.1,1.35-.46,0,0,.03.4-.4,1.29M268,173.06c-.15.31-.27.58-.27.58l2.16,1.51s.12-.23.29-.57c.04-.09.15-.33.23-.52.39-1.04-.04-1.67-.67-1.97-.77-.37-1.25-.02-1.73.97"/>
  <path class="st1" d="M273.2,160.7c.58.32.91.48.91.48-.77.2-1.45.71-1.89,1.93-.2.55-.39,1.34.28,1.59.45.16.78-.17,1.34-.65l.69-.59c1.13-1,1.84-1.3,2.75-.97,1.52.55,1.8,2.07.91,4.52-.64,1.78-1.3,2.64-1.3,2.64,0,0-.23-.16-.76-.46-.59-.34-.97-.5-.97-.5.72-.2,1.41-.64,1.91-2.02.24-.67.4-1.51-.32-1.77-.42-.15-.78.09-1.3.54l-.88.75c-.82.69-1.58,1.19-2.58.84-1.03-.37-1.86-1.57-.84-4.39.6-1.66,1.26-2.41,1.26-2.41,0,0,.22.16.78.47"/>
  <path class="st1" d="M278.07,157.67c-.19.69-.38,1.13-.38,1.13.74.34,1.51.69,1.9.8.33.09.53.07.75,0l.22-.06s-.15.46-.49,1.69c-.32,1.16-.43,1.65-.43,1.65l-.14-.21c-.32-.47-.4-.58-3.46-2-.78-.37-2.3-1.06-2.76-1.19-.33-.09-.52-.1-.75-.04l-.21.05s.15-.46.36-1.23c.16-.57.44-1.71.56-2.17.48-1.72,1.13-3.94,3.26-3.35,2.07.57,2.22,2.52,1.55,4.93M274.2,156.51c-.1.35-.15.61-.15.61l2.74,1.26s.07-.15.23-.72c.4-1.43-.16-2.14-1.24-2.44-.79-.22-1.24.09-1.57,1.3"/>
  <path class="st1" d="M275.2,148.67c.35.45.43.55,3.57,1.78.8.32,2.36.92,2.83,1.02.34.07.52.07.75,0l.21-.06s-.12.46-.38,1.69c-.26,1.21-.34,1.68-.34,1.68l-.15-.2c-.35-.45-.43-.55-3.57-1.78-.8-.32-2.36-.92-2.83-1.02-.34-.07-.52-.07-.75,0l-.21.06s.12-.46.38-1.67c.26-1.22.34-1.7.34-1.7l.15.2Z"/>
  <path class="st1" d="M283.97,143.12c-.18,1.21-.58,1.65-1.55,2.02l-1.13.44c-.97.36-1.2.45-1.29,1-.02.13-.02.22-.02.22,1.04.33,2.08.65,2.45.7.31.05.44,0,.64-.07l.2-.07s-.09.46-.26,1.62c-.17,1.12-.22,1.66-.22,1.66l-.16-.19c-.38-.42-.46-.52-3.68-1.56-.82-.27-2.41-.77-2.88-.84-.34-.05-.54-.03-.75.05l-.2.07s.1-.53.21-1.28c.07-.47.21-1.59.28-2.05.35-2.37.82-3.98,2.52-3.73,2.09.31,1.85,2.99,1.74,3.68.31-1.23.93-1.51,1.81-1.81l1.14-.39c.59-.21.9-.38,1.15-.85,0,0,.15.38,0,1.35M276.58,145.06c-.05.35-.08.64-.08.64l2.51.8s.05-.26.1-.63c.01-.1.04-.36.06-.56.06-1.11-.53-1.58-1.23-1.68-.85-.12-1.2.35-1.36,1.45"/>
  <path class="st1" d="M276.67,136.34c.4.4.5.49,3.78,1.3.83.21,2.46.6,2.93.64.34.03.53,0,.75-.1l.2-.09s-.06.48-.16,1.72c-.1,1.23-.11,1.71-.11,1.71l-.18-.17c-.4-.4-.5-.49-3.78-1.3-.83-.21-2.46-.6-2.93-.64-.34-.03-.53,0-.75.1l-.2.09s.06-.48.16-1.71c.1-1.25.11-1.73.11-1.73l.18.17Z"/>
  <path class="st1" d="M284.5,133.7c-.02,1.24-.01,1.75-.01,1.75l-.19-.16c-.42-.37-.5-.46-3.82-1.08l-2.8-.52v.71c-.03.67.08,1.25.23,1.62.16.4.27.53.29.56-.03-.02-.38-.14-.95-.24-.48-.1-.71-.12-.72-.12l.15-7.94s.23.06.72.15c.6.11.94.13.97.13-.01.01-.12.09-.32.46-.16.32-.29.81-.31,1.48v.71s2.89.55,2.89.55c.84.16,2.51.45,2.99.46.35,0,.52-.03.74-.15l.19-.1s-.03.49-.05,1.72"/>
  <path class="st1" d="M268.99,128.36c0,48.86-39.61,88.48-88.48,88.48s-88.47-39.61-88.47-88.48,39.61-88.48,88.47-88.48,88.48,39.61,88.48,88.48"/>
  <path class="st2" d="M270.85,129.01c0,50.01-40.53,90.55-90.53,90.55s-90.53-40.54-90.53-90.55,40.53-90.55,90.53-90.55,90.53,40.54,90.53,90.55M266.58,129c0-47.72-38.67-86.4-86.38-86.4s-86.38,38.68-86.38,86.4,38.67,86.4,86.38,86.4,86.38-38.68,86.38-86.4"/>
  <path class="st1" d="M180.31,219.92c-50.12,0-90.89-40.78-90.89-90.91s40.78-90.91,90.89-90.91,90.9,40.78,90.9,90.91-40.78,90.91-90.9,90.91M180.31,38.82c-49.72,0-90.17,40.46-90.17,90.19s40.45,90.19,90.17,90.19,90.17-40.46,90.17-90.19-40.45-90.19-90.17-90.19M180.2,215.76c-47.83,0-86.74-38.92-86.74-86.76s38.91-86.76,86.74-86.76,86.74,38.92,86.74,86.76-38.91,86.76-86.74,86.76M180.2,42.97c-47.43,0-86.02,38.6-86.02,86.04s38.59,86.04,86.02,86.04,86.02-38.6,86.02-86.04-38.59-86.04-86.02-86.04"/>
  <path class="st0" d="M137.6,166.63c8.1,6.43,10.51,16.72,17.16,25.48,2.42,3.18,5.87,7.16,9.47,9.51,1.31,1.14,7.12,4.48,7.12,4.48,14.94,8.13,31.84,3.71,36.34,3.72-14.24,5.48-32.32,6.27-46.63,2.41-23.14-4.97-44.66-21.06-55.63-42.33,3.26,1.91,7.92,4.17,12.14,3.52,6.18-.94,8.53-5.89,8.53-5.89l.89.72c4.73,3.72,5.55-5.78,10.59-1.62"/>
  <path class="st2" d="M98.03,131.43c1,.43,2.34.83,3.42,1.03-.26-.26-.57-.55-.85-.78-2.82-2.31-3.23-3.18-3.23-3.18,0,0,2.63,1,2.97.96.12-.02-2.66-2.59-3.19-2.48-.24,4.97.13,10.73.61,15.69l-1.44-2.34c-1.92-14.14-1.11-27.18,3.51-40.35,9.08-25.89,30.69-45,56.88-52.69,16.48-4.83,37.17-4.08,53.33,2.2,1.18.46,4.24,1.82,4.74,2.04,17.65,7.75,34.19,23.75,42.17,41.31,12.61,27.75,10.09,64.41-9.68,88.21-11.2,13.49-26.16,25.51-43.92,28.47-.89.15-6.07.64-6.51.68-5.65.48-12.51-.7-18.05-2.14-5.3-1.39-9.27-3.64-13.64-6.77-10.18-7.28-14.34-17.65-20.68-27.91-2.1-3.39-6.62-10.59-11.49-8.54-1.6.67-2.02,1.79-3.15,2.84-.55.51-.76.68-1.54.49-.8-.2-1.39-1.15-2.15-1.72-1.55,1.72-2.41,3.15-4.17,4.34-6.13,4.16-16.99.61-19.21-6.57-1.71-5.52.51-8.55-4.45-13.83-.11-.11-.25-.31-.25-.31,0,0,3.3.72,3.87.77,1.57.16,6.88.36,9.99-1.76,6.47-4.4,5.57-8.67,5.57-8.67,0,0-1.26.56-1.79.75-6.52,2.32-12.64-1.61-16.79-6.27-.04-.05-.62-.75-.26-.61,1.23.3,2.42,1.08,3.72.85-1.4-.98-2.87-1.95-3.99-3.25-.06-.07-.34-.45-.34-.45M114.24,103.04l2.22.52-2.48-1.76c-.53,1.48-1.27,2.88-1.85,4.35-.89,2.27-1.91,4.84-2.42,7.23-.24,1.12-.29,1.68-.54,3.17-.33-1.14-.32-2.5-.2-3.7.69-6.42,4.21-15.04,7.2-20.79.64-1.24,1.53-2.54,2.24-3.76.23-.46-.45-.66-.82-.17-.2.27-1.79,2.51-2.1,2.99-2.31,3.64-4.36,7.55-6.13,11.48-.79,1.74-1.44,3.56-2.17,5.33-.34.33-.27-.71-.26-.85.18-3.26,1.82-7.85,3.04-10.92,4.35-11,15.26-23.52,25.02-30.15,15.92-10.82,33.22-15.79,52.48-14.03,9.16.84,18.63,3.61,26.77,7.8.27.09,1.79-.42,1.86-.56.1-.21-.14-.21-.24-.27-1.83-1.1-4.7-2.26-6.73-3.06-19.76-7.8-43.03-7.28-62.33,1.72-10.15,4.73-18.31,10.99-25.52,19.35-1.07,1.24-2.38,2.59-3.47,3.9-9.62,11.51-14.44,24.87-16.89,39.43-.1.58-.24,2.11-.64,1.87-.39-.04-.31-2.74-.24-4.09.69-14.49,9.17-31.64,18.7-42.35,19.97-22.44,48.87-32.03,78.48-25.92,6.62,1.37,15.64,4.43,21.4,7.95.17.1.21.34.31.37.48.12,1.66-.43,2.25-.27-.93-.8-2.23-1.48-3.34-2.07-16.33-8.54-33.22-10.89-51.38-8.25-8.8,1.28-17.83,4.72-25.73,8.7-11.04,5.56-21.8,15.76-28.95,25.84-7.86,11.09-12.3,24.01-14.21,37.45-.12,1.19-.62,1.98.85,2.86,3.32,2,8.4,2.69,13.13,1.84,6.36-1.13,14.78-3.77,17.48-4.94.79-.34,1.62-.6,2.41-.91v-3.04l-5.49-.53c-4.15-.35-8.23-2.99-9.99-5.08-.18-.22-.36-.58-.37-.87.98.3,2.87,1.04,2.87,1.04l-4.37-4.83,4.56,2.02-4.43-4.05ZM133.76,71.89s1.09-1.04,1.54-1.39c12.37-9.59,27.89-14.97,43.58-14.96,8.95,0,18.31,1.3,26.65,4.58.71.28,2.85,1.43,3.34,1.5.25.03,1.82-.42,1.75-.72-3.09-1.59-6.55-2.85-9.91-3.79-7.52-2.1-15.24-2.92-23.03-2.67-16.77.54-32.78,5.57-45.67,17.14l-1.24,1.08,2.99-.77ZM194.58,59.54c-17.66-3.64-37.93-.4-52.92,9.65-.36.24-2.89,1.85-2.9,2.03l1.79.1c1.03-.34,3.38-2.14,4.51-2.79,13.94-8.04,30.9-10.94,46.83-8.44.49.08,2.23.39,2.23.39,0,0,.67.14.79-.25.16-.52-.21-.65-.34-.67M205.01,63.06c.05-.23-.06-.26-.22-.36-.22-.13-1.07-.42-1.4-.55-1.76-.69-3.59-1.23-5.42-1.69.5.45,1.52,1.48,1.52,1.48,0,0,1.32.35,2.42.65,1.11.3,3.09.89,3.11.48M164.23,77.45s-.33,3.07-.31,4.39c.6-.53,1.59-2.03,1.59-2.03,0,0,.01,3.14-.02,3.99l1.63-2.75s.21,5.15,2.05,9.54c1.62,3.85,4.91,6.68,5.05,6.52-.1-5.49.01-12.4-3.72-16.83-.67-.79-2.58-2.54-3.41-3.04-2.92-1.76-6-1.82-6-1.82l3.74-1.47-4.04-.98,2.61-1.43-4.04-.66,3.91-1.04s-3.27-.57-3.91-.72l4.56-1.69c-1.33-.19-2.12-.53-3.91-.52,1.03-.47,2.07-1.05,3.13-1.43,5.38-1.94,13.01-3.28,18.37-.77,1.81.85,3.54,2.26,4.97,3.64.71.63,1.51-.41,2.15-1.09,1.16-1.22,1.52-1.57,2.43-2.76.52-.68,1.15-1.32,0-1.53-7.34-1.34-17.68-.98-24.99.5-6.99,1.41-13.56,4.1-19.82,7.45l-2.13,1.2c1.16.48,2.76,1,3.89,1.55,1.73.83,5.54,2.42,6.33,4.13,1.62,3.52-1.36,7.52-3.83,9.91-.36.35-2.14,1.91-2.14,1.91,0,0,2.1-1.08,4.7-.94,1.93.11,3.1,1.02,3.18,1,.2-.04.49-1.14.56-1.4.31-1.2.47-2.52.86-3.71.36-1.13,1.2-3.05,1.45-4.22.12-.12,0,2.61.07,3.21.02.15-.06.65.07.65.19-.13,2.47-5.61,2.47-5.61-.11,1.01-.17,3.31-.06,3.52.46.1,2.52-4.65,2.52-4.65M191.19,73.37c.02-.87.4-2.13-1.47-3.9-1.03-.97-2.06-.81-2.76-.73,0,0,1.16,1.11,1.32,1.27,2.42,2.51,2.91,3.35,2.91,3.35M220.87,72.09c.49-.53-.99-1.57-1.83-2.09-1.14-.7-2.28-1.4-2.66-.9-.11.19.05.37.2.47,1.02.73,1.66,1.04,2.64,1.68.17.11,1.5,1.06,1.66.84M237.37,70.07c-.22-.22-.72-.91-1.33-.31-.51.5.04.97.04.97,0,0,2.75,2.29,5.6,5.68,5.44,6.46,10.09,13.64,13.34,21.49,8.91,21.51,7.92,48.04-2.97,68.52-3.17,5.97-6.62,11.22-11.03,16.35-.84.88-.06,1.48.41,1.11.16-.13,2.4-2.49,2.69-2.84,7.46-8.95,13.46-21.74,16.1-33.08,2.63-11.3,3.21-23.18.94-34.68-1.95-9.9-5.66-18.15-10.45-26.85-3.47-6.31-8.34-11.33-13.34-16.36M215.05,72.32l-3.1-2.1s-8.02,2.67-10.99,3.86l-.38,3.11.29.19c2.62-1.22,5.37-2.43,8.11-3.38,1.97-.68,6.07-1.69,6.07-1.69M235.36,73.41s-.71-.78-1.17-.3c-.28.29.13.72.2.78,9.06,7.78,16.62,21.81,19.99,33.26.75,2.54,1.25,5.88,2.12,8.19.22.58.93.65.86-.29-.26-3.6-1.89-8.36-2.97-11.3-3.85-10.48-10.5-23.09-19.03-30.35M240.28,84.67c-1.72-2.44-4.86-6.57-7.4-8.34-.21-.15-.56-.5-.86-.16-.6.66.53,1.35,1.31,2.09,8.09,7.66,14.63,20.24,17.77,30.88.22.74,1.16,4.42,1.26,4.74.16.47.93.11.86-.35-.23-1.59-.43-2.48-.79-3.9-2.3-8.92-6.88-17.51-12.14-24.97M124.02,79.76c-.44-.23-.94.54-1.39,1.08-.57.69-1.12,1.38-1.65,2.08-.79,1.04-1.54,2.1-2.24,3.21-.13.2-.44.62-.1.74.31.11.61-.15.78-.36,1.6-1.93,3.96-5.1,3.96-5.1,0,0,1.04-1.42.63-1.65M200.32,88.11s3.17-1.32,9.63-3.26c6.46-1.95,10.37-2.5,10.37-2.5l.35-2.58s-7.44,1.53-10.91,2.6c-2.26.7-9.17,2.95-9.17,2.95l-.27,2.8ZM237.8,88.45c-1.3-1.83-2.43-3.79-3.96-5.5-.55-.62-1.24-1.67-1.65-1.46-.74.46,1.29,2.55,2.22,3.76,2.87,3.69,5.36,7.78,7.53,11.9,3.26,6.17,5.43,12.74,6.72,19.63l1.47,2.12c-.08-.88-.16-1.77-.3-2.64-1.58-10.48-6.04-19.31-12.05-27.8M190.93,83.15c-.24-.24-3.47,2-4.01,2.31-.32.19-1.06.71-1.06.71l-.28,5.33c.18,0,2.03-1.97,2.48-2.67,1.12-1.73,2.02-3.8,2.87-5.68M118.25,98.54c.22-2.6,2.37-6.66,3.7-8.78.17-.27,1.06-1.32,1.15-1.47.43-.72-.47-.89-1.03-.37-.36.34-1.68,1.85-3.38,4.4-1.25,1.86-3.15,6.29-3.15,6.29,0,0,2.54,2.25,10.15.89,3.08-.55,5.89-1.83,5.89-2.32.01-2.4-1.77-5.93-3.59-7.5-.32-.27-1.12-1.24-1.52-1.05-1.25,1.36-2.97,2.96-4.15,4.39-.68.83-3,4.01-4.07,5.54M244.92,113.68s-.51-3.74-1.01-5.4c-.74-2.46-2.52-6.95-4.36-10.23-2.1-3.75-4.22-6.15-4.22-6.15,0,0-2.18,2.4-2.15,2.54,2.01,1.54,4.3,2.79,5.87,4.83,1.97,2.56,1.15,4.92-.76,7.36-.35.45-1.7,1.87-3.12,2.07-1.42.19-2.16-.41-3.37-.75-1.58-.44-3.36-.7-4.99-.64l-1.2,3.11s7.67-1.09,11.33-.59c3.19.43,7.98,3.85,7.98,3.85M214.97,92.58s-10.21,2.63-11.52,3.1l1.23,4.04,9.9-2.5.39-4.64ZM228.27,94.4c.04-.23-3.55-1.47-3.83-1.46.32.3,1.53,1.94,1.53,1.94,0,0,1.77-.52,2.3-.48M116.13,100.5c-.18-.16-.96-.93-1.05-.91l-.46,1.1,2.28.98c.19-.13-.66-1.08-.77-1.18M193.01,99.85c-.25-.26-5.61,2.95-6.36,3.22l-.16.3c2.11.12,4.18-.32,6.24-.67l.28-2.85ZM156.1,103.89c-.14-.15-1.91,1.35-2.18,1.54-.53.38-1.32.99-1.82,1.31-1.49.94-3.25,1.65-4.71,2.66-.13.9-.2,1.68-.03,2.58l9.52-3.97c.33-.32-.28-1.72-.41-2.2-.16-.62-.29-1.28-.37-1.91M213.36,107.16l-5.99,1.45c.22,1.52.79,2.99.64,4.56l3.85-.65,1.49-5.35ZM173.45,112.9l-2.18,2.97s.08,1.14.05,1.64c-.03.55-.76,5.22-2.8,6.38-3.93,2.24-6.2-.13-7.3.23-6.67,2.16-15.07,3.94-15.07,3.94-.09.03-.19.09-.22.18-.12.4,1.27,1.5,1.4,2.11.13.58-.03,1.37.16,1.99l11.53-4.06c.48-.35.06-1.37.07-1.88,0-.2-.03-.23.2-.2.16.02,1.58.57,1.81.67,1.54.7,4.6,2.87,5.85,4.03.57.53,1.02,1.29,1.53,1.76.09.09.26.29.39.19.09-.06.73-1.72.82-1.98.92-2.56,1.78-5.91,2.38-8.58.69-3.09,1.37-9.39,1.37-9.39M194.47,112.81s-2.9,3.15-6.34,3.27c-1.45.05-3.01-.86-4.24-1.49l-.65,5.87c4.35-1.62,8.64-3.49,13.17-4.57-.22-.76-1.94-3.08-1.94-3.08M250.69,128.19c.04-.06-.05-3.97-.16-5.25-.48.38-.87,1.58-1.05,2.15-.28.88-.63,3.12-.11,3.18.49.07,1.28-.02,1.32-.08M97.28,124.12l.13,1.91s1.72.61,2.87.7l-3-2.61ZM217.54,134.55c.89-.36,2-.9,2.23-1.18-.94-2.29-1.63-3.96-2.37-5.93-.52-1.37-.79-3.2-.91-3.36l-4.44.44s2.08,2.01,3.02,2.78l2.38,2.2c-.1,1.28-.14,4.62.09,5.05M247.25,129.01c-.89.25-1.59.46-2.17.59-3.54.83-4.31-.02-7.29-1.42-3.52-1.66-6.3-2.81-10.19-3.38-.7-.1-2.12-.23-2.12-.23,0,0,.44.61.62.84,1.86,2.43,4.53,5.53,6.68,7.52,3.37,3.1,8.84,6.49,12.47,1.72,1.29-1.7,1.74-3.56,1.99-5.63M204.36,126.07l-3.99,1.13s1.59,2.31,1.92,2.96c.57,1.11.86,2.13.74,3.4-.07.84-.97,4.52-.97,4.52l1.91,1.87s.38-6.74.39-9.5c0-1.46,0-4.38,0-4.38M195.49,128.94l-5.03,2.08,1.51,3.53s1.69-1.81,2.35-2.8c1.02-1.53,1.17-2.8,1.17-2.8M131.71,133.13l-5.6,2.67c-.77.53.56,1.18.97,1.62,2.69,2.87,3.08,6.56,2.94,10.38-.02.44-.37,3.07-.27,3.19l1.51-.69.45-17.17ZM162.62,143.81c-1.93.17-3.87.42-5.77.81-1.18.24-2.34.66-3.49.95-.91.23-5.95,1.75-5.95,1.75l-.16,2.53s2.15,1.16,3.91,2.45c1.32.96,2.64,2.06,2.64,2.06,0,0,3.24-2.11,5.22-4.44,2.41-2.84,3.63-6,3.6-6.11M217.63,149.33c.57-.82,2.73-3.78,1.23-4.05-.31-.06-1.34-.44-1.47.08-.24,1.02-.33,4.04-.12,4.11.05.07.22.06.36-.14M197.02,147.51c-.43-.18-.76.26-1.01.55-.44.52-.96,1.5-1.18,2.15.14.14,2.67-1.46,2.81-1.57.31-.22,0-.55-.09-.7-.02-.03-.5-.42-.53-.44M166.67,162.16c-.25.2-1.45,1.08-1.44,1.28,0,.22.56.56.75.69,11.72,8.03,26.92,18.08,41.72,16.78,8.12-.71,15.03-2.73,23.63-9.02,3.73-2.73,8.42-11.11,8.38-11.39-3.81-2.93-6.32-4.6-8.03-6.45-1.41-1.53-2.51-3.37-3.84-4.98-.25-.13-2.03,1.02-2.22,1.31-.08.13-.17.21-.12.38.07.23,1.45,1.04,1.74,1.28,3.49,2.91,10.7,9.04,6.86,14-1.83,2.36-6.14,4.5-8.86,5.75-2.44,1.12-4.88,2.01-7.57,2.28.51-.56,1.23-1.04,1.76-1.56.15-.15.36-.28.32-.52-1.12-.08-2.15.42-3.27.45-.75,2.2-1.3,4.48-3.44,5.73-.22.13-1.41.82-2.05.85-1.75.1-2.52-.43-2.95-.62-4.72-2.13-7.26-6.25-7.32-11.28-.02-2.02.76-3.87,1.32-5.74.36-1.2.66-2.39.88-3.62-.31-.28-1.3,1.08-1.49,1.31-1.42,1.68-2.83,3.46-4.12,5.28-1.19,1.68-2.24,4.1-3.99,5.26-2.94,1.95-8.22-.39-8.66-3.95-.18-1.47.33-2.94.53-4.37-1.02.21-1.79.8-2.84,1.01-1.8.36-2.56.15-4.16-.59-1.62-.76-3.07-1.84-4.4-3.02-.42.46-1.09,1.38-1.94,2.3-.73.78-1.93,1.94-2.78,2.5-.12.08-.84.52-.9.54-.25.1-.22-.13-.17-.3,0,0,.85-2.18.68-2.44-.3-.49-1.79.7-2.01.87M217.86,157.38c-.25-.25-.83-.92-.78,0l.07,6c-.02.31.38-.17.52-.32,1.65-1.71,2.2-3.28.61-5.24-.09-.11-.33-.35-.42-.44M252.62,158.33c-.99-.32-2.64,3.9-3.15,4.97-1.81,3.82-3.78,7.52-6.3,10.92-.71.94-.03,1.42.32,1.15,1.57-1.18,7.07-10.35,8.93-14.86.16-.39.98-1.92.2-2.18M162.49,158.69c-.46-.25-2.72.92-2.35,1.24,1.08,1,1.09.81,1.9-.2.21-.27.65-.87.45-1.04M165.62,160.64c-.4-.22-1.86.9-2.19,1.22-.12.12-.43.35-.16.47.24.22,1.09.86,1.29.51.06-.11,1.36-2.03,1.06-2.2M247.53,160.64c.23-.57-.33-.96-.86-.14-1.46,2.84-3.27,6.05-4.91,8.79,0,0-.47.76-.26,1.02.19.23.53.05.62,0,1-.65,3.37-5.13,4.02-6.41.21-.41,1.56-3.07,1.38-3.24M243.1,160.9c-.26-.26-.58-.34-.82.02-.22.34-1.23,2.2-1.5,2.67-.36.64-1.45,2.32-1.57,2.95-.09.46.25.57.56.37.27-.18,2.21-3.28,2.51-3.86.33-.64,1.06-1.91.82-2.15"/>
  <path class="st0" d="M101.53,159.92l-1.02-1.91c-.95-2.1-1.64-4.38-2.24-6.86.28.12,1.63,1.83,2.35,3.53.68,1.62.9,3.5.92,5.24"/>
  <path class="st0" d="M97.93,131.97c.81.73,1.64,1.54,2.22,1.91.18.11,1.11.71,1.13.87-.21.21-3.34-1.39-3.34-1.39v-1.38Z"/>
  <path class="st0" d="M100.12,131.65c-1.18-.16-2.2-.86-2.2-.86-.11-.39-.18-1.04-.18-1.04,0,0,2.06,1.63,2.38,1.9"/>
  <path class="st0" d="M98.14,134.74c.35.42.94,1.06,1.3,1.42,1.66,1.6,3.94,3.67,5.84,4.8,1.3.78,2.75,1.35,4.41,1.59,1.63.24,3.94.15,5.53-.45.52-.19,1.57-.58,1.57-.58,0,0-.59,2.01-1.13,2.84-3.83,5.85-13.15,6.53-17.69,4.58-.13-.05-.68-1.62-.98-3.01-.45-2.08-.67-3.98-.67-4.38.55,1.12,1.56,2.07,2,2.8"/>
  <path class="st1" d="M219.42,169.75c.39.41-2.87,2.35-2.87,2.35.18-.88.26-1.36.29-1.4.16-.23,2.39-1.13,2.58-.94"/>
  <path class="st0" d="M106.65,110.69c.48-.72,5.07-11.05,5.19-11.1,0,0-4.7,11.03-3.21,16.89.07.26.53,1.66.71,1.76,0,0,1.05-5.96,2.14-8.82,1.09-2.87,1.8-4.21,1.8-4.21l3.17,3.48s-1.75-.6-1.72-.39c.46,2.87,4.98,5.53,7.15,6.26,2.74.93,8.69,1.24,8.69,1.24l.2,2.11s-2.52,1.15-3.82,1.62c-2.41.87-5.16,1.55-7.84,2.3-5.91,1.65-11.96,2.81-16.7,1.36-.29-.09-.74-.33-.75-.78.28-2,1.15-7.62,2.55-13,.43-1.65,3.34-10.02,3.34-10.02,0,0-1.95,8.92-.91,11.29"/>
  <path class="st0" d="M100.5,109.42c-.16,1.29-.47,2.57-.63,3.86-.23,1.77-.72,5.61-.63,7.33.03.52,0,.86-.47.86-.74,0-.69-.45-.63-1.36.15-2.27,1.19-8.19,2.03-10.3.06-.16.13-.36.32-.39"/>
  <path class="st0" d="M202.4,174.48c.45.6.64.96,1.12,1.45,1.73,1.77,2.17,2.11,4.42,3.13.13.06,1.07.42,1.05.43-.23.2-2.92.31-3.68.34-1.06.04-3.57,0-6.92-.75-.54-.12-5.21-1.2-11.38-3.82-3.36-1.43-18.02-9.74-17.89-10.43.03-.16,3.83-2.85,5.14-4.78.23-.33,4.05,2.94,5.52,3.33,1.63.44,2.96-.53,4.48-.97-1.79,5.32,1.66,7.13,1.9,7.32.79.62,2.41,1.45,4.02,1.5,5.35.18,6.61-4.28,8.26-6.55.17-.23,2.53-4.42,3.41-5.06-.5,1.95-1.11,3.84-1.54,5.5-.73,2.78.39,7.09,2.09,9.37"/>
  <path class="st0" d="M235.26,158.18c1.01.93,2.35,1.77,3.54,2.46-.09.08-2.11,4.84-5.74,8.41-3.97,3.9-12.15,8.33-17.61,9.41-.18.03-2.53.69-2.18.16.06-.09,1.25-.57,2.21-2.21.5-.85,1.05-2.35,1.33-3.54.85-.2,1.75-.41,1.68-.08-.05.24-2.12,1.65-1.38,1.87,1.34.09,2.9-.17,4.16-.55,2.98-.9,6.41-2.41,9.03-4.09,1.7-1.1,3.21-2.22,4.05-3.25.84-1.03,2.95-3.02.61-7.68-.18-.36-.88-1.46-.93-1.71-.1-.51,1.09.68,1.22.8"/>
  <path class="st0" d="M227.57,149.73c.11.13,2.71,3.46,2.73,4-1.58-1.34-3.03-2.35-3.97-3.07-.31-.29,1.03-1.18,1.24-.93"/>
  <path class="st0" d="M168.16,161.91l-.73,2.22c-.47-.12-1.54-.83-1.34-1.04.14-.15,2.3-1.82,2.08-1.18"/>
  <path class="st0" d="M160.09,66.25c-.8.64-1.47,1.19-1.47,1.19l2.61.07-3.18,1.72,2.53.68-2.76,1.22c.8.25,3.54.76,3.54.76,0,0-1.72,1.05-2.39,1.4-.13.07,3.6.8,3.6.8,0,0-2.92,1.62-2.86,1.86.3.04,1.39.1,2.31.28.98.18,1.99.44,1.99.44l-1.57,2.98c-.11-.53-.32-2.48-.32-2.48,0,0-2.03,3.48-2.45,4.75-.2-.42.13-3.53-.1-3.5-.55,1.01-1.6,3.7-2.09,5.2-.54,1.65-.88,3.41-1.39,5.07-1.15-.82-3.02-1.18-5.01-.71.92-.86,1.93-2.1,2.47-2.84,1.56-2.12,3.15-5.98,1.28-8.3-1.38-1.71-8.17-4.41-8.74-4.68.15-.17,3.6-1.45,4.68-2,2.84-1.43,5.34-3.17,8.56-3.84.16-.03.86-.11.79-.06"/>
  <path class="st0" d="M173.72,95.83s-2.43-2.24-4.02-5.79c-.87-1.94-1.55-5.75-1.79-7.16-.17-1.05-.53-3.18-.53-3.18l-1.46,2.22.17-3.23-1.46,1.33.08-3.03s3.47,1.34,5.45,4.28c.87,1.28,2.07,3.78,2.66,6.49.85,3.91.91,8.08.91,8.08"/>
  <path class="st0" d="M186.31,67.15c-1.59-1.66-4.88-3.26-7.09-3.86-.46-.13-1.45-.69-.29-.69,3.95.18,7.82.4,11.73.97.45.02-.35.83-.48,1-.42.56-2.19,2.57-2.68,2.89-.61.39-.91,0-1.2-.31"/>
  <path class="st0" d="M172.47,115.16s.32,3.73-1.73,10.36c-.8,2.58-2.07,5.87-2.07,5.87,0,0-4.16-3.78-6.32-4.86-.58-.29-1.38-.6-2-.8l1.37-.26c1.9.55,3.8.63,5.67-.07,2.94-1.09,3.94-4.08,4.31-7.06.08-.6.07-2.45.07-2.45l.69-.74Z"/>
  <path class="st0" d="M158.41,127.94s-9.81,3.63-9.84,3.45c-.07-.36.03-1.1-.16-1.47-.13-.26-.72-.86-.84-1.12-.09-.21.58-.38.75-.42,3.9-.73,9.76-2.61,9.89-2.62.08,0,.19,2.17.19,2.17"/>
  <path class="st0" d="M244.08,112.43c-.04.06-1.4-1.11-3.14-2.02-1.57-.82-4.05-1.39-4.16-1.39-.03-.11,1.66-1.46,2.75-2.91,1.16-1.53,1.28-3.66,1.28-3.66,0,0,1.28,2.33,2.02,4.49.71,2.07,1.05,4.5,1.25,5.48"/>
  <path class="st0" d="M232.8,109.1l-5.97.51.74-1.68s1.51.07,2.16.15c1.62.2,3.11.81,3.07,1.02"/>
  <path class="st0" d="M236.83,94.64c.56.77,1.22,1.83,1.38,2.81-1.96-1.83-4.25-3.2-4.25-3.2l1.32-1.4s1.29,1.44,1.55,1.79"/>
  <path class="st0" d="M246.4,130.06c-.08.91-.42,1.72-.78,2.57-.78,1.82-3.26,3.82-5.35,3.52-3.37-.48-5.93-3.48-8.27-5.69-.94-.89-4.11-4.16-4.74-4.85,3.3.31,6.59,1.51,9.61,2.84.58.25,1.37.66,2.26,1.03.23.09,1.71.81,2.05.92.43.14,1.44.35,1.9.34.94-.02,1.9-.1,3.31-.69"/>
  <path class="st0" d="M195.39,115.51c-4.08,1.29-7.81,2.6-10.91,3.84.19-1,.22-2.01.39-3.39,2.03,1.09,3.53,1.33,5.7.42,2.53-1.07,3.82-2.58,3.82-2.58,0,0,.83.92,1,1.71"/>
  <path class="st0" d="M131.16,134.25c.15-.23-.22,10.44-.22,10.44,0,0-.35-2.2-.67-3.41-.12-.48-.82-2.2-1.47-2.99-.34-.42-1.82-1.96-1.82-1.96,0,0,4.03-1.85,4.18-2.08"/>
  <path class="st0" d="M131,149.7l-1,.41c.14-.67.39-1.05.78-3.35l.22,2.93Z"/>
  <path class="st0" d="M216.09,124.75s1.14,3.23.98,3.41c-.18.11-3.72-3.1-3.6-3.11.91-.1,2.56-.35,2.62-.29"/>
  <path class="st0" d="M219.16,133.25s-1.2.5-1.2.45c-.05-.89-.11-1.87.03-2.79.41.49.98,1.99,1.17,2.34"/>
  <path class="st0" d="M218.83,145.73c.54.13-.81,3.02-1.29,2.91-.16-.04-.14-2.66.22-3.05.11-.12.89.1,1.07.14"/>
  <path class="st0" d="M130.46,96.76s-2.05,1.4-4.37,1.94c-2.92.68-6.46.17-6.46.17,0,0,2.2-3.4,2.87-4.41.67-1.01,4.19-4.68,4.19-4.68,0,0,1.6,1.87,2.11,2.8.5.93,1.66,4.18,1.66,4.18"/>
  <path class="st0" d="M99.49,126.37c-.99-.14-1.84-.72-1.84-.72-.09-.32-.15-.87-.15-.87,0,0,1.72,1.36,1.99,1.59"/>
  <path class="st1" d="M219.73,167.73c.39.41-2.87,2.35-2.87,2.35.18-.88.26-1.36.29-1.4.16-.23,2.39-1.13,2.58-.94"/>
  <path class="st0" d="M196.85,147.9c-.27-.11-.48.16-.63.35-.28.33-.6.94-.74,1.35.09.09,1.68-.92,1.77-.98.19-.14,0-.34-.06-.44-.01-.02-.32-.27-.34-.27"/>
  <path class="st0" d="M217.95,158.36c-.17-.17-.57-.63-.53,0l.04,4.11c-.02.21.26-.12.36-.22,1.13-1.17,1.51-2.24.42-3.58-.06-.08-.23-.24-.29-.3"/>
  <path class="st0" d="M201.74,127.44s1.77-.74,1.77-.66c.07,1.31.34,2.46.21,4.25-.55-1.22-1.7-3.06-1.99-3.58"/>
  <path class="st0" d="M202.58,137.62c.37-1.26.41-1.13.97-3.15.11,1.33-.04,3.45.05,4.04"/>
  <path class="st0" d="M194.6,129.83l-3.44,1.43,1.03,2.41s1.15-1.24,1.61-1.92c.7-1.05.8-1.92.8-1.92"/>
  <path class="st1" d="M178.43,147.02l4.52-3.03-2.17-3.16s-.39,1.67-.85,2.78c-.7,1.7-1.5,3.41-1.5,3.41"/>
  <path class="st0" d="M179.27,145.96l3.11-2.09-1.5-2.18s-.27,1.15-.59,1.92c-.48,1.17-1.03,2.35-1.03,2.35"/>
  <path class="st0" d="M160.6,145.05c-1.48.13-2.96.32-4.42.62-.9.19-1.79.5-2.67.73-.7.18-4.55,1.34-4.55,1.34l-.12,1.94s1.64.89,2.99,1.87c1.01.74,2.02,1.57,2.02,1.57,0,0,2.48-1.61,4-3.4,1.84-2.17,2.78-4.6,2.76-4.68"/>
  <path class="st0" d="M212.26,108.15l-4.15,1c.15,1.05.54,2.07.44,3.15l2.67-.45,1.03-3.71Z"/>
  <path class="st0" d="M213.69,93.79s-7.74,2.02-8.68,2.37l.9,2.61,7.51-1.93.28-3.04Z"/>
  <path class="st0" d="M189.75,84.64c-.15-.16-2.24,1.29-2.58,1.49-.21.12-.68.45-.68.45l-.18,3.43c.12,0,1.3-1.27,1.6-1.72.72-1.11,1.3-2.45,1.84-3.65"/>
  <path class="st0" d="M192.18,100.67c-.16-.16-3.59,1.88-4.06,2.06l-.1.19c1.35.08,2.67-.2,3.99-.43l.18-1.82Z"/>
  <path class="st0" d="M154.79,105.31c-.1-.1-1.33.94-1.52,1.08-.37.27-.92.69-1.27.91-1.04.66-2.27,1.15-3.29,1.86-.09.63-.14,1.17-.02,1.8l6.66-2.78c.23-.23-.2-1.2-.29-1.54-.11-.43-.2-.89-.26-1.33"/>
  <path class="st0" d="M213.66,72.28l-2.08-1.41s-7.61,2.5-9.61,3.3l-.26,2.09.2.13c1.76-.82,3.61-1.64,5.44-2.27,1.33-.46,6.3-1.84,6.3-1.84"/>
  <path class="st0" d="M201.19,87.33s2.25-.94,6.84-2.32c4.59-1.38,11.41-2.91,11.41-2.91l.25-1.57s-9.33,2.22-11.8,2.98c-1.61.5-6.51,2.09-6.51,2.09l-.19,1.72Z"/>
  <path class="st0" d="M119.76,91.92c-.29.7-.67,1.38-.97,2.08-.4.96-1.27,3.05-1.46,4.04-.06.3-.12.48-.43.41-.48-.12-.38-.37-.21-.87.42-1.26,1.95-4.43,2.8-5.48.06-.08.14-.18.27-.17"/>
</svg>