<?xml version="1.0" encoding="UTF-8"?>
<svg id="Layer_1" xmlns="http://www.w3.org/2000/svg" version="1.1" viewBox="0 0 360 251.75">
  <!-- Generator: Adobe Illustrator 30.2.1, SVG Export Plug-In . SVG Version: 2.1.1 Build 1)  -->
  <defs>
    <style>
      .st0 {
        fill: #fff;
      }

      .st1 {
        fill: #d62027;
      }
    </style>
  </defs>
  <g>
    <rect class="st1" x="25.45" y="83.65" width="306.39" height="91.02"/>
    <path class="st0" d="M330,85.49v87.34H27.29v-87.34h302.71M333.68,81.81H23.61v94.7h310.07v-94.7h0Z"/>
  </g>
  <path class="st0" d="M62.7,142.79c-.85-3.75-3.17-13.91-3.94-17.29l-3.33,6.16,3.05,18.92,24.98-3.9,5.73-10.59c-7.8,1.98-22.81,5.78-26.49,6.71"/>
  <path class="st0" d="M66.77,113.81l-4.58,5.64.78,16.92,28.43-4.26,7.87-9.7c-8.98,2.01-26.27,5.88-30.51,6.83-.43-3.35-1.6-12.42-1.99-15.43"/>
  <path class="st0" d="M70.67,122.84l32.63-3.73,9.8-8.54c-10.36,1.76-30.33,5.16-35.22,5.99-.19-2.95-.71-10.95-.88-13.6l-5.7,4.97-.63,14.92Z"/>
  <polygon class="st0" points="251.28 121.41 248.72 122.78 245.93 129.08 243.87 134.64 238.92 123.14 241.84 121.41 230.17 121.41 227.41 122.89 217.29 145.74 227.53 145.74 230.96 138 233.02 132.44 238.77 145.74 248.79 145.74 258.26 124.35 263.24 121.41 251.28 121.41"/>
  <polygon class="st0" points="212.66 121.41 210.16 122.75 199.97 145.74 210.67 145.74 220.17 124.3 225.06 121.41 212.66 121.41"/>
  <polygon class="st0" points="191.41 124.29 196.27 121.41 183.9 121.41 181.4 122.75 171.21 145.74 196.59 145.74 199.12 140.04 184.43 140.04 191.41 124.29"/>
  <polygon class="st0" points="135.22 121.41 122.15 137.56 123.64 121.41 112.86 121.41 113.18 145.74 123.92 145.74 142.94 124.83 148.66 121.41 135.22 121.41"/>
  <path class="st0" d="M300.63,120.74h-17.21c-.68-.05-1.4-.08-2.15-.08-10.15,0-19.3,4.99-22.7,12.66-3.68,8.31,1.05,13.07,11.3,13.07,9.65,0,19.21-4.68,22.9-13,.29-.66.52-1.32.7-1.97l2.36-7.83,4.81-2.85ZM282.07,133.39c-1.79,4.04-4.92,7.03-9.55,7.03-5.12,0-4.66-3.9-3.28-7.03,1.36-3.09,4.44-6.75,9.29-6.75,4.76-.1,5.01,3.43,3.54,6.75"/>
  <polygon class="st0" points="170.58 121.41 157.95 121.41 153.93 123.56 133.49 145.74 154.36 145.74 152.15 142.43 146.7 142.43 158.1 128.67 157.1 145.74 167.75 145.74 166.97 123.54 170.58 121.41"/>
  <path class="st0" d="M291.37,142.01c.18-.39.42-.73.72-1,.3-.28.65-.49,1.05-.64.4-.15.81-.23,1.25-.23s.85.08,1.25.23c.4.15.75.37,1.05.64.3.28.54.61.72,1,.18.39.27.83.27,1.32s-.09.93-.27,1.33c-.18.39-.42.73-.72,1.01-.3.28-.65.49-1.05.64-.4.15-.81.22-1.25.22s-.85-.07-1.25-.22c-.4-.15-.75-.36-1.05-.64-.3-.28-.54-.62-.72-1.01-.18-.39-.27-.84-.27-1.33s.09-.92.27-1.32M292.16,144.33c.13.31.3.57.51.8.22.23.47.4.77.53.3.13.61.19.95.19s.64-.06.94-.19c.29-.12.55-.3.77-.53.22-.23.39-.49.52-.8.13-.31.19-.64.19-1.01s-.06-.7-.19-1c-.13-.31-.3-.57-.52-.79-.21-.22-.47-.4-.77-.52-.29-.12-.61-.19-.94-.19s-.65.06-.95.19c-.29.12-.55.3-.77.52-.22.22-.39.49-.51.79-.13.31-.19.64-.19,1s.06.7.19,1.01M294.47,141.53c.45,0,.8.08,1.04.24.24.16.36.43.36.82,0,.17-.02.31-.07.42-.05.12-.12.21-.2.29-.09.07-.19.13-.3.17-.12.04-.24.07-.37.08l.96,1.57h-.75l-.87-1.53h-.45v1.53h-.71v-3.59h1.35ZM294.46,143.02c.2,0,.37-.03.51-.09.13-.06.2-.19.2-.41,0-.1-.02-.17-.07-.23-.05-.06-.1-.1-.18-.13-.07-.03-.15-.05-.24-.06-.09-.01-.17-.02-.25-.02h-.6v.94h.63Z"/>
</svg>