<?xml version="1.0" encoding="UTF-8"?>
<svg id="Layer_1" xmlns="http://www.w3.org/2000/svg" version="1.1" viewBox="0 0 360 251.75">
  <!-- Generator: Adobe Illustrator 30.2.1, SVG Export Plug-In . SVG Version: 2.1.1 Build 1)  -->
  <defs>
    <style>
      .st0 {
        fill: #fff;
      }
    </style>
  </defs>
  <path class="st0" d="M98.2,159.23c0,10.35-5.9,15.29-16.61,15.29h-48.99v-96.3h48.99c10.23,0,16.61,4.09,16.61,15.29v65.72ZM87.24,93.51c0-4.33-1.44-5.78-5.66-5.78h-38.04v77.28h38.04c4.21,0,5.66-1.44,5.66-5.78v-65.72ZM84.23,158.26c0,3.13-.6,3.73-3.85,3.73h-33.82v-71.26h33.94c3.01,0,3.73.6,3.73,3.73v63.8ZM73.28,152.37v-52h-15.77v52h15.77Z"/>
  <path class="st0" d="M171.62,174.51h-10.95v-32.62c0-7.22-3.61-10.23-7.34-10.71v-.24c4.57-.96,7.34-3.85,7.34-11.31v-27.08c0-3.37-2.05-4.81-5.06-4.81h-36.83v86.79h-10.95v-96.3h46.82c10.95,0,16.97,4.33,16.97,15.77v24.68c0,7.34-3.37,10.83-8.91,12.4v.24c5.3.6,8.91,3.97,8.91,11.31v31.9ZM157.66,120.83c0,5.78-4.33,8.79-9.87,8.79h-26v-38.88h32.74c2.41,0,3.13.6,3.13,3.37v26.72ZM157.66,174.51h-10.95v-32.38h-13.96v32.38h-10.95v-41.89h26c5.18,0,9.87,3.01,9.87,8.55v33.34ZM146.71,120.11v-19.74h-13.96v19.74h13.96Z"/>
  <path class="st0" d="M192.2,174.51h-10.95v-96.3h10.95v96.3ZM206.17,174.51h-10.95v-96.3h10.95v96.3Z"/>
  <path class="st0" d="M268.88,87.73h-42.13v86.79h-10.95v-96.3h53.08v9.51ZM268.88,129.5h-39.12v-38.76h39.12v9.63h-28.17v19.62h28.17v9.51ZM268.88,142.01h-28.17v32.5h-10.95v-42.01h39.12v9.51Z"/>
  <path class="st0" d="M340.5,87.73h-66.08v-9.51h66.08v9.51ZM305.95,174.51h-10.95v-74.15h-20.58v-9.63h31.54v83.78ZM340.5,100.37h-20.58v74.15h-10.95v-83.78h31.54v9.63Z"/>
  <path class="st0" d="M210.75,198.98v-12.99c-.13-.21-.26-.38-.37-.51-.12-.13-.2-.22-.26-.28h-23.7c-.13.08-.29.34-.47.79v12.99h-5.16v-14.13c0-3.31,1.1-4.96,3.31-4.96h28.23c2.34,0,3.5,1.65,3.5,4.96v14.13h-5.08Z"/>
  <path class="st0" d="M253.86,193.66h9.21l.75-.83v-12.95h5.08v14.13c0,3.31-1.17,4.96-3.5,4.96h-28.23c-2.2,0-3.31-1.65-3.31-4.96v-14.13h5.16v13.03c.21.47.37.72.47.75h9.25v-13.78l5.12.04v13.74Z"/>
  <path class="st0" d="M322.01,198.98h-5.28v-7.2h-24.8v7.2h-5v-14.96c.03-2.7,1.44-4.05,4.25-4.05h27.01c2.55,0,3.82,1.44,3.82,4.33v14.68ZM292.24,185.36c-.05,0-.16.17-.31.51v2.34h24.84v-2.3c-.18-.29-.31-.47-.39-.55h-24.13Z"/>
  <path class="st0" d="M98.2,159.23c0,10.35-5.9,15.29-16.61,15.29h-48.99v-96.3h48.99c10.23,0,16.61,4.09,16.61,15.29v65.72ZM87.24,93.51c0-4.33-1.44-5.78-5.66-5.78h-38.04v77.28h38.04c4.21,0,5.66-1.44,5.66-5.78v-65.72ZM84.23,158.26c0,3.13-.6,3.73-3.85,3.73h-33.82v-71.26h33.94c3.01,0,3.73.6,3.73,3.73v63.8ZM73.28,152.37v-52h-15.77v52h15.77Z"/>
  <path class="st0" d="M171.62,174.51h-10.95v-32.62c0-7.22-3.61-10.23-7.34-10.71v-.24c4.57-.96,7.34-3.85,7.34-11.31v-27.08c0-3.37-2.05-4.81-5.06-4.81h-36.83v86.79h-10.95v-96.3h46.82c10.95,0,16.97,4.33,16.97,15.77v24.68c0,7.34-3.37,10.83-8.91,12.4v.24c5.3.6,8.91,3.97,8.91,11.31v31.9ZM157.66,120.83c0,5.78-4.33,8.79-9.87,8.79h-26v-38.88h32.74c2.41,0,3.13.6,3.13,3.37v26.72ZM157.66,174.51h-10.95v-32.38h-13.96v32.38h-10.95v-41.89h26c5.18,0,9.87,3.01,9.87,8.55v33.34ZM146.71,120.11v-19.74h-13.96v19.74h13.96Z"/>
  <path class="st0" d="M192.2,174.51h-10.95v-96.3h10.95v96.3ZM206.17,174.51h-10.95v-96.3h10.95v96.3Z"/>
  <path class="st0" d="M268.88,87.73h-42.13v86.79h-10.95v-96.3h53.08v9.51ZM268.88,129.5h-39.12v-38.76h39.12v9.63h-28.17v19.62h28.17v9.51ZM268.88,142.01h-28.17v32.5h-10.95v-42.01h39.12v9.51Z"/>
  <path class="st0" d="M340.5,87.73h-66.08v-9.51h66.08v9.51ZM305.95,174.51h-10.95v-74.15h-20.58v-9.63h31.54v83.78ZM340.5,100.37h-20.58v74.15h-10.95v-83.78h31.54v9.63Z"/>
  <path class="st0" d="M210.75,198.98v-12.99c-.13-.21-.26-.38-.37-.51-.12-.13-.2-.22-.26-.28h-23.7c-.13.08-.29.34-.47.79v12.99h-5.16v-14.13c0-3.31,1.1-4.96,3.31-4.96h28.23c2.34,0,3.5,1.65,3.5,4.96v14.13h-5.08Z"/>
  <path class="st0" d="M253.86,193.66h9.21l.75-.83v-12.95h5.08v14.13c0,3.31-1.17,4.96-3.5,4.96h-28.23c-2.2,0-3.31-1.65-3.31-4.96v-14.13h5.16v13.03c.21.47.37.72.47.75h9.25v-13.78l5.12.04v13.74Z"/>
  <path class="st0" d="M322.01,198.98h-5.28v-7.2h-24.8v7.2h-5v-14.96c.03-2.7,1.44-4.05,4.25-4.05h27.01c2.55,0,3.82,1.44,3.82,4.33v14.68ZM292.24,185.36c-.05,0-.16.17-.31.51v2.34h24.84v-2.3c-.18-.29-.31-.47-.39-.55h-24.13Z"/>
</svg>