<?xml version="1.0" encoding="UTF-8"?>
<svg id="Layer_1" xmlns="http://www.w3.org/2000/svg" version="1.1" viewBox="0 0 360 251.75">
  <!-- Generator: Adobe Illustrator 30.2.1, SVG Export Plug-In . SVG Version: 2.1.1 Build 1)  -->
  <defs>
    <style>
      .st0 {
        fill: #fff;
      }
    </style>
  </defs>
  <g>
    <path class="st0" d="M108.37,168.58h-53.53c-12.88,0-20.04-4.87-20.04-18.18v-77.57c0-13.6,7.16-18.75,20.18-18.75h43.36v11.31h-44.37c-3.58,0-6.15,1.72-6.15,5.72v79.14c0,5.15,1.57,7.01,7.73,7.01h39.79v-48.23h13.02v59.54ZM98.35,80.42h-33.92v61.83h14.31v-33.2h13.02v44.65h-36.21c-3.43,0-4.15-.86-4.15-4.01v-76.71c0-3.29,1-4.01,3.86-4.01h43.08v11.45Z"/>
    <path class="st0" d="M194.24,168.58h-13.02v-38.79c0-8.59-4.29-12.17-8.73-12.74v-.29c5.44-1.14,8.73-4.58,8.73-13.45v-32.2c0-4.01-2.43-5.72-6.01-5.72h-43.79v103.19h-13.02V54.09h55.67c13.02,0,20.18,5.15,20.18,18.75v29.34c0,8.73-4.01,12.88-10.59,14.74v.29c6.3.72,10.59,4.72,10.59,13.45v37.93ZM177.64,104.75c0,6.87-5.15,10.45-11.74,10.45h-30.91v-46.23h38.93c2.86,0,3.72.72,3.72,4.01v31.77ZM177.64,168.58h-13.02v-38.5h-16.6v38.5h-13.02v-49.81h30.91c6.15,0,11.74,3.58,11.74,10.16v39.64ZM164.62,103.89v-23.47h-16.6v23.47h16.6Z"/>
    <path class="st0" d="M218.71,168.58h-13.02V54.09h13.02v114.49ZM235.31,168.58h-13.02V54.09h13.02v114.49Z"/>
    <path class="st0" d="M324.62,121.92c0,13.6-7.16,18.61-20.18,18.61h-28.05v28.05h-13.02v-39.21h42.22c3.58,0,6.01-1.86,6.01-5.87v-52.38c0-4.01-2.43-5.72-6.01-5.72h-45.8v103.19h-13.02V54.09h57.68c13.02,0,20.18,5.15,20.18,18.75v49.09ZM308.02,121.64c0,3.29-.86,4.01-3.72,4.01h-40.93v-56.68h40.93c2.86,0,3.72.72,3.72,4.01v48.66ZM294.99,114.2v-33.78h-18.61v33.78h18.61Z"/>
  </g>
  <g>
    <path class="st0" d="M192.92,197.67v-15.45c-.16-.25-.3-.45-.44-.61-.14-.16-.24-.26-.3-.33h-28.18c-.16.09-.34.41-.56.94v15.45h-6.13v-16.8c0-3.93,1.31-5.9,3.93-5.9h33.56c2.78,0,4.17,1.97,4.17,5.9v16.8h-6.04Z"/>
    <path class="st0" d="M244.17,191.35h10.95l.89-.98v-15.4h6.04v16.8c0,3.93-1.39,5.9-4.17,5.9h-33.56c-2.62,0-3.93-1.97-3.93-5.9v-16.8h6.13v15.49c.25.56.44.86.56.89h11v-16.38l6.08.05v16.34Z"/>
    <path class="st0" d="M325.19,197.67h-6.27v-8.57h-29.49v8.57h-5.94v-17.79c.03-3.21,1.72-4.82,5.06-4.82h32.11c3.03,0,4.54,1.72,4.54,5.15v17.46ZM289.81,181.47c-.06,0-.19.2-.37.61v2.07h29.54v-2.02c-.22-.34-.37-.56-.47-.66h-28.69Z"/>
  </g>
</svg>