<?xml version="1.0" encoding="UTF-8"?>
<svg id="Layer_1" xmlns="http://www.w3.org/2000/svg" version="1.1" viewBox="0 0 360 251.75">
  <!-- Generator: Adobe Illustrator 30.2.1, SVG Export Plug-In . SVG Version: 2.1.1 Build 1)  -->
  <defs>
    <style>
      .st0 {
        fill: none;
      }

      .st1 {
        fill: #fff;
      }
    </style>
  </defs>
  <path class="st1" d="M88.13,148.72c.35-1.76.53-2.78.53-3.59.06-1.7-1.06-2.85-2.72-2.44-1.54.34-2.78,1.97-3.66,6.1l-.24,1.02h5.85l.24-1.09Z"/>
  <path class="st1" d="M58.55,133.4h-2.36l-2.42,11.25h2.36c.77,0,1.77-.34,2.72-.88,1-.68,1.77-1.7,2.3-3.25,1.77-4.95.77-7.12-2.6-7.12Z"/>
  <path class="st1" d="M288.87,81.79l-45.98-.15c-1.5,0-3.3,1.75-4.02,3.92l-7.84,23.57c-.72,2.17-.09,3.93,1.41,3.94l45.98.15c1.5,0,3.3-1.75,4.02-3.92l7.84-23.56c.72-2.17.09-3.93-1.41-3.94ZM286.95,87.97l-6.53,19.61c-.52,1.57,5.88-19.28,4.27-20.51-1.13-.86-30.92-2.25-30.92-2.25l32.17.3c1.08,0,1.54,1.28,1.02,2.84Z"/>
  <path class="st1" d="M270.55,145l-19.38-.06c-.63,0-1.39.74-1.7,1.65l-3.3,9.93c-.3.91-.04,1.66.6,1.66l19.38.06c.63,0,1.39-.74,1.7-1.65l3.3-9.93c.3-.91.04-1.66-.59-1.66ZM269.09,147.91l-2.01,6.04c-.12.36-.18.53-.14.42l.14-.42c.49-1.5,1.98-6.24,1.49-6.62-.43-.33-7.91-.62-7.91-.62l8.04.11c.41,0,.59.48.39,1.08Z"/>
  <path class="st1" d="M228.35,112.42l-23.99-.08c-.78,0-1.72.91-2.1,2.04l-4.09,12.29c-.38,1.13-.05,2.05.74,2.06l23.99.08c.78,0,1.72-.91,2.1-2.05l4.09-12.29c.38-1.13.05-2.05-.74-2.05ZM227.43,115.06l-2.01,6.04c-.12.36-.18.53-.14.42l.14-.42c.49-1.5,1.98-6.24,1.49-6.62-.43-.33-7.91-.62-7.91-.62l8.04.11c.41,0,.59.48.39,1.08Z"/>
  <path class="st1" d="M204.88,102.72l-14.29-.05c-.47,0-1.03.54-1.25,1.22l-2.44,7.33c-.22.67-.03,1.22.44,1.22l14.29.05c.47,0,1.03-.54,1.25-1.22l2.44-7.33c.23-.68.03-1.22-.44-1.22ZM203.72,104.56l-2.01,6.04c-.12.36-.18.53-.14.42l.14-.42c.49-1.5,1.98-6.24,1.49-6.62-.43-.33-7.91-.62-7.91-.62l8.04.11c.41,0,.59.48.39,1.08Z"/>
  <path class="st1" d="M331.7,113.59l-47.56-.15c-1.55,0-3.42,1.81-4.16,4.05l-8.11,24.38c-.74,2.24-.09,4.07,1.46,4.07l47.56.15c1.55,0,3.42-1.81,4.16-4.05l8.11-24.37c.75-2.25.09-4.07-1.46-4.07ZM329.34,119.26l-6.53,19.61c-.52,1.57,5.88-19.28,4.27-20.51-1.13-.86-30.92-2.25-30.92-2.25l32.17.3c1.08,0,1.54,1.28,1.02,2.84Z"/>
  <polygon class="st0" points="175.03 133.4 185.67 133.4 187.67 124.11 177.04 124.11 175.03 133.4"/>
  <path class="st0" d="M95.46,160.11h-9.93l-.3,1.49c-.31,1.56-.79,2.63-1.37,3.34h9.92c.23-.48.46-.99.67-1.51.41-1.08.77-2.17,1-3.32Z"/>
  <path class="st0" d="M163.68,162.21l3.84-17.63h4.2l1.77-8.27h-4.14l2.3-10.64h-10.64l-2.3,10.64h-3.9l-1.35,6.1c-.35-6.43-4.19-8.7-13.6-7.46-7.09.88-11.94,6.3-14.95,19.8-.89,4.1-1.23,7.48-1,10.19h11.19c-.33-.38-.55-.9-.61-1.51-.18-1.63,0-3.32,1.18-8.61,1.95-8.88,2.78-10.64,4.49-11.8,1.54-1.08,3.01-.34,3.37,1.08.18.68.18,1.15-.06,3.05-.06.47-.12.88-.24,1.29l-.24,1.36h9.75c.18-.61.3-1.15.35-1.76.19-1.24.3-2.39.36-3.46h3.42l-4.25,19.66c-.06.24-.1.47-.14.7h12.35c-1.07-.21-1.52-1.13-1.16-2.73Z"/>
  <path class="st0" d="M112.65,135.36c-6.8.61-11.64,5.42-12.82,12.14h9.75s.35-1.56.47-1.63c.65-2.3,1.6-3.19,2.95-3.32,2.19-.27,3.07,1.02,2.48,3.59-.41,1.97-1.12,2.98-3.43,3.53l-6.44,1.76c-.53.14-1.06.41-1.65.61-4.9,1.97-6.85,4.54-8.21,10.44-.19.85-.33,1.66-.42,2.46h25.96l4.01-18.26c1.89-8.75-1.18-12.41-12.65-11.32Z"/>
  <path class="st0" d="M79.39,162.35l1.3-5.9h15.6s.95-4.34,1.48-7.39c1.71-10.98-1.95-15.12-13.36-13.56-6.44.88-11.23,6.44-14.01,18.44-1.01,4.5-1.44,8.14-1.26,11.01h10.24c-.05-.16-.09-.32-.12-.5-.06-.61,0-1.29.12-2.1Z"/>
  <polygon class="st0" points="174.44 136.31 168.2 164.95 178.83 164.95 185.07 136.31 174.44 136.31"/>
  <path class="st0" d="M239.92,143.84c1-6.17-1.65-9.76-8.57-8.34-2.25.47-4.08,1.49-5.79,3.39-.35.34-.65.68-.95,1.09l.77-3.66h-10.16l-6.24,28.63h10.63l3.59-16.57c.06-.27.12-.54.24-.75.59-1.97,1.54-2.98,2.84-3.19,1.77-.41,2.54.54,2.25,2.92-.06.27-.06.54-.12.81l-3.64,16.77h10.63l4.13-19.07c.18-.68.3-1.36.41-2.03Z"/>
  <path class="st0" d="M210.12,152.11c2.42-13.83-.35-17.83-12.47-16.88-7.21.54-11.11,4.88-14.18,16.41-1.51,5.7-2.21,10.04-2.18,13.31h25.14c.92-2.03,1.74-4.46,2.51-7.34.47-1.97.89-3.8,1.18-5.49Z"/>
  <path class="st0" d="M151.16,157.26h-9.69l-.12.54-.41,1.97c-.69,2.99-1.53,4.38-2.59,5.18h10.4c.64-1.32,1.21-2.82,1.7-4.5.3-1.02.53-2.1.71-3.19Z"/>
  <path class="st0" d="M63.93,148.72c.35-.07.65-.2,1-.34,3.72-1.36,6.03-3.93,7.39-8.27,3.37-10.58.12-16-7.92-16h-17.49l-8.85,40.84h11.28l2.59-12.02h2.84c2.36,0,3.31,1.49,2.6,4.54l-1.59,7.48h11.04l1.49-6.73c1.12-5.29-.89-8.95-4.37-9.49Z"/>
  <path class="st1" d="M156.89,144.58h-3.42c-.05,1.06-.17,2.21-.36,3.46-.06.61-.18,1.15-.35,1.76h-9.75l.24-1.36c.12-.41.18-.81.24-1.29.24-1.9.24-2.37.06-3.05-.35-1.42-1.83-2.17-3.37-1.08-1.71,1.15-2.54,2.92-4.49,11.8-1.18,5.29-1.36,6.98-1.18,8.61.06.61.28,1.13.61,1.51h3.24c1.06-.79,1.9-2.19,2.59-5.18l.41-1.97.12-.54h9.69c-.18,1.08-.41,2.17-.71,3.19-.49,1.68-1.06,3.17-1.7,4.5h3.75c.04-.23.08-.46.14-.7l4.25-19.66Z"/>
  <path class="st1" d="M243.77,144.66v-.04c.92-5.61-.85-8.68-2.5-10.26-1.63-1.56-4.72-3.18-10.22-2.05-.87.18-1.68.43-2.45.74h-15.77l-.61,2.8c-.1-.12-.19-.23-.29-.34-3.49-3.84-9.38-3.9-14.12-3.53-3.28.25-6.05,1.19-8.37,2.86l.39-1.79h-.05l2.64-12.2h-17.77l-.34,1.56h-15.68l-2.3,10.64h-3.89v.06c-2.2-1.3-5.86-2.28-12.58-1.39-4.45.55-8.16,2.63-11.05,6.16-.36-.81-.85-1.59-1.48-2.31-3.55-3.99-10.02-3.88-14.56-3.45-4.84.43-9,2.66-11.9,6.13-.48-1.06-1.13-2.05-1.99-2.93-3.9-3.97-10.15-3.64-14.51-3.04-2.57.35-4.87,1.25-6.91,2.7.37-3.9-.33-7.1-2.12-9.55-1.52-2.08-4.58-4.57-10.5-4.57h-20.3l-9.56,44.1h3.1l8.85-40.84h17.49c8.04,0,11.29,5.42,7.92,16-1.36,4.34-3.66,6.92-7.39,8.27-.35.14-.65.27-1,.34,3.49.54,5.5,4.2,4.37,9.49l-1.49,6.73h2.33c-.18-2.87.25-6.5,1.26-11.01,2.78-12,7.56-17.56,14.01-18.44,11.41-1.56,15.07,2.58,13.36,13.56-.53,3.05-1.48,7.39-1.48,7.39h-15.6l-1.3,5.9c-.12.81-.18,1.49-.12,2.1.02.18.06.34.12.5h4.48c.58-.71,1.07-1.78,1.37-3.34l.3-1.49h9.93c-.24,1.15-.59,2.24-1,3.32-.21.53-.44,1.03-.67,1.51h1.56c.08-.8.23-1.61.42-2.46,1.36-5.9,3.31-8.47,8.21-10.44.59-.2,1.12-.47,1.65-.61l6.44-1.76c2.3-.54,3.01-1.56,3.43-3.53.59-2.58-.3-3.86-2.48-3.59-1.36.14-2.3,1.02-2.95,3.32-.12.07-.47,1.63-.47,1.63h-9.75c1.18-6.71,6.03-11.53,12.82-12.14,11.46-1.08,14.54,2.58,12.65,11.32l-4.01,18.26h2.62c-.23-2.71.11-6.09,1-10.19,3.01-13.49,7.86-18.92,14.95-19.8,9.4-1.25,13.25,1.02,13.6,7.46l1.35-6.1h3.9l2.3-10.64h10.64l-2.3,10.64h4.14l-1.77,8.27h-4.2l-3.84,17.63c-.36,1.6.09,2.53,1.16,2.73h3.36l6.24-28.63h10.64l-6.24,28.63h2.45c-.03-3.27.67-7.61,2.18-13.31,3.07-11.53,6.97-15.86,14.18-16.41,12.11-.95,14.89,3.05,12.47,16.88-.3,1.7-.71,3.53-1.18,5.49-.77,2.88-1.59,5.31-2.51,7.34h2.56l6.24-28.63h10.16l-.77,3.66c.3-.41.59-.75.95-1.09,1.71-1.9,3.55-2.91,5.79-3.39,6.91-1.42,9.57,2.17,8.57,8.34-.12.68-.24,1.36-.41,2.03l-4.13,19.07h4.03l3.9-18.04c.2-.79.33-1.53.46-2.24ZM185.67,133.4h-10.64l2.01-9.29h10.64l-2.01,9.29Z"/>
  <path class="st1" d="M54.77,152.92h-2.84l-2.59,12.02h6.44l1.59-7.48c.71-3.05-.24-4.54-2.6-4.54Z"/>
  <path class="st1" d="M228.52,147.36c.3-2.37-.47-3.32-2.25-2.92-1.3.2-2.25,1.22-2.84,3.19-.12.2-.18.47-.24.75l-3.59,16.57h5.15l3.64-16.77c.06-.27.06-.54.12-.81Z"/>
  <path class="st1" d="M90.86,174.2c-1.97,0-3.36,1.45-3.75,3.56-.39,2.11.47,3.56,2.43,3.56s3.36-1.45,3.75-3.56-.47-3.56-2.43-3.56Z"/>
  <path class="st1" d="M107.8,174.46h-3.04l-.52,2.8h3.04c.97,0,1.56-.34,1.76-1.41.18-.99-.32-1.38-1.24-1.38Z"/>
  <path class="st1" d="M152.97,174.2c-1.97,0-3.36,1.45-3.75,3.56-.39,2.11.47,3.56,2.43,3.56s3.36-1.45,3.75-3.56-.47-3.56-2.43-3.56Z"/>
  <path class="st1" d="M138.02,174.46h-2.95l-.54,2.93h2.82c1,0,1.59-.31,1.8-1.45.22-1.18-.45-1.48-1.13-1.48Z"/>
  <path class="st1" d="M60.14,174.2c-1.97,0-3.36,1.45-3.75,3.56-.39,2.11.47,3.56,2.43,3.56s3.36-1.45,3.75-3.56c.39-2.11-.47-3.56-2.43-3.56Z"/>
  <path class="st1" d="M169.91,174.46h-3.04l-.52,2.8h3.04c.97,0,1.56-.34,1.76-1.41.18-.99-.32-1.38-1.24-1.38Z"/>
  <path class="st1" d="M317.21,169.01l-280.05-.17c-1.74,0-5.15.03-5.99,2.54l-2.33,11.38c-.83,2.51.12,3.71,1.86,3.72l281.26.17c1.74,0,3.83-2.03,4.67-4.55l2.22-8.52c.84-2.52.1-4.56-1.64-4.57ZM46.4,182.56h-1.65l1.54-7.93h-.02l-4.56,7.93h-1.5l-1.6-7.93h-.02l-1.4,7.93h-1.65l1.78-9.6h2.53l1.55,7.45,4.29-7.45h2.51l-1.78,9.6ZM64.4,177.76c-.5,2.7-2.32,5.07-5.86,5.07s-4.48-2.37-3.98-5.07c.5-2.7,2.32-5.07,5.86-5.07s4.48,2.37,3.98,5.07ZM79.47,174.46h-3.14l-1.5,8.09h-1.76l1.5-8.09h-3.14l.28-1.51h8.04l-.28,1.51ZM95.13,177.76c-.5,2.7-2.32,5.07-5.86,5.07s-4.48-2.37-3.98-5.07c.5-2.7,2.32-5.07,5.86-5.07s4.48,2.37,3.98,5.07ZM110.93,175.57c-.23,1.25-.97,2.03-1.81,2.31v.03c.95.24.98,1.24.73,2.59-.08.46-.27,1.53-.03,2.06h-1.9c-.08-.27-.07-.75.06-1.45.25-1.37.27-2.34-1.02-2.34h-2.99l-.7,3.79h-1.76l1.78-9.6h5.3c2.13,0,2.62,1.12,2.34,2.61ZM125.7,175.74h-1.9c.08-.74-.36-1.55-1.82-1.55-1.17,0-2.02.42-2.19,1.32-.42,2.26,6.22.09,5.46,4.19-.46,2.47-2.82,3.12-4.6,3.12-3.01,0-3.97-1.36-3.62-3.37h1.9c-.19,1.26.61,1.87,2.06,1.87,1.07,0,2.13-.36,2.32-1.41.44-2.38-6.11-.31-5.38-4.25.4-2.14,2.2-2.97,4.24-2.97,1.29,0,3.82.27,3.52,3.05ZM140.91,175.94c-.27,1.47-1.36,2.96-3.24,2.96h-3.42l-.68,3.66h-1.76l1.78-9.6h5.16c2.05,0,2.45,1.44,2.17,2.98ZM157.23,177.76c-.5,2.7-2.32,5.07-5.86,5.07s-4.48-2.37-3.98-5.07c.5-2.7,2.32-5.07,5.86-5.07s4.48,2.37,3.98,5.07ZM173.03,175.57c-.23,1.25-.97,2.03-1.81,2.31v.03c.95.24.98,1.24.73,2.59-.08.46-.27,1.53-.03,2.06h-1.9c-.08-.27-.07-.75.06-1.45.25-1.37.27-2.34-1.02-2.34h-2.99l-.7,3.79h-1.76l1.78-9.6h5.3c2.13,0,2.62,1.12,2.34,2.61ZM187.88,174.46h-3.14l-1.5,8.09h-1.76l1.5-8.09h-3.14l.28-1.51h8.04l-.28,1.51ZM201.87,175.74h-1.9c.08-.74-.36-1.55-1.82-1.55-1.17,0-2.02.42-2.19,1.32-.42,2.26,6.22.09,5.46,4.19-.46,2.47-2.82,3.12-4.6,3.12-3.01,0-3.97-1.36-3.62-3.37h1.9c-.19,1.26.61,1.87,2.06,1.87,1.07,0,2.13-.36,2.32-1.41.44-2.38-6.11-.31-5.38-4.25.4-2.14,2.2-2.97,4.24-2.97,1.29,0,3.82.27,3.52,3.05ZM226.91,174.46h-5.51l-.45,2.42h5.29l-.28,1.51h-5.29l-.49,2.66h5.6l-.28,1.51h-7.36l1.78-9.6h7.27l-.28,1.51ZM237.41,182.56h-1.86l-1.95-9.6h1.97l1.31,7.69,4.1-7.69h1.9l-5.46,9.6ZM256.56,174.46h-5.51l-.45,2.42h5.29l-.28,1.51h-5.29l-.49,2.66h5.6l-.28,1.51h-7.36l1.78-9.6h7.27l-.28,1.51ZM271.22,182.56h-1.98l-3.68-7.21h-.02l-1.33,7.21h-1.69l1.78-9.6h2.02l3.65,7.21h.02l1.33-7.21h1.69l-1.78,9.6ZM287.64,174.46h-3.14l-1.5,8.09h-1.76l1.5-8.09h-3.14l.28-1.51h8.04l-.28,1.51ZM301.63,175.74h-1.9c.08-.74-.36-1.55-1.82-1.55-1.17,0-2.02.42-2.19,1.32-.42,2.26,6.22.09,5.46,4.19-.46,2.47-2.82,3.12-4.6,3.12-3.01,0-3.97-1.36-3.62-3.37h1.9c-.19,1.26.61,1.87,2.06,1.87,1.07,0,2.13-.36,2.32-1.41.44-2.38-6.11-.31-5.38-4.25.4-2.14,2.2-2.97,4.24-2.97,1.29,0,3.82.27,3.52,3.05ZM304.1,182.56h-1.63l.43-2.29h.42l-.35,1.91h1.21l-.07.38ZM306.24,182.56h-1.63l.43-2.29h.42l-.35,1.91h1.21l-.07.38ZM309.11,181.12h-.45c.02-.35-.19-.55-.54-.55-.39,0-.73.29-.84.89-.09.48.14.81.55.81.44,0,.64-.34.72-.58h.45c-.14.45-.49.94-1.31.94-.72,0-.96-.56-.84-1.21s.55-1.21,1.34-1.21c.69,0,.97.42.92.91Z"/>
  <path class="st1" d="M191.84,164.95h4.05c.51-.73.9-1.77,1.46-3.82.12-.54,3.43-13.29,3.07-16.47-.12-1.36-1.24-2.1-2.6-1.63-2.25.81-3.37,6.17-3.43,6.64,0,0-3.07,13.22-2.66,14.92.03.13.07.25.1.36Z"/>
  <path class="st1" d="M109.83,164.95c1.21-.8,2.15-2.52,2.89-5.79l.89-4.2-3.9,1.7c-.18.07-.3.2-.47.27-1.95,1.22-2.6,2.1-3.07,4.41-.12.41-.18.88-.18,1.29-.09,1,.2,1.83.74,2.33h3.11Z"/>
</svg>