<?xml version="1.0" encoding="UTF-8"?>
<svg id="Layer_1" xmlns="http://www.w3.org/2000/svg" version="1.1" viewBox="0 0 360 251.75">
  <!-- Generator: Adobe Illustrator 30.2.1, SVG Export Plug-In . SVG Version: 2.1.1 Build 1)  -->
  <defs>
    <style>
      .st0 {
        fill: #f6921e;
      }

      .st1 {
        fill: #887e6d;
      }

      .st2 {
        fill: #231f20;
      }

      .st3 {
        fill: #e1cbad;
      }

      .st4 {
        fill: #ee4036;
      }

      .st5 {
        fill: #be1e2d;
      }

      .st6 {
        fill: #fff;
      }
    </style>
  </defs>
  <g>
    <path class="st2" d="M78.76,198.57c-1.92,0-3.75-.03-5.49-.06-1.03-.02-2.08-.23-3.09-.62-.85.37-1.77.57-2.69.58l-5.92.08c-1.4,0-2.7-.37-3.82-1.06-1,.59-2.14.94-3.31.99-1.06.04-2.15.07-3.33.07-.95,0-1.97-.01-3.07-.04-2.46-.06-4.66-1.37-5.91-3.49-1.24-2.12-1.3-4.68-.15-6.86l4.4-8.33c-2.29-.01-4.43-1.13-5.75-3.01-1.32-1.88-1.63-4.3-.85-6.46.76-2.07,1.66-3.84,2.52-5.48.18-.34.39-.66.64-.98.12-.49.29-.95.5-1.39l1.83-3.75c.14-.28.3-.56.5-.85.09-.28.18-.54.29-.78l1.67-3.71c.3-.66.69-1.27,1.18-1.81.05-.93.28-1.84.68-2.68l10.24-21.44.9-1.92h-7.49c-2.46,0-4.7-1.26-5.99-3.35-1.29-2.09-1.41-4.66-.31-6.86l3.88-7.77c.16-.71.41-1.37.76-1.97l5.57-9.67c1.25-2.17,3.59-3.53,6.1-3.53h3.86c1.57,0,3,.2,4.29.62.92-.42,1.91-.64,2.91-.64h4.09c1.28,0,2.47.14,3.55.44.79-.3,1.62-.45,2.46-.46h3.44c.27,0,.54.01.82.04.29-.04.56-.05.82-.05h4.43c.65-.58,1.4-1.04,2.2-1.34,1.75-.66,3.49-1.38,5.33-2.14l.18-.08c.86-.36,1.77-.54,2.71-.54.43,0,.86.04,1.28.12.43-.18.88-.34,1.34-.46,1.18-.31,2.01-.56,2.72-.96,2.8-1.55,5.48-2.9,8.21-4.11l5.12-2.28,9.41-5.23c1.05-.58,2.23-.89,3.43-.89,1.42,0,2.79.42,3.97,1.22l5.27,3.59,1.93.82c.26.11.51.23.75.37l2.59,1.48c1.17-.73,2.33-1.42,3.46-2.09l19.86-11.79c1.09-.65,2.34-.99,3.61-.99s2.57.36,3.68,1.04c1.49.91,2.84,2.02,4.03,3,.77.63,1.73,1.42,2.19,1.69l3.44,1.96c1.42.81,2.48,1.76,3.27,2.47.42-1.14.9-2.29,1.46-3.53.1-.22.22-.45.35-.66.05-.16.1-.32.17-.47,1.1-2.74,2.46-5.04,3.75-7.16.15-.24.31-.48.51-.72,3.24-5.45,7.1-9.4,10.11-12.24l.08-.07c10.19-9.31,23.45-14.44,37.33-14.44,8.19,0,16.33,1.87,23.55,5.41,9.75,4.83,17.95,12.19,23.73,21.31.12.19.23.4.33.6,1.49,2.21,2.77,4.53,3.91,7.09.08.18.15.37.22.56.2.32.36.61.5.92,1.01,2.3,1.8,4.48,2.48,6.88.05.16.09.33.12.49.19.39.34.79.46,1.2.65,2.35,1.07,4.23,1.39,6.3.03.19.05.39.06.58.17.52.29,1.05.34,1.59l.49,5.21c.05.49.04,1-.03,1.52.07.43.09.86.08,1.27-.06,1.75-.17,3.31-.35,4.8l3.1,1.69c1.96,1.07,3.26,2.95,3.6,5.1,1.95.71,3.62,1.83,4.88,3.29.21.25.42.52.6.8l1.41,2.19c.42.66.73,1.39.92,2.16.29,1.21.41,3.02-.54,4.98.03.25.05.51.06.77.09,2.5-.89,4.9-2.62,6.44-.42.37-1.66,1.48-2.35,2.27l-4.18,4.79-1.6,1.9-1.21,1.52-3.03,4.15-3.18,4.78c-1.65,2.47-3.25,5.12-5.18,8.58l-4.67,8.36c-1.12,2-3.14,3.33-5.41,3.57-.09,0-.19.02-.28.02l-1.1,1.78c-1,1.63-2.58,2.75-4.43,3.18-.71,1.39-1.88,2.5-3.29,3.16-.07.18-.14.34-.22.51l-3.95,8.22c-1.02,2.11-3.01,3.58-5.33,3.92-.52.08-1.32.18-2.26.18-.62,0-1.22-.04-1.8-.13-.59.07-1.18.11-1.73.13-.2,0-.41.01-.66.01-.74,0-1.45-.06-2.12-.17-.49.11-.99.16-1.48.16l-2.98-.07c-.32,0-.64-.04-.96-.09-.4.07-.78.1-1.17.1h-.77s-1.32,2.68-1.32,2.68c-1.19,2.43-3.62,3.94-6.33,3.94h-18.74c-.51,0-1.03-.06-1.54-.18-.51.12-1.02.17-1.53.17h-18.62c-2.4,0-4.61-1.19-5.92-3.2-.53-.81-.88-1.72-1.03-2.68h-1.7c-1.11,0-2.19-.26-3.17-.75-.13,0-.26.01-.39.01h-3.03c-.38,0-.74-.02-1.1-.08-.46.09-.94.14-1.41.14l-3.18-.07c-.11,0-.22-.01-.33-.02-.34.05-.65.07-.95.07h-3.69c-.69,0-1.39-.12-2.09-.32-2.53,4.38-6.67,6.87-11.47,6.87l-12.62-.02c-1.14,0-2.28-.24-3.38-.71-.99.5-2.07.77-3.18.77l-18.8-.03c-2.39,0-4.66-1.25-5.94-3.26l-.73.15c-1.29,1.93-3.46,3.1-5.82,3.11l-5.9.02c-.99,0-1.96-.21-2.85-.6-.87.37-1.8.57-2.74.57l-7.25.03c-1.54,0-3.02-.49-4.23-1.38-1.59.79-3.31,1.24-5.06,1.3-1.96.07-3.97.1-6.13.1Z"/>
    <path class="st6" d="M247.61,39.63c7.81,0,15.62,1.72,22.81,5.24,9.47,4.69,17.44,11.84,23.05,20.69.11.18.21.36.3.55,1.46,2.15,2.71,4.41,3.83,6.93.09.2.16.41.23.61.18.27.35.55.49.86.98,2.23,1.74,4.35,2.4,6.67.05.19.1.39.13.58.18.34.34.71.44,1.1.63,2.28,1.04,4.1,1.35,6.1.03.22.05.44.06.66.17.44.29.92.33,1.41l.49,5.21c.04.47.02.93-.06,1.38.08.39.11.79.1,1.19-.07,2.14-.23,4-.5,5.79l4.13,2.25c1.83,1,2.86,2.91,2.79,4.88,1.87.49,3.78,1.46,5.21,3.12.17.19.32.4.45.61l1.41,2.2c.32.5.56,1.06.7,1.64.24,1.01.34,2.6-.65,4.3.08.36.12.74.13,1.12.07,2-.7,3.91-2.05,5.12-.43.38-1.74,1.55-2.49,2.41l-4.18,4.79-1.62,1.93-1.24,1.56-3.07,4.21-3.23,4.84c-1.68,2.52-3.3,5.2-5.25,8.69l-4.67,8.36c-.85,1.52-2.38,2.53-4.11,2.71-.19.02-.38.03-.57.03-.16,0-.31,0-.46-.02-.08.13-.17.25-.25.39l-1.36,2.21c-.9,1.47-2.44,2.38-4.13,2.54l-.29.61c-.65,1.37-1.83,2.37-3.23,2.81-.09.36-.2.71-.37,1.05l-3.96,8.22c-.77,1.6-2.29,2.72-4.05,2.98-.56.08-1.25.16-2.01.16-.55,0-1.15-.04-1.76-.15-.56.07-1.2.12-1.82.14-.16,0-.36.01-.61.01-.57,0-1.34-.04-2.17-.21-.46.13-.94.2-1.44.2-.04,0-.09,0-.13,0l-2.81-.07c-.34,0-.68-.05-1.01-.12-.38.09-.75.14-1.15.14-.03,0-.05,0-.08,0h-1.76c-.03.06-.06.14-.1.22l-1.68,3.42c-.9,1.83-2.77,3-4.81,3h-18.74c-.53,0-1.05-.09-1.54-.24-.49.15-1.01.23-1.53.23h-18.62s0,0,0,0c-1.81,0-3.51-.92-4.49-2.44-.67-1.04-.95-2.26-.83-3.45h-3.33s0,0-.01,0c-1.01,0-1.97-.29-2.8-.8-.25.04-.5.05-.76.06h-3.02s0,0-.01,0c-.38,0-.76-.04-1.13-.12-.44.12-.9.18-1.37.18-.04,0-.08,0-.12,0l-3.03-.07c-.14,0-.28-.02-.42-.04-.3.05-.6.09-.91.09h-3.69c-.96-.01-1.96-.29-2.88-.76l-.31.6c-2.18,4.26-5.96,6.71-10.38,6.71h-.02l-12.6-.02c-1.28,0-2.46-.39-3.47-.94-.89.63-1.96,1-3.09,1h0l-18.79-.03c-1.87,0-3.6-.98-4.57-2.57-.18-.29-.32-.6-.43-.92l-2.74.56c-.91,1.79-2.75,2.92-4.75,2.93l-5.9.02h-.02c-1.01,0-1.98-.29-2.82-.81-.82.5-1.77.78-2.75.78l-7.25.03h-.02c-1.47,0-2.88-.61-3.89-1.68-.03-.03-.05-.06-.08-.09-1.58,1.01-3.43,1.61-5.34,1.68h0c-2.13.07-4.15.1-6.07.1s-3.73-.03-5.46-.06c-1.09-.02-2.18-.31-3.17-.8-.79.47-1.71.74-2.66.76l-5.92.08s-.05,0-.08,0c-1.41,0-2.72-.55-3.7-1.48-.92.84-2.12,1.35-3.4,1.41-1.02.04-2.09.06-3.26.06-.94,0-1.94-.01-3.02-.04-1.85-.05-3.55-1.05-4.49-2.65-.94-1.6-.98-3.57-.12-5.21l5.71-10.81h-2.77c-1.75,0-3.39-.85-4.39-2.29-1-1.43-1.24-3.27-.64-4.91.72-1.97,1.59-3.69,2.42-5.27.2-.37.44-.71.71-1.02.09-.48.23-.95.45-1.4l1.83-3.75c.15-.3.33-.58.53-.84.07-.28.16-.56.28-.83l1.67-3.71c.32-.7.77-1.31,1.33-1.8-.06-.9.11-1.81.51-2.65l10.24-21.44,2.04-4.34h-10.15c-1.86-.01-3.58-.97-4.56-2.55-.98-1.58-1.06-3.55-.24-5.21l3.98-7.97c.11-.58.31-1.15.61-1.68l5.57-9.67c.95-1.66,2.72-2.68,4.64-2.69h3.86s.02,0,.03,0c1.8,0,3.23.31,4.38.78.83-.51,1.78-.79,2.79-.8h4.09s.02,0,.03,0c1.36,0,2.57.19,3.62.55.72-.36,1.52-.56,2.36-.56h3.44s0,0,0,0c.27,0,.54.03.81.07.27-.04.54-.07.82-.07h5.12c.56-.63,1.27-1.13,2.1-1.44,1.8-.67,3.57-1.41,5.44-2.19l.12-.05c.66-.27,1.36-.41,2.06-.41.49,0,.99.07,1.47.2.43-.22.96-.43,1.58-.6,1.32-.34,2.25-.63,3.12-1.12,2.75-1.53,5.4-2.85,8.08-4.05l5.18-2.31,9.48-5.27c.81-.45,1.71-.67,2.6-.67,1.06,0,2.11.31,3.02.93l5.41,3.68,2.08.88c.2.08.39.18.57.28l3.47,1.99c1.42-.92,2.82-1.75,4.27-2.61l19.86-11.79c.85-.5,1.79-.75,2.74-.75.97,0,1.94.26,2.8.79,1.38.85,2.69,1.92,3.84,2.87.91.74,1.84,1.51,2.43,1.85l3.44,1.96c1.3.74,2.27,1.62,3.04,2.32.41.37.8.73,1.07.9l.86.54c.55-1.82,1.22-3.59,2.14-5.59.11-.23.23-.46.37-.67.05-.18.11-.36.18-.54,1.05-2.62,2.37-4.85,3.62-6.91.14-.22.29-.43.45-.63,3.14-5.32,6.93-9.19,9.88-11.98.02-.02.04-.04.06-.06,10.05-9.19,23.11-14,36.19-14M247.61,36.25c-14.3,0-27.96,5.29-38.47,14.88l-.12.11c-3.05,2.88-7,6.91-10.33,12.49-.21.27-.39.53-.56.8-1.33,2.18-2.72,4.55-3.87,7.41-.06.14-.11.28-.15.41-.12.21-.23.43-.33.65-.22.49-.43.96-.63,1.43-.51-.38-1.08-.77-1.72-1.13l-3.44-1.96c-.34-.19-1.35-1.02-1.95-1.52-1.18-.97-2.64-2.17-4.23-3.14-1.37-.84-2.95-1.29-4.56-1.29-1.57,0-3.12.43-4.47,1.23l-19.86,11.79c-.86.51-1.74,1.03-2.63,1.57l-1.71-.98c-.3-.17-.61-.32-.92-.46l-1.78-.75-5.13-3.49c-1.46-.99-3.16-1.52-4.92-1.52-1.48,0-2.95.38-4.25,1.1l-9.35,5.19-5.05,2.25c-2.77,1.24-5.5,2.6-8.34,4.18-.49.27-1.1.48-2.32.8-.38.1-.75.21-1.11.35-.36-.04-.72-.07-1.09-.07-1.16,0-2.28.22-3.35.67l-.12.05c-1.86.77-3.6,1.49-5.33,2.14-.79.3-1.54.71-2.21,1.22h-3.83c-.27,0-.54.02-.82.05-.28-.03-.54-.04-.8-.04h-3.45c-.86,0-1.71.14-2.53.39-1.08-.25-2.23-.37-3.45-.37h-4.12c-1.02,0-2.04.19-3,.55-1.29-.35-2.68-.53-4.17-.53h-3.89c-3.11.01-6.01,1.69-7.56,4.39l-5.57,9.67c-.4.69-.7,1.44-.89,2.24l-3.79,7.59c-1.36,2.73-1.22,5.91.38,8.5,1.6,2.59,4.38,4.15,7.43,4.15h4.82s-10,20.95-10,20.95c-.41.86-.68,1.78-.79,2.73-.43.55-.79,1.15-1.08,1.79l-1.67,3.71c-.1.23-.2.47-.28.73-.18.28-.34.56-.48.85l-1.83,3.75c-.21.44-.39.9-.53,1.38-.22.31-.41.62-.58.95-.88,1.69-1.81,3.51-2.61,5.68-.98,2.68-.59,5.68,1.05,8.01,1.12,1.6,2.72,2.76,4.54,3.33l-3.3,6.25c-1.42,2.7-1.35,5.87.19,8.5,1.54,2.63,4.28,4.24,7.32,4.32,1.13.03,2.14.04,3.11.04,1.21,0,2.32-.02,3.4-.07,1.12-.05,2.21-.31,3.22-.76,1.16.55,2.43.84,3.74.84h.11s5.93-.08,5.93-.08c.92-.01,1.83-.17,2.7-.47,1,.32,2.03.49,3.03.51,1.48.03,3.44.06,5.52.06s4.19-.03,6.19-.1c1.67-.05,3.31-.42,4.86-1.06,1.31.75,2.81,1.15,4.33,1.15l7.29-.03c.93,0,1.85-.16,2.72-.45.91.32,1.87.48,2.83.48l5.94-.02c2.4-.01,4.62-.98,6.23-2.64,1.63,1.66,3.89,2.64,6.25,2.65l18.79.03c1.12,0,2.22-.21,3.24-.63,1.09.38,2.2.57,3.32.57l12.6.02c5.05,0,9.43-2.4,12.31-6.66.43.06.86.1,1.28.1h3.68c.33,0,.67-.01,1.01-.06.08,0,.17,0,.25.01l3.03.07h.19c.49,0,.97-.04,1.45-.12.35.04.7.06,1.05.06h3.04s.02,0,.04,0c1.11.49,2.3.74,3.51.74h.41c.23.67.54,1.31.93,1.9,1.62,2.49,4.36,3.98,7.33,3.98h18.62c.51,0,1.02-.05,1.53-.14.52.1,1.03.14,1.55.14h18.74c3.36,0,6.37-1.87,7.85-4.88l.86-1.74c.3-.01.6-.04.9-.08.3.04.61.06.91.07l2.81.07c.06,0,.14,0,.21,0,.51,0,1.01-.05,1.52-.13.67.1,1.37.15,2.09.15.28,0,.52,0,.71-.01.52-.02,1.08-.05,1.64-.11.6.08,1.21.12,1.83.12.8,0,1.59-.06,2.5-.2,2.88-.42,5.35-2.24,6.61-4.86l3.96-8.22s0,0,0-.01c1.26-.71,2.33-1.73,3.1-2.95,1.95-.64,3.65-1.96,4.74-3.72l.67-1.09c2.59-.44,4.86-2.04,6.16-4.35l4.67-8.36c1.91-3.42,3.48-6.03,5.11-8.47l3.19-4.78,2.99-4.09,1.17-1.47,1.57-1.87,4.16-4.76c.41-.47,1.15-1.18,2.19-2.11,2.1-1.87,3.29-4.78,3.19-7.77,0-.15-.01-.29-.03-.44.74-1.79.91-3.75.45-5.65-.23-.95-.61-1.85-1.14-2.68l-1.4-2.19c-.22-.35-.47-.68-.74-1-1.25-1.45-2.85-2.61-4.7-3.42-.62-2.25-2.12-4.19-4.25-5.35l-2.11-1.15c.12-1.19.19-2.44.24-3.8.01-.44,0-.9-.06-1.35.06-.56.06-1.11,0-1.66l-.49-5.21c-.06-.59-.17-1.18-.35-1.76-.02-.17-.04-.34-.06-.51-.33-2.14-.76-4.08-1.43-6.49-.12-.44-.28-.87-.47-1.29-.03-.14-.07-.27-.11-.41-.7-2.47-1.52-4.73-2.56-7.1-.14-.33-.31-.65-.51-.98-.06-.17-.13-.34-.2-.5-1.16-2.62-2.46-5-3.99-7.27-.1-.19-.22-.42-.37-.65-5.94-9.37-14.38-16.95-24.4-21.91-7.46-3.66-15.86-5.59-24.31-5.59h0Z"/>
  </g>
  <g>
    <g>
      <g>
        <path class="st0" d="M57.68,109.15l5.57-9.67h3.86c3.19-.01,4.43,1.39,3.56,3.86-1.17,3.34-4.92,5.79-9.14,5.8h-3.85ZM62.72,106.36h.35c1.97,0,3.38-1.04,3.93-2.6.35-1-.11-1.5-1.52-1.5h-.39s-2.36,4.1-2.36,4.1Z"/>
        <path class="st0" d="M77.77,105.4l.56,3.45-.27.26h-3.41s-.32-3.13-.32-3.13h-.35s-1.81,3.14-1.81,3.14h-3.44s5.57-9.66,5.57-9.66h4.09c2.63-.01,3.43.91,2.84,2.61-.51,1.46-1.8,2.7-3.46,3.33ZM76.28,102.02l-.99,1.71h.71c.87,0,1.47-.48,1.67-1.05.15-.42-.05-.65-.71-.65h-.68Z"/>
        <path class="st0" d="M84.4,99.45h3.44s-5.57,9.66-5.57,9.66h-3.44s5.57-9.66,5.57-9.66Z"/>
        <path class="st0" d="M94.87,102.14h-3.51s-.67,1.17-.67,1.17h2.99s-1.44,2.49-1.44,2.49h-2.99s-1.89,3.3-1.89,3.3h-3.44s5.57-9.66,5.57-9.66h6.6s-1.21,2.7-1.21,2.7Z"/>
        <path class="st0" d="M105.59,99.41l-1.72,3h-2.52s-3.83,6.67-3.83,6.67h-3.42s3.83-6.66,3.83-6.66h-2.5s1.72-3,1.72-3h8.44Z"/>
        <path class="st5" d="M100.96,109.07l5.57-9.67h3.58s.28,2.67.28,2.67c.06.57.08,1.43.03,2.31h.06c.37-.97.92-2.12,1.38-2.94l1.17-2.05h3.42s-5.57,9.66-5.57,9.66h-3.35s-.37-2.79-.37-2.79c-.1-.79-.16-1.65-.12-2.3h-.04c-.37.97-.94,2.18-1.46,3.09l-1.16,2.02h-3.42Z"/>
        <path class="st5" d="M114.6,109.05l2.69-9.58.12-.08h3.66s-1.54,4.06-1.54,4.06c-.23.61-.61,1.45-.9,2.06h.06c.42-.63,1.03-1.46,1.51-2.06l3.23-4.07h2.67s-1.45,4.05-1.45,4.05c-.22.63-.57,1.45-.84,2.07h.06c.42-.63.98-1.46,1.45-2.06l3.14-4.07h3.77s.04.09.04.09l-8.35,9.58h-3.6s1.23-3.32,1.23-3.32c.21-.56.54-1.32.76-1.88h-.06c-.42.57-.96,1.32-1.4,1.88l-2.62,3.33h-3.61Z"/>
        <path class="st5" d="M139.32,99.35l-2.19,9.58-.1.08h-3.83s.43-1.22.43-1.22h-2.51s-.98,1.23-.98,1.23h-3.92s-.02-.09-.02-.09l8.91-9.58h4.21ZM132.85,105.61h1.57s.2-.56.2-.56c.34-.98.84-2.28,1.25-3.26h-.06c-.72,1.01-1.74,2.31-2.51,3.28l-.44.55Z"/>
      </g>
      <g id="WZuUNd">
        <g>
          <path class="st5" d="M288.94,68.44h-82.86c2.51-4.28,5.57-7.65,8.97-10.85,14.26-13.02,35.52-16.49,53.02-7.9,8.43,4.17,15.67,10.53,20.88,18.75Z"/>
          <path class="st3" d="M124.63,156.52h22.38c1.85.1,3.56-.76,4.41-2.4s1.65-3.39,2.47-5.25c-2.48,1.77-4.92,3.06-7.93,3.07l-11.24.04c-.65,0-1.47-.21-2.12-.35-1.84-.42-3.6-1.5-4.23-3.35-.51-1.48-.29-3.23.41-4.68l6.99-14.6c1.98-4.14,6.52-6.83,11.1-6.85l13.49-.07c1.95-.01,3.59.93,4.82,2.21l1.25-2.25,13.28.06-8.92,19.37c-2.61,5.66-4.84,11.23-7.75,16.75-1.71,3.24-5.26,5.35-8.88,5.76-4.57.52-8.91.04-13.53.23l-19.77-.03,3.76-7.65ZM156.13,142.79l5.63-11.81c.13-.27.07-1.03-.16-1.2s-.8-.54-1.12-.54l-8.5-.02c-2.1,0-3.28,1.45-4.07,3.14l-4.78,10.23c-.13.28-.08,1.08.06,1.33s.71.63,1.01.63l8.19.03c1.17,0,3.14-.59,3.72-1.8Z"/>
          <path class="st5" d="M275.2,168.98l-1.8,3.8H46.42c.59-1.63,1.33-3.08,2.14-4.62h223.71s.55.88.55.88l2.39-.07Z"/>
          <path class="st3" d="M189.18,144.71l13.71.05,10.52.06-3.41,7.17h-31.22c-1.95-.43-3.81-.74-4.93-2.41-.98-1.46-.72-3.47,0-5.07l6.79-14.9c1.46-3.2,3.96-5.55,7.32-6.7,2.18-.74,4.36-.87,6.71-.87l21.74-.02c1.01,0,2.06.22,2.96.52,2.4.81,3.41,3.31,2.37,5.63-1.56,3.48-3.01,6.95-4.92,10.28-.75,1.31-2.91,1.63-4.3,1.63h-23.13s-1.5,3.37-1.5,3.37c-.19.42.65,1.25,1.27,1.25ZM206.61,132.56l.97-2.14c.09-.2.01-.8-.15-.94s-.58-.28-.85-.28l-9.24-.06c-1.91-.01-3.3.75-4.11,2.53l-1.02,2.24,12.1-.05c1.04,0,1.8-.2,2.3-1.32Z"/>
          <path class="st3" d="M111.95,151.99h-23.97c-1.35-.29-2.57-.47-3.69-1.14-1.92-1.15-2.7-3.44-1.84-5.58,1.27-3.18,2.76-6.15,4.24-9.27l3.64-7.67c1.84-3.89,7.42-6.3,11.75-6.3l22.96.02c1.75,0,3.4.68,4.69,1.64,1.63,1.22,2.24,3.28,1.34,5.21l-7.57,16.22c-1.75,3.75-5.69,6.14-9.66,6.63l-1.88.23ZM108.04,144.57c.93,0,2.3-.93,2.69-1.75l5.54-11.74c.14-.31.22-.97.09-1.22s-.7-.64-.99-.64h-9.82c-.86.01-2.18.89-2.56,1.71l-5.52,11.73c-.13.29-.14,1.02-.02,1.28s.67.65.97.65l9.63-.02Z"/>
          <polygon class="st3" points="70.5 151.99 55.95 151.98 66.19 130.54 71.83 118.54 53.24 118.52 57.34 110.32 98.13 110.32 107.75 110.43 103.83 118.53 86.36 118.53 70.5 151.99"/>
          <path class="st3" d="M249.19,155.88c-.95-.47-.3-1.54-.66-1.67l-.45-.16-.08-1.27-.44-.05c-.37-.04.08-2.16.26-2.64,1.62-4.32,3.07-8.41,4.4-12.92l-2.71.49c-.54.1-1.65.42-2.1,0-.72-.67-1.06-1.53-1.51-2.33l-2.09,6.46-.76.61c-.38.73-1.42,1.72-2.11,1.83s-1.68-2.23-1.55-3.13c-3.77,1.41-7.89,2.44-11.1,4.92-.61.47-1.83.85-2.5.09-.52-.6-.86-1.57-1.15-2.34-.52-1.38-.06-2.86,1.46-3.3,1.41-3.99,2.54-7.91,3.64-11.95.31-1.15.39-2.04-.24-3.25l1.73-.44c.8-.2,1.77.64,2.47,1.04.8.47,1.32,1.05.97,2.08-1.29,3.83-2.5,7.5-3.54,11.55l2.39-.62,2.9-9.65c1.17-3.9,2.27-7.68,3.12-11.67.21-.99.08-1.88-.66-2.78.85-.26,1.45-.59,2.08-1.21.87.47,4.85,2.39,4.35,3.67-1.03,2.63-2.06,5.41-2.95,8.12l-4.01,12.34,2.49-.56,3.32-10.46c.14-.45-.17-1.12-.48-1.71l2.81-1.79c1.25.6,2.32,1.27,3.34,2.32l-1.14,2.07,5.07-.89,3.56-13.1c.12-.42-.45-1.16-.75-1.73l2.23-1.4c1.33.85,4.58,1.74,4.43,3.55-.7,1.42-1.32,2.83-1.82,4.52l4.74-1.21c.54-.14,1.23-.48,1.83-.7.99.38,2.03,1.09,2.67,1.86l-.85,1.73c-.33.68-1.52.72-2.2.83l-7.14,1.12-1.11,3.77,4.37-.73c1.53-.25,3.01-.63,4.49-1.08.8-.24,1.19.14,1.78.57.69.51,1.54.93,2.13,1.52l1.39,1.39-1.18,1.26c-1.97.78-4.14.07-6.23.18-5.38.28-12.56,1.2-17.65,2.9l-1.05-1.16-1.27,3.74c2.87-.95,4-.6,6.67-1.08l1.77-1.88,3.03,1.26c2.52-.3,4.91-1.14,7.52-1.72,1.28-.28,3.23.87,3.69,1.89.17.38.18.62.51.95-.76.98-1.97,1.36-3.22,1.47l-2.27.2-6.64.84-.57,2.11c1.61-.09,2.84.13,4.32.5l2.33.59c.42.11,1.21.83,1.38,1.22l.75,1.74c-.23.86-.57,2.01-.98,2.74-.57,1-1.98.76-2.72.37-.9-.48-1.3-1.05-1.93-1.84-.28-.35-2.94-2.95-3.77-3.29l-3.14,11.33c-.35,1.26-1,2.17-2.15,2.8l-1.29,3.05-.27-1.88Z"/>
          <path class="st0" d="M278.99,162.31c-.58.69-1.18,1.12-2.02,1.34-.75.19-.97,1.28-2.1,1.04.51-1.12,1.02-2.19,1.63-3.23l.98-1.67-.35-.4c-.2-.23,5.93-10.64,6.73-11.89l5.07-7.91c2.91-4.54,6.11-8.62,9.64-12.85l-3.84.39c-3.47.35-6.81.96-10.25,1.6-2.18.41-4.37-.49-5.75-2.19.32-.35.7-.54,1.24-.82l-1.31-.77.94-1.2-1.52-.83c-.15-.08-.53-.5-.41-.6s.41-.3.55-.36l2.09-.87-2.44-1.6c2.23-.85,4.35-.8,6.56-1.03l4.77-.51,4.94-.45,3.69-.25,2.3-.1,3.65-.23,2.74-.2c1.44-.11,3.53.4,4.61,1.65l1.41,2.2c.12.51-.83,1.16-1.35,1.49l.27.9c.07.22-.49.58-.68.78l.95.73c.26.2.15,1.14-.12,1.38-.91.81-2.1,1.9-2.96,2.89l-4.22,4.83-1.7,2.02-1.35,1.7-3.21,4.39-3.29,4.93c-1.98,2.96-3.74,5.95-5.47,9.06l-2,3.58-2.67,4.77-.67-.76.65-1.87-1.41,1.3c-.12-.11-.36-.42-.42-.35-.09.09-.29.3-.38.42l-1.6,2.11c-.5.66-.98,1.3-1.45,2.06l-1.36,2.21c-.05.08-.48-.1-.42-.17.48-.56.92-1.71,1.23-2.54l1.46-3.96-.85.37c-.16.07-.33-.21-.53-.5Z"/>
          <path class="st4" d="M271.81,165.75h-109.84c1.68-1.37,3.08-2.34,4.17-3.89h106.81c-.05.67-.32,1.25-.6,1.88-.23.57-.34,1.07-.54,2.02Z"/>
          <path class="st5" d="M250.26,79.91c-1.02-.74-2.07-.75-3.05-.19-1.58.91-2.99,1.82-4.57,2.93h-43.1c.58-2.18,1.3-4.05,2.2-6l91.66.02c.85,1.93,1.54,3.82,2.16,5.99h-41.48s-3.81-2.74-3.81-2.74Z"/>
          <path class="st5" d="M289.27,69.04c1.33,1.94,2.42,3.93,3.41,6.16h-90.31c.88-2.18,2-4.1,3.23-6.12l34.85-.03h48.82Z"/>
          <path class="st1" d="M208.12,109.96c-.94.44-1.8.88-2.93,1.08,1.97-1.49,4.06-2.46,6.09-3.81.71-.47,1.4-.91,2.16-1.32.8-.43,1.35-1.1,2.04-1.66,1.55-1.24,3.22-2.24,4.88-3.37l.56-1.6,3.21-1.81c-3.81-1.38-2.59-2.22-5.64-2.82-1.66-.33-2.75-1.74-4.02-2.65-1.04-.74-2.34-1.27-2.86-2.38-.41.57-.84,1-1.38,1.35-.76.48-.96,1.16-1.49,1.84l-2.78,3.56c-.46.59-.86,1.16-1.36,1.69-2.16,2.25-2.1,1.41-3.7,3.62l1.5-.32c-.9.9-1.66,2.12-2.72,2.72-2.81,1.59-5.66,2.99-8.64,4.39,1.35-2.04,3.31-2.98,4.64-4.69,1.03-1.32,1.8-2.68,2.71-4.23-3.11,1.37-5.25,3.72-7.94,5.38.71-1.33,1.42-2.14,2.18-3.19-.79-.31-1.57-.22-2.3.17-2.83,1.52-5.64,2.76-8.65,3.89l-3.9,1.46c-1.41.53-2.77.99-4.27,1.23-2.46.41-6.94,2.47-9.85,2.75,1.94-1.04,3.71-1.65,5.49-2.56l3.15-1.62c2.54-1.31,5.3-2.01,7.91-3.15l4.89-2.13,6.71-3.55c.87-.02,1.82.34,2.69-.38,1.33-1.1,3-1.72,4.49-2.55l2.51-1.39,3.94-2.37,5.95-3.42,4.14,2.59c1.12.7,2.33,1.27,3.56,1.82l2.67,1.19,3.03,1.62c1.54.82,2.2-.23,3.21-1,1.18-.9,2.66-1.7,4.01-2.46.79-.45,1.27-1.07,1.94-1.57,1.88-1.4,3.95-2.51,5.99-3.66,1.55-.87,2.98-1.74,4.48-2.69l4.26-2.68,7.26,5.12,6.19,4.28c1.78,1.24,3.76,1.87,5.2,3.7.38.48,1.1,1.01,1.6,1.34l5.08-2.04,8.91,5.94,6.47,3.65,15.22,8.29c-3.25-1.07-6.02-2.75-8.99-4.24-2.39-1.2-4.58-2.61-7.07-3.63-.37-.15-1.02-.14-1.44-.38l-6.08-3.61-6.86-4.9-1.51,2.21,2.15,3.54-5.96-3.06c.57,2.18,3.65,4.45,4.66,6.99-2.06-1.3-3.72-2.85-5.87-3.88-1.72-.83-4.67-2.37-4.77-4.52l4.08,3.02c-.71-2.82-1.05-4-2.75-6.14-1.24-.73-2.8-1.02-3.84-1.96-1.12-1-2.18-1.72-3.4-2.58l-5.49-3.92-2.44-1.86c-.82,2.16-2.72,4.8-2.74,6.42-1.05,1.41-2.51,2.43-2.97,4.36l1.68-.53.1.57-3.53,4.63c-.16-.63-.05-1.16.1-2.13-1.41.58-2.85,1.29-4,2.38-1.26,1.19-8.2,6.71-10.01,6.99l3.29-3.44c.96-1,1.92-1.92,2.91-2.86l3.38-3.21c1.85-1.75,3.4-3.72,4.69-6.09l-4.7,3.01c-1.48.95-2.83,1.68-3.88,3.2-.45.65-1.66,1.01-2.41,1.16-1.41.29-2.1,1.08-2.87,2.17-.87,1.22-2.44,1.72-3.71,2.43l-3.43,1.91c-.62.35-1.3.97-1.95,1.28l-10.89,5.09Z"/>
          <path class="st0" d="M248.45,160.01h-81.13s1.79-3.7,1.79-3.7h77.24c.64,1.3,1.23,2.32,2.1,3.7Z"/>
          <path class="st4" d="M115.49,165.75h-63.47c-.86,0-1.38-.07-2.24-.14l1.83-3.75h65.71s-1.83,3.9-1.83,3.9Z"/>
          <polygon class="st0" points="118.42 160.03 52.5 160.03 54.17 156.31 120.22 156.32 118.42 160.03"/>
          <polygon class="st3" points="133.01 118.52 106.87 118.53 111.02 110.31 136.9 110.35 133.01 118.52"/>
          <polygon class="st0" points="273.6 160.04 265.53 160.03 249.91 160 253.21 156.31 275.26 156.31 273.6 160.04"/>
          <path class="st5" d="M296.11,84.29c.54,1.94.92,3.57,1.21,5.49h-33.42s-7.08-5.35-7.08-5.35l5.22-.15h34.07Z"/>
          <path class="st5" d="M213.03,86.53c-1.13-.67-2.11-.59-3.18-.03l-5.36,2.8c-.85.44-1.43.3-2.16-.19l-3.71-2.47.5-2.33,12.79.03,27.29.04c-2.76,1.84-5.29,3.22-7.64,5.38l-13.05.02-5.48-3.26Z"/>
          <polygon class="st5" points="298.17 96.74 281.94 96.77 274.55 91.57 297.67 91.53 298.17 96.74"/>
          <path class="st5" d="M298.19,98.63c-.08,2.54-.3,4.74-.76,7.04l-11.65-6.98,12.42-.06Z"/>
          <path class="st1" d="M252.67,107.27l-4.12,1.44c1.77-2.6,5.54-4.67,7.01-6.26.63-.68,1.12-1.31,1.94-1.82l4.26,5.85c-1.58-.73-2.54-1.69-3.84-2.56-.64-.43-1.08-.37-1.75-.05-1.33.65-3.04,1.67-3.5,3.41Z"/>
          <path class="st3" d="M192.16,93.74l-3.97-1.83c.62-.97.8-.32,1.77-.23l-1.65-3.52,5.46,6.24c-.61-.04-1.08-.41-1.62-.65Z"/>
          <path class="st3" d="M188.01,93.94c-.28.08-4.56-3.62-4.1-4.46l4.28,2.81c-.26.42-.26.77-.18,1.65Z"/>
          <path class="st1" d="M264.48,101.35l-1.79-.41c-.6-.33-3.03-2.1-3.01-3,2.42.54,3.64,1.87,4.8,3.41Z"/>
          <path class="st5" d="M269.55,93.38c-.75-.55-1.37-1.06-2.14-1.8l5.76.02-3.62,1.77Z"/>
          <path class="st5" d="M225.61,93.24c-1.05-.47-1.93-.87-2.99-1.63l5.31.04-2.32,1.59Z"/>
          <path class="st1" d="M219.65,97.72l.08.88-2.45-2.23c.25-.16.92-.42,1.17-.28l1.93,1.09c-.12.14-.46.36-.73.54Z"/>
        </g>
      </g>
      <path class="st3" d="M195.27,86.68l-4.27-2.69c-1.42-.9-2.42-2.25-3.9-3.09l-3.44-1.96c-1.94-1.11-4.25-3.47-6.42-4.8l-2.78,1.66-16.45,9.77c-2.32,1.38-4.47,2.63-6.67,4.19-.49.35-1.2.23-1.72-.07l-5.38-3.08-2.57-1.09-5.85-3.98-9.68,5.38-5.4,2.41c-2.64,1.18-5.14,2.44-7.66,3.84-1.41.78-2.79,1.21-4.37,1.62-1.49.39-1.14,1.64-4.4.56-1.93.8-3.81,1.58-5.74,2.3l3.06.13,2.7-.08c.49-.2.98-.41,1.46-.61.49.04,1.4.17,1.8-.03,1.18-.6,2.21-.55,3.43-.8,2.05-.43,4.02-1.36,5.89-2.27,3.78-1.84,4.16-2.52,8.95-3.58l-2.67,2.69c-1.58,1.59-3.27,2.89-5.06,4.25h1.56c.53-.26,1.06-.53,1.58-.83l2.49-1.4c.48-.27.6-.53.95-1.01.64-.89,1.52-1.68,2.29-2.56,1.82-2.08,3.8-4.05,6.1-5.59l2.51-1.68c.64,1.34,1.46,2.71,2.34,4.08-.85.36-1.94.89-2.46,1.53l1.08,2.35-1.84,2.99c1.54-.55,2.44-1.66,3.23-2.73l4.61,1.49c-.91.54-2.54,1.53-4.23,2.59l1.87-.14s.03.83.07,2.01l.81-.35,4.62-1.73c1.5-.56,2.82-1.21,4.17-2.05l3.57-2.2c2.3-1.42,4.89-2.25,7.13-3.75,1.35-.9,2.45-1.95,4.13-2.53-2.1,4.17-5.01,6.37-7.8,9.49l1.87-.81-2.86,2.98c-.62.64-1.2,1.25-1.79,2.18,2.66-1.67,5.18-3.37,7.6-5.43,1.52-1.29,2.8-3.03,4.92-3.45l1.75-.34c1.01-.2,1.75.56,2.88.63-.66-.68-1.24-1.09-2.07-1.7.32-.91,1.02-1.77,1.87-2.43,1.58-1.24,2.9-.1,3.16-1.07l-1.69-.95c.62-.95,1.19-1.96,1.93-2.77.63-.69.73-1.23,1.05-2.08.52-1.39,1.43-2.6,2.28-4.04l2.73,2.42c2.46,2.18,3.84,2.49,6.56,4.54,3.5,2.62,2.23,3.41,4.85,5.93l-.52-2.76c3.93,1.82,5.63,3.53,9.16,5.27.56.28,1.03.71,1.58-.08l-6.92-4.66ZM145.63,92.74l-2.1-.93c-.5-.67-.97-1.59-1.46-2.52l3.15,1.51c.77.37,1.53.95,2.17,1.32l-1.75.61ZM167.49,86.21c-.52.6-1.02,1.14-1.82,1.64l2.39-3.35c.78-1.09.27-2.16,3.49-3.6l-4.06,5.3Z"/>
    </g>
    <g>
      <path class="st3" d="M169,187.68c-1.13,2.22-3.01,3.8-5.62,3.79l-12.6-.02c-.71,0-1.55-.65-1.87-1.07-.38-.49-.4-1.56-.09-2.15l4.62-8.8c.88-1.67,2.97-2.86,4.94-2.86l12.92-.02c.67,0,1.54.62,1.8,1.07.32.55.3,1.46-.02,2.07l-4.09,7.99ZM161.32,188.06c.58,0,1.31-.44,1.57-.95l3.32-6.31c.08-.15.08-.6-.04-.69-.09-.07-.4-.2-.58-.2h-4.87c-.92.01-1.52.71-1.9,1.44l-3.09,5.85c-.08.15-.09.54,0,.63s.43.24.61.24h4.99Z"/>
      <path class="st3" d="M67.39,191.42l-5.92.08-2.97-8.25-4.35,8.18c-1.84.08-3.74.07-5.92.02l7.85-14.88,5.87-.02,2.82,8.3,4.38-8.32,6.01.04-7.75,14.84Z"/>
      <path class="st3" d="M125.42,191.48c1.22-2.37,2.1-4.22,3.33-6.24.92-1.52,3.03-2.47,4.85-2.5l8.84-.13c.83-.55,1.41-1.58,1.49-2.67l-5.38-.08c-.77-.01-1.3.54-1.71,1.24h-5.93c.62-2.28,2.61-4.5,5.18-4.51l12.91-.03c.59,0,1.34.53,1.61.89.34.44.39,1.46.11,1.99-.82,1.55-1.52,2.93-2.44,4.42-.71,1.17-2.42,1.91-3.85,1.92l-8.95.05c-1.18,0-1.83,1.24-1.97,2.23l12.46.04-1.77,3.42-18.79-.03Z"/>
      <path class="st3" d="M243.3,191.5h-18.74c1.08-2.21,2-4.12,3.14-6.13.89-1.56,2.91-2.45,4.77-2.6,2.7-.22,5.33-.1,8.06-.11,1.69,0,2.41-1.8,2.21-2.74l-5.73-.02c-.4,0-.91.7-1.17,1.18l-6.03.02c.98-2.68,2.62-4.55,5.51-4.56h12.31c.6,0,1.37.44,1.68.78.36.39.61,1.31.37,1.82-.8,1.73-1.54,3.35-2.6,4.89-.88,1.27-2.72,1.74-4.23,1.74l-7.76.02c-1.71,0-2.15.77-2.63,2.25l12.52.03-1.68,3.41Z"/>
      <path class="st3" d="M202.86,191.5c.97-2.17,1.98-4.17,3.21-6.24.93-1.57,3.02-2.47,4.89-2.5l8.7-.15c.85-.44,1.36-1.56,1.54-2.65l-5.29-.1c-.84-.02-1.33.46-1.73,1.24h-6.01c1.08-2.69,2.46-4.55,5.66-4.55h12.3c.59,0,1.34.54,1.64.9.36.43.39,1.47.11,2.01-1.75,3.34-2.55,6.29-6.73,6.32l-8.49.07c-1.1,0-1.62,1.27-1.94,2.21l12.54.02-1.78,3.42h-18.62Z"/>
      <path class="st3" d="M84.66,191.42c-3.89.13-7.5.11-11.26.04-.73-.01-1.59-.59-1.84-1.06-.34-.65-.05-1.58.28-2.18l3.06-5.67c.77-1.42,2.65-2.38,4.33-2.44,3.78-.15,7.38-.1,11.17-.01.65.01,1.4.54,1.68.93.43.59.27,1.51-.06,2.13l-3.04,5.67c-.77,1.43-2.5,2.54-4.31,2.6ZM82.84,188.32c.55-.02,1.04-.87,1.25-1.28l1.93-3.82-4.38-.15c-.45-.02-1.42.36-1.63.78l-2.22,4.4c1.88.11,3.19.12,5.06.06Z"/>
      <path class="st3" d="M106.95,180.1c1.91-.07,3.75-.06,5.77.06l-11.32,11.31-7.25.03.68-11.43,6.03-.03-.66,7.16,6.75-7.11Z"/>
      <path class="st3" d="M190.63,184.87h-3.02s1.94-4.05,1.94-4.05c-.84-.13-1.65-.13-2.31.06l-2.13,4.05-3.03-.07,4.12-8.25,3.05-.04-1.3,2.84c1.29-.18,4.21-.72,4.82.14.15.21.13.76.01.99l-2.16,4.31Z"/>
      <path class="st3" d="M263.12,184.68c-.67.15-5.55.87-4.6-1.08l1.28-2.62c.6-1.23,1.54-1.97,3.05-1.87l2.87.18,1.34-2.7h2.76s-3.96,8.23-3.96,8.23c-.95.14-1.89.18-2.74-.15ZM263.74,183.19c.56-.87.83-1.49,1.25-2.4-.7-.09-1.73-.15-2.27.12l-1.13,2.34c.56.2,1.84.41,2.14-.06Z"/>
      <path class="st3" d="M255.95,180.82c-.87-.14-1.72-.14-2.31.12l-1.95,3.94-2.8-.02,2.75-5.58c.83-.18,1.95-.24,2.76.19,1.23-.25,2.49-.41,3.92-.33.49.03.98.79.77,1.23l-2.24,4.56-2.81-.07,1.93-4.04Z"/>
      <path class="st3" d="M181.43,183.45l-.79,1.47h-3.68c-.24,0-.73-.29-.86-.47s-.13-.71-.02-.93l1.41-2.81-1.46-.2c.26-.46.5-.92.76-1.24.2-.25,1.03-.1,1.43-.11l1.08-1.89,2.97-.07-.78,1.89,2.02.11c-.19.48-.49,1.15-.75,1.38l-2.07.08-1.38,2.66,2.12.15Z"/>
      <polygon class="st3" points="112.89 191.48 106.99 191.5 108.99 187.58 114.85 187.62 112.89 191.48"/>
      <polygon class="st3" points="201.75 185.6 194.2 185.61 195.38 183.31 202.68 183.31 201.75 185.6"/>
    </g>
  </g>
</svg>