<?xml version="1.0" encoding="UTF-8"?>
<svg id="Layer_1" xmlns="http://www.w3.org/2000/svg" version="1.1" viewBox="0 0 360 251.75">
  <!-- Generator: Adobe Illustrator 30.2.1, SVG Export Plug-In . SVG Version: 2.1.1 Build 1)  -->
  <defs>
    <style>
      .st0 {
        fill-rule: evenodd;
      }

      .st0, .st1 {
        fill: #fff;
      }
    </style>
  </defs>
  <path class="st1" d="M182.77,108.22h-5.53v-48.58h5.53v48.58ZM189.81,108.22h-5.53v-48.58h5.53v48.58Z"/>
  <path class="st1" d="M221.45,64.44h-21.25v43.79h-5.53v-48.58h26.78v4.8ZM221.45,85.51h-19.74v-19.55h19.74v4.86h-14.21v9.9h14.21v4.8ZM221.45,91.83h-14.21v16.4h-5.53v-21.19h19.74v4.8Z"/>
  <path class="st1" d="M257.58,64.44h-33.34v-4.8h33.34v4.8ZM240.15,108.22h-5.53v-37.41h-10.38v-4.86h15.91v42.27ZM257.58,70.81h-10.38v37.41h-5.53v-42.27h15.91v4.86Z"/>
  <path class="st1" d="M192.12,120.56v-6.55c-.07-.11-.13-.19-.19-.26-.06-.07-.1-.11-.13-.14h-11.96c-.07.04-.15.17-.24.4v6.55h-2.6v-7.13c0-1.67.56-2.5,1.67-2.5h14.24c1.18,0,1.77.83,1.77,2.5v7.13h-2.56Z"/>
  <path class="st1" d="M213.87,117.88h4.65l.38-.42v-6.53h2.56v7.13c0,1.67-.59,2.5-1.77,2.5h-14.24c-1.11,0-1.67-.83-1.67-2.5v-7.13h2.6v6.57c.11.24.19.36.24.38h4.67v-6.95l2.58.02v6.93Z"/>
  <path class="st1" d="M246.33,110.97h-13.62c-1.42,0-2.13.68-2.14,2.05v7.55h2.52v-3.05h12.51v3.05h2.66v-7.41c0-1.46-.64-2.18-1.93-2.18ZM245.61,115.15h-12.53v-1.59c.08-.17.13-.26.16-.26h12.18s.11.13.2.28v1.57Z"/>
  <path class="st1" d="M182.77,108.22h-5.53v-48.58h5.53v48.58ZM189.81,108.22h-5.53v-48.58h5.53v48.58Z"/>
  <path class="st1" d="M221.45,64.44h-21.25v43.79h-5.53v-48.58h26.78v4.8ZM221.45,85.51h-19.74v-19.55h19.74v4.86h-14.21v9.9h14.21v4.8ZM221.45,91.83h-14.21v16.4h-5.53v-21.19h19.74v4.8Z"/>
  <path class="st1" d="M257.58,64.44h-33.34v-4.8h33.34v4.8ZM240.15,108.22h-5.53v-37.41h-10.38v-4.86h15.91v42.27ZM257.58,70.81h-10.38v37.41h-5.53v-42.27h15.91v4.86Z"/>
  <path class="st1" d="M192.12,120.56v-6.55c-.07-.11-.13-.19-.19-.26-.06-.07-.1-.11-.13-.14h-11.96c-.07.04-.15.17-.24.4v6.55h-2.6v-7.13c0-1.67.56-2.5,1.67-2.5h14.24c1.18,0,1.77.83,1.77,2.5v7.13h-2.56Z"/>
  <path class="st1" d="M213.87,117.88h4.65l.38-.42v-6.53h2.56v7.13c0,1.67-.59,2.5-1.77,2.5h-14.24c-1.11,0-1.67-.83-1.67-2.5v-7.13h2.6v6.57c.11.24.19.36.24.38h4.67v-6.95l2.58.02v6.93Z"/>
  <g>
    <g>
      <path class="st1" d="M111.11,122.22c-2.88,0-5.08-.81-6.63-2.43-1.55-1.62-2.32-3.58-2.32-5.89,0-.58.09-1.26.27-2.05.18-.79.41-1.48.7-2.05.93.25,2.32.42,4.15.53,1.83.1,3.97.15,6.41.15h12.45c4.64,0,9.07-.22,13.31-.65,4.24-.43,7.98-.85,11.21-1.24,3.23-.39,5.32-.59,6.25-.59,2.66,0,4.58.99,5.77,2.96,1.19,1.98,2.06,4.62,2.64,7.92-1.87-.22-3.72-.32-5.55-.32h-11.64c-2.34,0-4.69.14-7.06.43-1.01,2.09-2.12,4.56-3.34,7.4-1.22,2.85-2.43,5.82-3.61,8.92-1.19,3.1-2.32,6.18-3.4,9.24s-2.01,5.82-2.8,8.27c-1.58,4.76-2.96,9.15-4.15,13.19-1.19,4.04-2.23,7.8-3.13,11.3-.9,3.49-1.67,6.83-2.32,10s-1.22,6.27-1.72,9.3c-4.82-.72-8.84-3.74-12.07-9.05.57-2.23,1.28-4.65,2.1-7.28.83-2.62,1.8-5.61,2.91-8.95,1.11-3.34,2.43-7.13,3.93-11.37,1.51-4.24,3.23-9.05,5.17-14.44.72-2.01,1.47-4.11,2.26-6.31.79-2.19,1.56-4.37,2.32-6.52s1.44-4.24,2.05-6.25c.61-2.01,1.13-3.84,1.56-5.5-3.02.36-5.87.67-8.57.92-2.7.25-5.08.38-7.17.38Z"/>
      <path class="st1" d="M143.11,191.31c-4.1-.43-7.37-2.23-9.81-5.39-2.44-3.16-3.66-7.19-3.66-12.07,0-2.87.43-5.86,1.29-8.95.86-3.09,2.08-6.09,3.66-9,1.58-2.91,3.45-5.66,5.61-8.25,2.16-2.59,4.49-4.81,7.01-6.68,3.95-2.95,7.65-4.42,11.1-4.42,2.3,1.22,4.56,3.77,6.79,7.65.36,0,.68-.02.97-.05.29-.04.61-.05.97-.05,3.81,0,5.71,3.38,5.71,10.13,0,4.53-.74,8.82-2.21,12.88-1.47,4.06-3.52,7.74-6.14,11.05-2.62,3.31-5.75,6.09-9.38,8.35-3.63,2.26-7.6,3.86-11.91,4.8ZM148.61,157.36c-1.22,1.65-2.37,3.45-3.45,5.39-1.08,1.94-2.01,3.9-2.8,5.87-.79,1.98-1.4,3.88-1.83,5.71s-.65,3.47-.65,4.9c0,1.72.29,3.38.86,4.96.57,1.58,1.22,2.48,1.94,2.69,3.23-.72,6.2-2.06,8.89-4.04,2.69-1.98,5.03-4.44,7.01-7.38,1.98-2.95,3.52-6.29,4.64-10.02,1.11-3.74,1.67-7.72,1.67-11.97,0-1.87-.11-3.34-.32-4.42-.22-1.08-.58-2.01-1.08-2.8-3.16.93-5.98,2.44-8.46,4.53-2.48,2.09-4.62,4.28-6.41,6.58Z"/>
      <path class="st1" d="M153.31,219.66c0-.43.14-.83.43-1.19.29-.36.61-.72.97-1.08.86.79,1.6,1.4,2.21,1.83.61.43,1.19.79,1.72,1.08.54.29,1.1.47,1.67.54.58.07,1.26.11,2.05.11,3.74,0,7.29-.99,10.67-2.96,3.38-1.98,6.56-4.83,9.54-8.57,2.98-3.74,5.69-8.3,8.14-13.69,2.44-5.39,4.6-11.5,6.47-18.32-.86.86-1.92,1.82-3.18,2.86-1.26,1.04-2.57,2.03-3.93,2.96-1.37.93-2.71,1.8-4.04,2.59-1.33.79-2.46,1.37-3.4,1.72-1.22-.22-2.35-.74-3.4-1.56-1.04-.83-1.96-1.85-2.75-3.07-.79-1.22-1.4-2.6-1.83-4.15-.43-1.54-.65-3.18-.65-4.9,0-2.8.52-5.68,1.56-8.62,1.04-2.95,2.43-5.84,4.15-8.68,1.72-2.84,3.75-5.51,6.09-8.03,2.33-2.51,4.81-4.71,7.44-6.58,2.62-1.87,5.28-3.36,7.98-4.47,2.69-1.11,5.34-1.67,7.92-1.67s4.4.52,5.66,1.56c1.26,1.04,2.17,2.82,2.75,5.34-.79-.43-1.8-.65-3.02-.65-1.72,0-3.72.68-5.98,2.05-2.26,1.37-4.56,3.14-6.9,5.34-2.34,2.19-4.65,4.71-6.95,7.55-2.3,2.84-4.33,5.73-6.09,8.68-1.76,2.95-3.2,5.82-4.31,8.62-1.11,2.8-1.67,5.32-1.67,7.55,0,.5.04.81.11.92.07.11.18.16.32.16.65,0,1.53-.36,2.64-1.08,1.11-.72,2.37-1.63,3.77-2.75,1.4-1.11,2.86-2.41,4.37-3.88,1.51-1.47,2.95-2.96,4.31-4.47,3.09-3.45,5.91-7.31,8.46-11.59,2.55-4.27,4.58-8.42,6.09-12.45,1.94.14,3.66.47,5.17.97,1.51.5,2.55,1.04,3.13,1.62-2.44,5.61-4.4,10.31-5.87,14.12-1.47,3.81-2.75,7.19-3.83,10.13-1.94,5.17-3.76,9.9-5.44,14.17-1.69,4.27-3.41,8.23-5.17,11.86-1.76,3.63-3.66,7.01-5.71,10.13-2.05,3.13-4.37,6.13-6.95,9-1.22,1.36-2.61,2.57-4.15,3.61-1.55,1.04-3.13,1.92-4.74,2.64-1.62.72-3.2,1.26-4.74,1.62-1.55.36-2.96.54-4.26.54-1.72,0-3.49-.2-5.28-.59-1.8-.4-3.47-.93-5.01-1.62-1.54-.68-2.89-1.47-4.04-2.37-1.15-.9-1.98-1.85-2.48-2.86Z"/>
      <path class="st1" d="M257.84,142.91c-.29,4.46-1.08,8.28-2.37,11.48-1.29,3.2-3.14,6-5.55,8.41-2.41,2.41-5.34,4.58-8.79,6.52-3.45,1.94-7.47,3.81-12.07,5.61,0,.43-.02.88-.05,1.35-.04.47-.05.95-.05,1.46,0,.93.07,1.9.22,2.91.14,1.01.39,1.94.75,2.8.36.86.86,1.56,1.51,2.1.65.54,1.47.81,2.48.81,1.94,0,3.84-.43,5.71-1.29,1.87-.86,3.65-1.92,5.34-3.18,1.69-1.26,3.27-2.62,4.74-4.1,1.47-1.47,2.78-2.82,3.93-4.04.72.65,1.33,1.26,1.83,1.83-3.23,4.31-6.77,7.89-10.62,10.73-3.85,2.84-7.49,4.65-10.94,5.44-4.96-.58-8.82-2.39-11.59-5.44-2.77-3.05-4.15-6.74-4.15-11.05,0-2.95.41-5.95,1.24-9,.83-3.05,1.98-6,3.45-8.84,1.47-2.84,3.2-5.51,5.17-8.03,1.98-2.51,4.1-4.71,6.36-6.58,2.26-1.87,4.6-3.34,7.01-4.42,2.41-1.08,4.8-1.62,7.17-1.62,3.3.43,6.4,2.48,9.27,6.14ZM250.4,146.47c-1.94.29-3.95,1.08-6.04,2.37-2.09,1.29-4.04,3.02-5.87,5.17-1.83,2.16-3.5,4.67-5.01,7.55-1.51,2.87-2.69,5.97-3.56,9.27,5.75-2.87,10.53-6.41,14.34-10.62,3.81-4.2,5.86-8.79,6.14-13.74Z"/>
    </g>
    <path class="st1" d="M151.99,133.59c-2.21,0-3.91-.61-5.1-1.83-1.19-1.22-1.78-2.7-1.78-4.44,0-.43.07-.95.21-1.55.14-.6.32-1.11.54-1.55.72.19,1.78.32,3.19.4,1.41.08,3.05.12,4.94.12,2.82,0,12.43-.2,14.92-.49,2.49-.29,4.09-.44,4.81-.44,2.05,0,3.53.75,4.44,2.23.91,1.49,1.59,3.48,2.03,5.97-1.44-.16-2.86-.24-4.27-.24h-3.61c-1.77,0-12.72,1.36-14.79,1.55-2.07.19-3.91.28-5.52.28Z"/>
  </g>
  <path class="st0" d="M120.86,40.18l11.71,2,15.05-15.12,13.65,3.87c40.99,10.83-14.7,6.96-15.3,23.81l-38.7.26,13.59-14.81ZM157.96,28l24.42-15.59,24.66,21.86,10.14-7,32.93,27.71-85.93-.08c-2.78-16.94,57.49-13.5-.75-25.72l-5.48-1.19Z"/>
  <g>
    <path class="st1" d="M102.44,105.04l1.92.51c.53.14,1.59.33,3.66.45,1.77.1,3.88.15,6.28.15h12.45c2.3,0,4.56-.06,6.77-.17,1.19-1.27,1.82-3.08,1.82-5.48v-33.16c0-5.65-3.22-7.71-8.38-7.71h-24.72v45.33l.2.08ZM107.77,64.44h19.19c2.13,0,2.85.73,2.85,2.91v33.16c0,2.19-.73,2.91-2.85,2.91h-19.19v-38.99Z"/>
    <path class="st1" d="M128.29,100.02v-32.19c0-1.58-.36-1.88-1.88-1.88h-17.13v35.95h17.06c1.64,0,1.94-.3,1.94-1.88ZM122.77,97.05h-7.96v-26.23h7.96v26.23Z"/>
  </g>
  <g>
    <path class="st1" d="M147.24,104.67c1.16-.13,2.27-.26,3.33-.39.83-.1,1.56-.18,2.19-.25v-12.14h7.04v12.1c2.72.69,4.29,2.37,5.17,3.83.08.13.16.27.23.4h.13v-16.82c0-2.79-2.37-4.31-4.98-4.31h-13.12v17.58Z"/>
    <path class="st1" d="M172.38,80.04v-12.45c0-5.77-3.04-7.96-8.56-7.96h-23.62v45.79c1.93-.2,3.78-.4,5.53-.59v-40.4h18.58c1.52,0,2.55.73,2.55,2.43v13.66c0,3.77-1.4,5.22-3.7,5.71v.12c1.88.24,3.7,1.76,3.7,5.4v16.46h5.53v-16.09c0-3.7-1.82-5.4-4.49-5.71v-.12c2.79-.79,4.49-2.55,4.49-6.26Z"/>
    <path class="st1" d="M165.34,81.14v-13.48c0-1.4-.36-1.7-1.58-1.7h-16.52v19.62h13.12c2.79,0,4.98-1.52,4.98-4.43ZM159.81,80.77h-7.04v-9.96h7.04v9.96Z"/>
  </g>
</svg>